<?xml version="1.0" encoding="UTF-8" standalone="no"?>

<svg
	xmlns="http://www.w3.org/2000/svg" version="1.1"
	xmlns:freecad="http://www.freecadweb.org/wiki/index.php?title=Svg_Namespace"
	width="297mm"
	height="210mm"
	viewBox="0 0 297 210">
	<!-- Working space 10 10 287 200 -->
	<!-- Title block 107 162 287 200 -->
	<g>
		<rect
			id="drawing-border"
			style="fill:none;stroke:#000000;stroke-width:0.35;stroke-linecap:miter;stroke-miterlimit:4"
			width="277"
			height="190"
			x="10"
			y="10" />
			<!-- width-20, height-20 -->
		<g
			transform="translate(87,-65)">
			<!-- A4 Portrait based for other formats width-210, height-297 -->
			<!--        page       rect   translation
			               w    h    rw   rh   tx   ty
			        A4-P  210  297  180  277    0    0
			        A3-L  420  297  390  277  210    0
			        A2-L  594  420  564  400  384  123
			        A1-L  841  594  811  574  631  297
			        A0-L 1189  841 1159  821  979  544
			-->
			<g
				id="titleblock-structure"
				style="fill:none;stroke:#000000;stroke-width:0.35;stroke-linecap:miter;stroke-miterlimit:4">
				<rect width="180" height="38" x="20" y="227" />
				<path d="m 20,238 h 180" />
				<path d="m 80,227 v 11" />
				<path d="m 140,227 v 38" />
				<path d="m 160,227 v 11" />
				<path d="m 180,227 v 11" />
				<path d="m 140,254 h 60" />
				<path d="m 180,254 v 11" />
			</g>
			<g
				id="titleblock-text-non-editable"
				style="font-size:3px;text-anchor:start;fill:#000000;font-family:osifont"
				xml:space="preserve">
				<text x="21" y="230.5">Created by:</text>
				<text x="81" y="230.5">Title:</text>
				<text x="21" y="241.5">Supplementary information:</text>
				<text x="141" y="230.5">Size:</text>
				<text x="161" y="230.5">Sheet:</text>
				<text x="181" y="230.5">Scale:</text>
				<text x="141" y="241.5">Part number:</text>
				<text x="141" y="249.5">Drawing no.:</text>
				<text x="141" y="257.5">Date:</text>
				<text x="181" y="257.5">Revision:</text>
			</g>
			<g
				id="titleblock-text-editable"
				style="font-size:5px;text-anchor:middle;fill:#000000;font-family:osifont"
				xml:space="preserve">
				<text freecad:editable="AUTHOR NAME" x="50" y="236"><tspan>Antonio A. Sánchez</tspan></text>
				<text freecad:editable="DRAWING TITLE" x="110" y="236"><tspan>KEEP-OUT GAMING</tspan></text>
				<text freecad:editable="SI-1" x="80" y="247"><tspan>KEEP-OUT PSU</tspan></text>
				<text freecad:editable="FreeCAD DRAWING" x="80" y="254"><tspan>CONECTOR MOLEX</tspan></text>
				<text freecad:editable="SI-3" x="80" y="261"><tspan></tspan></text>
				<text freecad:editable="FC-SI" x="150" y="236"><tspan>A4</tspan></text>
				<text freecad:editable="FC-SH" x="170" y="236"><tspan>1 / 1</tspan></text>
				<text freecad:editable="FC-SC" x="190" y="236"><tspan></tspan></text>
				<text freecad:editable="PN" x="180" y="244"><tspan>PN1</tspan></text>
				<text freecad:editable="DN" x="180" y="252"><tspan>DN1</tspan></text>
				<text freecad:editable="FC-DATE" x="160" y="263"><tspan>17/06/2021</tspan></text>
				<text freecad:editable="FC-REV" x="190" y="263"><tspan>REV A</tspan></text>
			</g>
			<!-- Set display:none to hide FreeCAD Logo -->
			<g
				style="display:inline"
				id="freecad-logo"
				transform="translate(128.5,254)"
				fill-rule="evenodd"
				stroke="#000"
				stroke-width="0.35"
				fill="none">
					<path d="m0.1524 0.15254v8.8549h1.9744v-3.4652h1.396v-1.3661h-1.396v-1.4745h3.4391v-2.5441l-5.4135-0.005z"/>
					<path d="m7.7927 3.4504-0.50715-0.176-0.48387-1.2366-0.76115 0.04-0.34718 1.2787-0.4859 0.23269-1.2119-0.53015-0.51188 0.56882 0.65892 1.1485-0.18006 0.50567-1.2366 0.48387 0.044064 0.76263 1.2787 0.34718 0.23269 0.4859-0.53421 1.2104 0.56882 0.51188 1.1485-0.65891 0.50973 0.18155 0.4798 1.2351 0.7667-0.04258 0.34311-1.2802 0.4859-0.23269 1.2145 0.5357 0.51188-0.56882-0.65891-1.1485 0.17748-0.51122 1.2351-0.4798-0.03851-0.76521-1.2802-0.34311-0.23269-0.4859 0.53163-1.216-0.56881-0.51184zm-0.5715 1.2244 0.23576 0.13679 0.20426 0.18519 0.16353 0.22101 0.11763 0.24572 0.06916 0.26489 0.01146 0.27146-0.03921 0.27139-0.08948 0.25764-0.14234 0.23834-0.17964 0.20167-0.22101 0.16353-0.24572 0.11763-0.26489 0.06916-0.27295 0.01553-0.2719-0.04-0.2576-0.089-0.2383-0.143-0.2002-0.183-0.165-0.217-0.1177-0.246-0.0676-0.269-0.0156-0.273 0.039206-0.2714 0.089484-0.25764 0.14085-0.23427 0.18113-0.20574 0.22101-0.16352 0.24572-0.11763 0.26895-0.06768 0.27147-0.01146 0.27139 0.03921 0.25764 0.08948z"/>
			</g>
		</g>
	</g>
<g id="Ortho_0_0"
   transform="rotate(-90,158.667,144.662) translate(158.667,144.662) scale(4,4)"
  >
<g   fill="none"
   stroke="rgb(0, 0, 0)"
   stroke-linecap="butt"
   stroke-linejoin="miter"
   stroke-width="0.087500"
   transform="scale(1,-1)"
  >
<circle cx ="3" cy ="-2.88" r ="1.4" /><circle cx ="3" cy ="-2.88" r ="1.2" /><circle cx ="3" cy ="-7.96" r ="1.4" /><circle cx ="3" cy ="-7.96" r ="1.2" /><circle cx ="3" cy ="-13.04" r ="1.4" /><circle cx ="3" cy ="-13.04" r ="1.2" /><circle cx ="3" cy ="-18.12" r ="1.4" /><circle cx ="3" cy ="-18.12" r ="1.2" /><path id= "9" d=" M 6 -21 L 7 -21 " />
<path id= "10" d=" M 0 -21 L 1.8 -21 " />
<path id= "11" d=" M 6 -21 L 1.8 -21 " />
<path id= "12" d=" M 7 -21 L 7 -15.14 " />
<path d="M7 -14.14 A0.5 0.5 0 0 0 7 -15.14" /><path id= "14" d=" M 7 -14.14 L 7 0 " />
<path id= "15" d=" M 6 0 L 7 0 " />
<path id= "16" d=" M 0 0 L 1.8 0 " />
<path id= "17" d=" M 6 0 L 1.8 0 " />
<path id= "18" d=" M 6 -21 L 6 0 " />
<path id= "19" d=" M 5.3 -23.5 L 5.3 -21 " />
<path id= "20" d=" M 5.3 -23.5 L 1.8 -23.5 " />
<path id= "21" d=" M 1.8 -23.5 L 1.8 -21 " />
<path id= "22" d=" M 0 -19.2 L 0 -21 " />
<path id= "23" d=" M 0 -1.8 L 0 0 " />
<path id= "24" d=" M 0 -19.2 L 0 -1.8 " />
<path id= "25" d=" M 1.8 -21 L 0 -19.2 " />
<path id= "26" d=" M 1.8 0 L 0 -1.8 " />
<path d="M3.35 -16.0494 A2.1 2.1 0 0 0 3 -20.22" /><path id= "28" d=" M 3.35 -15.1106 L 3.35 -16.0494 " />
<path d="M3.35 -10.9694 A2.1 2.1 0 0 0 3.35 -15.1106" /><path id= "30" d=" M 3.35 -10.0306 L 3.35 -10.9694 " />
<path d="M3.35 -5.88937 A2.1 2.1 0 0 0 3.35 -10.0306" /><path id= "32" d=" M 3.35 -4.95063 L 3.35 -5.88937 " />
<path d="M2.65 -4.95063 A2.1 2.1 0 1 0 3.35 -4.95063" /><path id= "34" d=" M 2.65 -4.95063 L 2.65 -5.88937 " />
<path d="M2.65 -10.0306 A2.1 2.1 0 0 0 2.65 -5.88937" /><path id= "36" d=" M 2.65 -10.0306 L 2.65 -10.9694 " />
<path d="M2.65 -15.1106 A2.1 2.1 0 0 0 2.65 -10.9694" /><path id= "38" d=" M 2.65 -15.1106 L 2.65 -16.0494 " />
<path d="M3 -20.22 A2.1 2.1 0 0 0 2.65 -16.0494" /><path id= "40" d=" M 5.3 2.5 L 5.3 -4.44089e-16 " />
<path id= "41" d=" M 1.8 2.5 L 5.3 2.5 " />
<path id= "42" d=" M 1.8 2.5 L 1.8 -4.44089e-16 " />
<path d="M2.65 -16.0494 A2.1 2.1 0 0 0 3.35 -16.0494" /><path d="M3 -15.14 A2.1 2.1 0 0 0 2.65 -15.1106" /><path d="M2.65 -10.9694 A2.1 2.1 0 0 0 3.35 -10.9694" /><path d="M3.35 -15.1106 A2.1 2.1 0 0 0 3 -15.14" /><path d="M3 -10.06 A2.1 2.1 0 0 0 2.65 -10.0306" /><path d="M2.65 -5.88937 A2.1 2.1 0 0 0 3.35 -5.88937" /><path d="M3.35 -10.0306 A2.1 2.1 0 0 0 3 -10.06" /><path d="M3 -4.98 A2.1 2.1 0 0 0 2.65 -4.95063" /><path d="M3.35 -4.95063 A2.1 2.1 0 0 0 3 -4.98" /></g>
</g>



<g id="Ortho_-1_1"
   transform="rotate(60,24.8861,77.4374) translate(24.8861,77.4374) scale(4,4)"
  >
<g   fill="none"
   stroke="rgb(0, 0, 0)"
   stroke-linecap="butt"
   stroke-linejoin="miter"
   stroke-width="0.087500"
   transform="scale(1,-1)"
  >
<path id= "1" d=" M 8.84594 11.5248 L 8.77042 11.4812 " />
<path id= "2" d=" M 10.2459 9.09992 L 10.1704 9.05632 " />
<path id= "3" d=" M 8.84594 15.6726 L 8.77042 15.629 " />
<path id= "4" d=" M 10.2459 13.2477 L 10.0056 13.1089 " />
<path id= "5" d=" M 8.84594 19.8204 L 8.77042 19.7768 " />
<path id= "6" d=" M 10.2459 17.3955 L 10.0056 17.2567 " />
<path id= "7" d=" M 8.84594 23.9682 L 8.77042 23.9246 " />
<path id= "8" d=" M 10.2459 21.5433 L 10.0056 21.4045 " />
<path id= "9" d=" M -0.25 18.102 L -5.19975 15.2443 " />
</g>
<g   fill="none"
   stroke="rgb(0, 0, 0)"
   stroke-linecap="butt"
   stroke-linejoin="miter"
   stroke-width="0.087500"
   transform="scale(1,-1)"
  >
<path d="M9.54594 11.4554 A1.4 0.80829 -60 0 1 8.84594 11.5248" />
<path d="M8.84594 11.5248 A1.4 0.80829 -60 0 1 8.77093 11.471" />
<path d="M10.1619 9.06184 A1.4 0.80829 -60 0 1 10.2459 9.09992" />
<path d="M10.2459 9.09992 A1.4 0.80829 -60 0 1 9.54594 11.4554" />
<path d="M9.54594 11.2921 A1.2 0.69282 -60 0 1 8.94594 11.3516" />
<path d="M8.94594 11.3516 A1.2 0.69282 -60 0 1 8.79949 11.2092" />
<path d="M9.94944 9.21746 A1.2 0.69282 -60 0 1 10.1459 9.27312" />
<path d="M10.1459 9.27312 A1.2 0.69282 -60 0 1 9.54594 11.2921" />
<path d="M9.54594 15.6032 A1.4 0.80829 -60 0 1 8.84594 15.6726" />
<path d="M8.84594 15.6726 A1.4 0.80829 -60 0 1 8.77093 15.6188" />
<path d="M10.0056 13.1824 A1.4 0.80829 -60 0 1 10.2459 13.2477" />
<path d="M10.2459 13.2477 A1.4 0.80829 -60 0 1 9.54594 15.6032" />
<path d="M9.54594 15.44 A1.2 0.69282 -60 0 1 8.94594 15.4994" />
<path d="M8.94594 15.4994 A1.2 0.69282 -60 0 1 8.79949 15.357" />
<path d="M9.94944 13.3653 A1.2 0.69282 -60 0 1 10.1459 13.4209" />
<path d="M10.1459 13.4209 A1.2 0.69282 -60 0 1 9.54594 15.44" />
<path d="M9.54594 19.7511 A1.4 0.80829 -60 0 1 8.84594 19.8204" />
<path d="M8.84594 19.8204 A1.4 0.80829 -60 0 1 8.77093 19.7666" />
<path d="M10.0056 17.3302 A1.4 0.80829 -60 0 1 10.2459 17.3955" />
<path d="M10.2459 17.3955 A1.4 0.80829 -60 0 1 9.54594 19.7511" />
<path d="M9.54594 19.5878 A1.2 0.69282 -60 0 1 8.94594 19.6472" />
<path d="M8.94594 19.6472 A1.2 0.69282 -60 0 1 8.79949 19.5048" />
<path d="M9.94944 17.5131 A1.2 0.69282 -60 0 1 10.1459 17.5687" />
<path d="M10.1459 17.5687 A1.2 0.69282 -60 0 1 9.54594 19.5878" />
<path d="M9.54594 23.8989 A1.4 0.80829 -60 0 1 8.84594 23.9682" />
<path d="M8.84594 23.9682 A1.4 0.80829 -60 0 1 8.77093 23.9144" />
<path d="M10.0056 21.478 A1.4 0.80829 -60 0 1 10.2459 21.5433" />
<path d="M10.2459 21.5433 A1.4 0.80829 -60 0 1 9.54594 23.8989" />
<path d="M9.54594 23.7356 A1.2 0.69282 -60 0 1 8.94594 23.795" />
<path d="M8.94594 23.795 A1.2 0.69282 -60 0 1 8.79949 23.6526" />
<path d="M9.94944 21.6609 A1.2 0.69282 -60 0 1 10.1459 21.7165" />
<path d="M10.1459 21.7165 A1.2 0.69282 -60 0 1 9.54594 23.7356" />
<path id= "33" d=" M 8.13173 26.7403 L 0.707107 22.4537 " />
<path id= "34" d=" M 0.707107 22.4537 L -4.44089e-16 22.8619 " />
<path id= "35" d=" M 0 22.8619 L -4.94975 20.0042 " />
<path id= "36" d=" M 8.13173 26.7403 L 11.1016 25.0256 " />
<path id= "37" d=" M -4.94975 20.0042 L -4.94975 15.3886 " />
<path id= "38" d=" M 0 22.8619 L 0 18.0772 " />
<path d="M-4.94975 14.403 A0.5 0.288675 120 0 0 -5.19975 15.2443" />
<path d="M-2.85882e-15 17.2607 A0.5 0.288675 120 0 0 -0.25 18.102" />
<path d="M-0.25 18.102 A0.5 0.288675 120 0 0 9.15934e-16 18.0772" />
<path id= "42" d=" M 0 17.2607 L -4.94975 14.403 " />
<path id= "43" d=" M -4.94975 14.403 L -4.94975 2.85774 " />
<path id= "44" d=" M 0 5.71548 L -4.94975 2.85774 " />
<path id= "45" d=" M 0 17.2607 L 0 5.71548 " />
<path id= "46" d=" M 8.13173 9.59383 L 0.707107 5.30723 " />
<path id= "47" d=" M 0.707107 5.30723 L -4.44089e-16 5.71548 " />
<path id= "48" d=" M -4.94975 2.85774 L -3.74767 2.16372 " />
<path id= "49" d=" M -0.919239 3.79671 L -3.74767 2.16372 " />
<path id= "50" d=" M 1.55563 2.36784 L -0.919239 3.79671 " />
<path id= "51" d=" M 0.282843 0.163299 L 6.71751 3.87836 " />
<path id= "52" d=" M 6.71751 3.87836 L 5.44472 4.61321 " />
<path id= "53" d=" M 5.44472 4.61321 L 11.1016 7.87919 " />
<path id= "54" d=" M 8.13173 9.59383 L 11.1016 7.87919 " />
<path id= "55" d=" M 8.13173 26.7403 L 8.13173 9.59383 " />
<path id= "56" d=" M 0.707107 22.4537 L 0.707107 5.30723 " />
<path id= "57" d=" M 4.59619 13.6763 L 7.42462 15.3093 " />
<path id= "58" d=" M 7.42462 15.3093 L 7.42462 11.2268 " />
<path id= "59" d=" M 4.59619 9.59383 L 7.42462 11.2268 " />
<path id= "60" d=" M 4.59619 13.6763 L 4.59619 9.59383 " />
<path id= "61" d=" M 4.59619 22.6578 L 7.42462 24.2908 " />
<path id= "62" d=" M 7.42462 24.2908 L 7.42462 20.2083 " />
<path id= "63" d=" M 4.59619 18.5753 L 7.42462 20.2083 " />
<path id= "64" d=" M 4.59619 22.6578 L 4.59619 18.5753 " />
<path id= "65" d=" M -3.74767 20.6982 L -3.74767 21.3514 " />
<path id= "66" d=" M -3.74767 21.3514 L -2.68701 21.9638 " />
<path id= "67" d=" M -2.68701 21.9638 L -2.12132 21.6372 " />
<path id= "68" d=" M 6.71751 5.34805 L 6.71751 3.87836 " />
<path id= "69" d=" M 12.3744 22.8211 L 12.3744 8.61404 " />
<path id= "70" d=" M 11.1016 25.0256 L 12.3744 22.8211 " />
<path id= "71" d=" M 11.1016 7.87919 L 12.3744 8.61404 " />
<path d="M10.0056 21.6162 A2.1 1.21244 120 0 0 9.20305 24.9827" />
<path d="M9.20305 24.9827 A2.1 1.21244 120 0 0 10.253 24.8787" />
<path id= "74" d=" M 10.0056 20.8498 L 10.0056 21.6162 " />
<path d="M10.0056 17.4684 A2.1 1.21244 120 0 0 9.20305 20.8349" />
<path d="M9.20305 20.8349 A2.1 1.21244 120 0 0 10.0056 20.8498" />
<path id= "77" d=" M 10.0056 16.702 L 10.0056 17.4684 " />
<path d="M10.0056 13.3206 A2.1 1.21244 120 0 0 9.20305 16.6871" />
<path d="M9.20305 16.6871 A2.1 1.21244 120 0 0 10.0056 16.702" />
<path id= "80" d=" M 10.0056 12.5541 L 10.0056 13.3206 " />
<path d="M10.5005 12.2684 A2.1 1.21244 120 0 0 11.303 8.90195" />
<path d="M11.303 8.90195 A2.1 1.21244 120 0 0 9.20305 12.5393" />
<path d="M9.20305 12.5393 A2.1 1.21244 120 0 0 10.0056 12.5541" />
<path id= "84" d=" M 10.5005 12.2684 L 10.5005 13.0349 " />
<path d="M10.5005 16.4162 A2.1 1.21244 120 0 0 11.303 13.0497" />
<path d="M11.303 13.0497 A2.1 1.21244 120 0 0 10.5005 13.0349" />
<path id= "87" d=" M 10.5005 16.4162 L 10.5005 17.1827 " />
<path d="M10.5005 20.564 A2.1 1.21244 120 0 0 11.303 17.1976" />
<path d="M11.303 17.1976 A2.1 1.21244 120 0 0 10.5005 17.1827" />
<path id= "90" d=" M 10.5005 20.564 L 10.5005 21.3305 " />
<path d="M10.253 24.8787 A2.1 1.21244 120 0 0 11.303 21.3454" />
<path d="M11.303 21.3454 A2.1 1.21244 120 0 0 10.5005 21.3305" />
<path id= "93" d=" M -3.74767 2.16372 L -3.74767 0.122474 " />
<path id= "94" d=" M -3.74767 0.122474 L -2.68701 0.734847 " />
<path id= "95" d=" M -2.68701 0.734847 L -0.919239 3.79671 " />
<path id= "96" d=" M -0.212132 -0.694022 L -2.68701 0.734847 " />
<path id= "97" d=" M -0.212132 -0.694022 L 1.55563 2.36784 " />
<path id= "98" d=" M -1.27279 -1.30639 L -0.212132 -0.694022 " />
<path id= "99" d=" M 7.42462 15.3093 L 7.07107 14.6969 " />
<path id= "100" d=" M 7.07107 14.6969 L 5.65685 13.8804 " />
<path id= "101" d=" M 5.65685 13.8804 L 4.59619 13.6763 " />
<path id= "102" d=" M 7.07107 14.6969 L 7.07107 11.0227 " />
<path id= "103" d=" M 5.65685 13.8804 L 5.65685 10.2062 " />
<path id= "104" d=" M 7.42462 24.2908 L 7.07107 23.6784 " />
<path id= "105" d=" M 7.07107 23.6784 L 5.65685 22.8619 " />
<path id= "106" d=" M 5.65685 22.8619 L 4.59619 22.6578 " />
<path id= "107" d=" M 7.07107 23.6784 L 7.07107 20.0042 " />
<path id= "108" d=" M 5.65685 22.8619 L 5.65685 19.1877 " />
<path id= "109" d=" M 10.5005 21.3305 L 10.0056 21.0447 " />
<path id= "110" d=" M 10.0056 20.8498 L 8.78889 20.1473 " />
<path id= "111" d=" M 10.5005 20.564 L 9.28392 19.8616 " />
<path id= "112" d=" M 10.5005 17.1827 L 10.0056 16.8969 " />
<path id= "113" d=" M 10.0056 16.702 L 8.78889 15.9995 " />
<path id= "114" d=" M 10.5005 16.4162 L 9.28392 15.7138 " />
<path id= "115" d=" M 10.5005 13.0349 L 10.0056 12.7491 " />
<path id= "116" d=" M 10.0056 12.5541 L 8.78889 11.8517 " />
<path id= "117" d=" M 10.5005 12.2684 L 9.28392 11.566 " />
<path id= "118" d=" M -1.27279 -1.30639 L -3.74767 0.122474 " />
</g>
</g>



<g id="Ortho_0_1"
   transform="rotate(90,158.667,27.3382) translate(158.667,27.3382) scale(4,4)"
  >
<g   fill="none"
   stroke="rgb(0, 0, 0)"
   stroke-linecap="butt"
   stroke-linejoin="miter"
   stroke-width="0.087500"
   transform="scale(1,-1)"
  >
<path id= "1" d=" M 17.5 21 L 7 21 " />
<path id= "2" d=" M 7 21 L 0 21 " />
<path id= "3" d=" M 0 21 L 0 15.14 " />
<path id= "4" d=" M 7 15.14 L 0 15.14 " />
<path id= "5" d=" M 7 21 L 7 15.14 " />
<path d="M0,14.14 Q0,14.1463 0,14.1525  Q0,14.171 0,14.1895  Q0,14.2193 0,14.2491  Q0,14.2887 0,14.3283  Q0,14.3757 0,14.4231  Q0,14.5272 0,14.64  Q0,14.6956 0,14.7513  Q0,14.8041 0,14.8569  Q0,14.9043 0,14.9517  Q0,14.9913 0,15.0309  Q0,15.0607 0,15.0905  Q0,15.109 0,15.1275  Q0,15.1337 0,15.14 " /><path d="M7,14.14 Q7,14.1463 7,14.1525  Q7,14.171 7,14.1895  Q7,14.2193 7,14.2491  Q7,14.2887 7,14.3283  Q7,14.3757 7,14.4231  Q7,14.5272 7,14.64  Q7,14.6956 7,14.7513  Q7,14.8041 7,14.8569  Q7,14.9043 7,14.9517  Q7,14.9913 7,15.0309  Q7,15.0607 7,15.0905  Q7,15.109 7,15.1275  Q7,15.1337 7,15.14 " /><path id= "8" d=" M 7 14.14 L 0 14.14 " />
<path id= "9" d=" M 0 14.14 L 0 0 " />
<path id= "10" d=" M 7 0 L 0 0 " />
<path id= "11" d=" M 7 14.14 L 7 0 " />
<path id= "12" d=" M 17.5 0 L 7 0 " />
<path id= "13" d=" M 17.5 21 L 17.5 0 " />
<path id= "14" d=" M 12.5 7.5 L 16.5 7.5 " />
<path id= "15" d=" M 16.5 7.5 L 16.5 2.5 " />
<path id= "16" d=" M 12.5 2.5 L 16.5 2.5 " />
<path id= "17" d=" M 12.5 7.5 L 12.5 2.5 " />
<path id= "18" d=" M 12.5 18.5 L 16.5 18.5 " />
<path id= "19" d=" M 16.5 18.5 L 16.5 13.5 " />
<path id= "20" d=" M 12.5 13.5 L 16.5 13.5 " />
<path id= "21" d=" M 12.5 18.5 L 12.5 13.5 " />
<path id= "22" d=" M 0 21 L 0 23.5 " />
<path id= "23" d=" M 0 23.5 L 1.5 23.5 " />
<path id= "24" d=" M 1.5 23.5 L 4 21 " />
<path id= "25" d=" M 0 0 L 0 -2.5 " />
<path id= "26" d=" M 0 -2.5 L 1.5 -2.5 " />
<path id= "27" d=" M 1.5 -2.5 L 4 4.44089e-16 " />
<path id= "28" d=" M 15.5 7.5 L 15.5 2.5 " />
<path id= "29" d=" M 13.5 7.5 L 13.5 2.5 " />
<path id= "30" d=" M 15.5 18.5 L 15.5 13.5 " />
<path id= "31" d=" M 13.5 18.5 L 13.5 13.5 " />
</g>
</g>



<g id="Ortho_-1_0"
   transform="rotate(90,44.3333,144.662) translate(44.3333,144.662) scale(4,4)"
  >
<g   fill="none"
   stroke="rgb(0, 0, 0)"
   stroke-linecap="butt"
   stroke-linejoin="miter"
   stroke-width="0.087500"
   transform="scale(1,-1)"
  >
<path id= "1" d=" M -7.5 7 L -7.5 0 " />
</g>
<g   fill="none"
   stroke="rgb(0, 0, 0)"
   stroke-linecap="butt"
   stroke-linejoin="miter"
   stroke-width="0.087500"
   transform="scale(1,-1)"
  >
<path d="M-7,0 C-7.1312,0 -7.26047,0 -7.35355,0  C-7.44602,0 -7.49957,0 -7.5,0 " /><path d="M-7,7 C-7.1312,7 -7.26047,7 -7.35355,7  C-7.44602,7 -7.49957,7 -7.5,7 " /><path id= "3" d=" M -7 7 L -7 0 " />
<path id= "4" d=" M -6 17.5 L -6 7 " />
<path id= "5" d=" M -6 7 L -7 7 " />
<path id= "6" d=" M -7 0 L -5.3 0 " />
<path id= "7" d=" M -1.8 4 L -5.3 4 " />
<path id= "8" d=" M -1.8 0 L 0 0 " />
<path id= "9" d=" M 0 0 L 0 9.5 " />
<path id= "10" d=" M 0 9.5 L -1.8 9.5 " />
<path id= "11" d=" M -1.8 9.5 L -1.8 17.5 " />
<path id= "12" d=" M -6 17.5 L -1.8 17.5 " />
<path id= "13" d=" M 0 9.5 L 0 17.5 " />
<path id= "14" d=" M -1.8 17.5 L 0 17.5 " />
<path id= "15" d=" M -5.3 0 L -5.3 1.5 " />
<path id= "16" d=" M -5.3 1.5 L -5.3 4 " />
<path id= "17" d=" M -1.8 1.5 L -5.3 1.5 " />
<path id= "18" d=" M -1.8 1.5 L -1.8 4 " />
<path id= "19" d=" M -1.8 0 L -1.8 1.5 " />
<path id= "20" d=" M -1.8 0 L -5.3 0 " />
</g>
</g>



</svg>

