  0
SECTION
  2
HEADER
  9
$ACADVER
  1
AC1015
  9
$ACADMAINTVER
 70
     6
  9
$DWGCODEPAGE
  3
ANSI_1252
  9
$INSBASE
 10
0.0
 20
0.0
 30
0.0
  9
$EXTMIN
 10
0.0
 20
0.0
 30
0.0
  9
$EXTMAX
 10
190.763763
 20
175.376511
 30
2.0
  9
$LIMMIN
 10
0.0
 20
0.0
  9
$LIMMAX
 10
420.0
 20
297.0
  9
$ORTHOMODE
 70
     0
  9
$REGENMODE
 70
     1
  9
$FILLMODE
 70
     1
  9
$QTEXTMODE
 70
     0
  9
$MIRRTEXT
 70
     1
  9
$LTSCALE
 40
1.0
  9
$ATTMODE
 70
     1
  9
$TEXTSIZE
 40
2.5
  9
$TRACEWID
 40
1.0
  9
$TEXTSTYLE
  7
Standard
  9
$CLAYER
  8
0
  9
$CELTYPE
  6
ByLayer
  9
$CECOLOR
 62
   256
  9
$CELTSCALE
 40
1.0
  9
$DISPSILH
 70
     0
  9
$DIMSCALE
 40
1.0
  9
$DIMASZ
 40
2.5
  9
$DIMEXO
 40
0.625
  9
$DIMDLI
 40
3.75
  9
$DIMRND
 40
0.0
  9
$DIMDLE
 40
0.0
  9
$DIMEXE
 40
1.25
  9
$DIMTP
 40
0.0
  9
$DIMTM
 40
0.0
  9
$DIMTXT
 40
2.5
  9
$DIMCEN
 40
2.5
  9
$DIMTSZ
 40
0.0
  9
$DIMTOL
 70
     0
  9
$DIMLIM
 70
     0
  9
$DIMTIH
 70
     0
  9
$DIMTOH
 70
     0
  9
$DIMSE1
 70
     0
  9
$DIMSE2
 70
     0
  9
$DIMTAD
 70
     1
  9
$DIMZIN
 70
     8
  9
$DIMBLK
  1

  9
$DIMASO
 70
     1
  9
$DIMSHO
 70
     1
  9
$DIMPOST
  1

  9
$DIMAPOST
  1

  9
$DIMALT
 70
     0
  9
$DIMALTD
 70
     3
  9
$DIMALTF
 40
0.03937
  9
$DIMLFAC
 40
1.0
  9
$DIMTOFL
 70
     1
  9
$DIMTVP
 40
0.0
  9
$DIMTIX
 70
     0
  9
$DIMSOXD
 70
     0
  9
$DIMSAH
 70
     0
  9
$DIMBLK1
  1

  9
$DIMBLK2
  1

  9
$DIMSTYLE
  2

  9
$DIMCLRD
 70
     0
  9
$DIMCLRE
 70
     0
  9
$DIMCLRT
 70
     0
  9
$DIMTFAC
 40
1.0
  9
$DIMGAP
 40
0.625
  9
$DIMJUST
 70
     0
  9
$DIMSD1
 70
     0
  9
$DIMSD2
 70
     0
  9
$DIMTOLJ
 70
     0
  9
$DIMTZIN
 70
     8
  9
$DIMALTZ
 70
     0
  9
$DIMALTTZ
 70
     0
  9
$DIMUPT
 70
     0
  9
$DIMDEC
 70
     2
  9
$DIMTDEC
 70
     2
  9
$DIMALTU
 70
     2
  9
$DIMALTTD
 70
     3
  9
$DIMTXSTY
  7
Standard
  9
$DIMAUNIT
 70
     0
  9
$DIMADEC
 70
     0
  9
$DIMALTRND
 40
0.0
  9
$DIMAZIN
 70
     0
  9
$DIMDSEP
 70
    44
  9
$DIMATFIT
 70
     0
  9
$DIMFRAC
 70
     0
  9
$DIMLDRBLK
  1

  9
$DIMLUNIT
 70
     2
  9
$DIMLWD
 70
    -2
  9
$DIMLWE
 70
    -2
  9
$DIMTMOVE
 70
     0
  9
$LUNITS
 70
     2
  9
$LUPREC
 70
     4
  9
$SKETCHINC
 40
1.0
  9
$FILLETRAD
 40
2.5
  9
$AUNITS
 70
     0
  9
$AUPREC
 70
     0
  9
$MENU
  1
.
  9
$ELEVATION
 40
0.0
  9
$PELEVATION
 40
0.0
  9
$THICKNESS
 40
0.0
  9
$LIMCHECK
 70
     0
  9
$CHAMFERA
 40
2.5
  9
$CHAMFERB
 40
2.5
  9
$CHAMFERC
 40
0.0
  9
$CHAMFERD
 40
0.0
  9
$SKPOLY
 70
     0
  9
$TDCREATE
 40
0.000000000
  9
$TDUCREATE
 40
0.000000000
  9
$TDUPDATE
 40
0.000000000
  9
$TDUUPDATE
 40
0.000000000
  9
$TDINDWG
 40
0.0000000000
  9
$TDUSRTIMER
 40
0.0000000000
  9
$USRTIMER
 70
     1
  9
$ANGBASE
 50
0.0
  9
$ANGDIR
 70
     0
  9
$PDMODE
 70
     0
  9
$PDSIZE
 40
0.0
  9
$PLINEWID
 40
0.0
  9
$SPLFRAME
 70
     0
  9
$SPLINETYPE
 70
     6
  9
$SPLINESEGS
 70
     8
  9
$HANDSEED
  5
473
  9
$SURFTAB1
 70
     6
  9
$SURFTAB2
 70
     6
  9
$SURFTYPE
 70
     6
  9
$SURFU
 70
     6
  9
$SURFV
 70
     6
  9
$UCSBASE
  2

  9
$UCSNAME
  2

  9
$UCSORG
 10
0.0
 20
0.0
 30
0.0
  9
$UCSXDIR
 10
1.0
 20
0.0
 30
0.0
  9
$UCSYDIR
 10
0.0
 20
1.0
 30
0.0
  9
$UCSORTHOREF
  2

  9
$UCSORTHOVIEW
 70
     1
  9
$UCSORGTOP
 10
0.0
 20
0.0
 30
0.0
  9
$UCSORGBOTTOM
 10
0.0
 20
0.0
 30
0.0
  9
$UCSORGLEFT
 10
0.0
 20
0.0
 30
0.0
  9
$UCSORGRIGHT
 10
0.0
 20
0.0
 30
0.0
  9
$UCSORGFRONT
 10
0.0
 20
0.0
 30
0.0
  9
$UCSORGBACK
 10
0.0
 20
0.0
 30
0.0
  9
$PUCSBASE
  2

  9
$PUCSNAME
  2

  9
$PUCSORG
 10
0.0
 20
0.0
 30
0.0
  9
$PUCSXDIR
 10
1.0
 20
0.0
 30
0.0
  9
$PUCSYDIR
 10
0.0
 20
1.0
 30
0.0
  9
$PUCSORTHOREF
  2

  9
$PUCSORTHOVIEW
 70
     0
  9
$PUCSORGTOP
 10
0.0
 20
0.0
 30
0.0
  9
$PUCSORGBOTTOM
 10
0.0
 20
0.0
 30
0.0
  9
$PUCSORGLEFT
 10
0.0
 20
0.0
 30
0.0
  9
$PUCSORGRIGHT
 10
0.0
 20
0.0
 30
0.0
  9
$PUCSORGFRONT
 10
0.0
 20
0.0
 30
0.0
  9
$PUCSORGBACK
 10
0.0
 20
0.0
 30
0.0
  9
$USERI1
 70
     0
  9
$USERI2
 70
     0
  9
$USERI3
 70
     0
  9
$USERI4
 70
     0
  9
$USERI5
 70
     0
  9
$USERR1
 40
0.0
  9
$USERR2
 40
0.0
  9
$USERR3
 40
0.0
  9
$USERR4
 40
0.0
  9
$USERR5
 40
0.0
  9
$WORLDVIEW
 70
     1
  9
$SHADEDGE
 70
     3
  9
$SHADEDIF
 70
    70
  9
$TILEMODE
 70
     1
  9
$MAXACTVP
 70
    48
  9
$PINSBASE
 10
0.0
 20
0.0
 30
0.0
  9
$PLIMCHECK
 70
     0
  9
$PEXTMIN
 10
0.0
 20
0.0
 30
0.0
  9
$PEXTMAX
 10
190.763763
 20
175.376511
 30
2.0
  9
$PLIMMIN
 10
0.0
 20
0.0
  9
$PLIMMAX
 10
420.0
 20
297.0
  9
$UNITMODE
 70
     0
  9
$VISRETAIN
 70
     0
  9
$PLINEGEN
 70
     0
  9
$PSLTSCALE
 70
     1
  9
$TREEDEPTH
 70
  3020
  9
$CMLSTYLE
  2
Standard
  9
$CMLJUST
 70
     0
  9
$CMLSCALE
 40
20.0
  9
$PROXYGRAPHICS
 70
     1
  9
$MEASUREMENT
 70
     1
  9
$CELWEIGHT
370
    -1
  9
$ENDCAPS
280
     0
  9
$JOINSTYLE
280
     0
  9
$LWDISPLAY
290
     0
  9
$INSUNITS
 70
     0
  9
$HYPERLINKBASE
  1

  9
$STYLESHEET
  1

  9
$XEDIT
290
     1
  9
$CEPSNTYPE
380
     0
  9
$PSTYLEMODE
290
     0
  9
$FINGERPRINTGUID
  2

  9
$VERSIONGUID
  2

  9
$EXTNAMES
290
     0
  9
$PSVPSCALE
 40
0.0
  0
ENDSEC
  0
SECTION
  2
CLASSES
  0
CLASS
  1
LWPOLYLINE
  2
AcDbPolyline
  3
AutoCAD 2000
 90
        0
280
     0
281
     1
  0
CLASS
  1
IMAGE
  2
AcDbRasterImage
  3
ISM
 90
      127
280
     0
281
     1
  0
CLASS
  1
OLE2FRAME
  2
AcDbOle2Frame
  3
AutoCAD 2000
 90
        0
280
     0
281
     1
  0
CLASS
  1
HATCH
  2
AcDbHatch
  3
AutoCAD 2000
 90
        0
280
     0
281
     1
  0
CLASS
  1
DICTIONARYVAR
  2
AcDbDictionaryVar
  3
AutoCAD 2000
 90
        0
280
     0
281
     0
  0
CLASS
  1
RASTERVARIABLES
  2
AcDbRasterVariables
  3
ISM
 90
        0
280
     0
281
     0
  0
CLASS
  1
IMAGEDEF
  2
AcDbRasterImageDef
  3
ISM
 90
        0
280
     0
281
     0
  0
CLASS
  1
IMAGEDEF_REACTOR
  2
AcDbRasterImageDefReactor
  3
ISM
 90
        1
280
     0
281
     0
  0
CLASS
  1
IDBUFFER
  2
AcDbIdBuffer
  3
AutoCAD 2000
 90
        0
280
     0
281
     0
  0
CLASS
  1
SPATIAL_FILTER
  2
AcDbSpatialFilter
  3
AutoCAD 2000
 90
        0
280
     0
281
     0
  0
CLASS
  1
XRECORD
  2
AcDbXrecord
  3
AutoCAD 2000
 90
        0
280
     0
281
     0
  0
CLASS
  1
SORTENTSTABLE
  2
AcDbSortentsTable
  3
AutoCAD 2000
 90
        0
280
     0
281
     0
  0
CLASS
  1
LAYER_INDEX
  2
AcDbLayerIndex
  3
AutoCAD 2000
 90
        0
280
     0
281
     0
  0
CLASS
  1
SPATIAL_INDEX
  2
AcDbSpatialIndex
  3
AutoCAD 2000
 90
        0
280
     0
281
     0
  0
CLASS
  1
OBJECT_PTR
  2
CAseDLPNTableRecord
  3
"ASE-LPNTableRecord"
 90
        1
280
     0
281
     0
  0
CLASS
  1
LAYOUT
  2
AcDbLayout
  3
AutoCAD 2000
 90
        0
280
     0
281
     0
  0
CLASS
  1
PLOTSETTINGS
  2
AcDbPlotSettings
  3
AutoCAD 2000
 90
        0
280
     0
281
     0
  0
CLASS
  1
ACDBDICTIONARYWDFLT
  2
AcDbDictionaryWithDefault
  3
AutoCAD 2000
 90
        0
280
     0
281
     0
  0
CLASS
  1
ACDBPLACEHOLDER
  2
AcDbPlaceHolder
  3
AutoCAD 2000
 90
        0
280
     0
281
     0
  0
CLASS
  1
VBA_PROJECT
  2
AcDbVbaProject
  3
acadvba
 90
        0
280
     0
281
     0
  0
CLASS
  1
WIPEOUT
  2
AcDbWipeout
  3
WipeOut|AutoCAD Express Tool|expresstools@autodesk.com
 90
      127
280
     0
281
     1
  0
CLASS
  1
WIPEOUTVARIABLES
  2
AcDbWipeoutVariables
  3
WipeOut|AutoCAD Express Tool|expresstools@autodesk.com
 90
        0
280
     0
281
     0
  0
CLASS
  1
RTEXT
  2
RText
  3
RText|AutoCAD Express Tool|expresstools@autodesk.com
 90
        0
280
     0
281
     1
  0
CLASS
  1
ARCALIGNEDTEXT
  2
AcDbArcAlignedText
  3
ATEXT|AutoCAD Express Tool|expresstools@autodesk.com
 90
        0
280
     0
281
     1
  0
ENDSEC
  0
SECTION
  2
TABLES
  0
TABLE
  2
VPORT
  5
7
100
AcDbSymbolTable
 70
     1
  0
VPORT
  5
15
100
AcDbSymbolTableRecord
100
AcDbViewportTableRecord
  2
*ACTIVE
 70
     0
 10
0.0
 20
0.0
 11
1.0
 21
1.0
 12
6.591288
 22
4.579184
 13
0.0
 23
0.0
 14
1.0
 24
1.0
 15
0.0
 25
0.0
 16
0.0
 26
0.0
 36
1.0
 17
0.0
 27
0.0
 37
0.0
 40
9.158369
 41
0.688564
 42
50.0
 43
0.0
 44
0.0
 50
0.0
 51
0.0
 71
     0
 72
   100
 73
     1
 74
     1
 75
     0
 76
     0
 77
     0
 78
     0
281
     0
 65
     0
110
0.0
120
0.0
130
0.0
111
1.0
121
0.0
131
0.0
112
0.0
122
1.0
132
0.0
345
0
346
0
 79
     0
146
0.0
  0
ENDTAB
  0
TABLE
  2
LTYPE
  5
4
100
AcDbSymbolTable
 70
     3
  0
LTYPE
  5
11
100
AcDbSymbolTableRecord
100
AcDbLinetypeTableRecord
  2
ByBlock
 70
    64
  3

 72
    65
 73
     0
 40
0.0
  0
LTYPE
  5
12
100
AcDbSymbolTableRecord
100
AcDbLinetypeTableRecord
  2
ByLayer
 70
    64
  3

 72
    65
 73
     0
 40
0.0
  0
LTYPE
  5
13
100
AcDbSymbolTableRecord
100
AcDbLinetypeTableRecord
  2
Continuous
 70
    64
  3
Solid line
 72
    65
 73
     0
 40
0.0
  0
ENDTAB
  0
TABLE
  2
LAYER
  5
2
100
AcDbSymbolTable
 70
     1
  0
LAYER
  5
14
100
AcDbSymbolTableRecord
100
AcDbLayerTableRecord
  2
0
 70
     0
 62
     7
  6
Continuous
290
     1
370
    -3
390
1D
  0
ENDTAB
  0
TABLE
  2
STYLE
  5
3
100
AcDbSymbolTable
 70
     1
  0
STYLE
  5
17
100
AcDbSymbolTableRecord
100
AcDbTextStyleTableRecord
  2
Standard
 70
     0
 40
0.0
 41
1.0
 50
0.0
 71
     0
 42
0.0
  3
txt
  4

  0
ENDTAB
  0
TABLE
  2
VIEW
  5
5
100
AcDbSymbolTable
 70
     0
  0
ENDTAB
  0
TABLE
  2
UCS
  5
6
100
AcDbSymbolTable
 70
     0
  0
ENDTAB
  0
TABLE
  2
APPID
  5
8
100
AcDbSymbolTable
 70
     1
  0
APPID
  5
16
100
AcDbSymbolTableRecord
100
AcDbRegAppTableRecord
  2
ACAD
 70
     0
  0
ENDTAB
  0
TABLE
  2
DIMSTYLE
  5
9
100
AcDbSymbolTable
 70
     1
100
AcDbDimStyleTable
 71
     0
  0
DIMSTYLE
105
18
100
AcDbSymbolTableRecord
100
AcDbDimStyleTableRecord
  2
Standard
 70
     0
  3

  4

 40
1.0
 41
0.18
 42
0.0625
 43
0.38
 44
0.18
 45
0.0
 46
0.0
 47
0.0
 48
0.0
 71
     0
 72
     0
 73
     1
 74
     1
 75
     0
 76
     0
 77
     0
 78
     0
 79
     0
140
0.18
141
0.09
142
0.0
143
25.4
144
1.0
145
0.0
146
1.0
147
0.09
148
0.0
170
     0
171
     2
172
     0
173
     0
174
     0
175
     0
176
     0
177
     0
178
     0
179
     0
271
     4
272
     4
273
     2
274
     2
275
     0
276
     0
277
     2
278
    46
279
     0
280
     0
281
     0
282
     0
283
     1
284
     0
285
     0
286
     0
288
     0
289
     3
340
17
341
0
342
0
343
0
344
0
371
    -2
372
    -2
  0
ENDTAB
  0
TABLE
  2
BLOCK_RECORD
  5
1
100
AcDbSymbolTable
 70
     0
  0
BLOCK_RECORD
  5
A
100
AcDbSymbolTableRecord
100
AcDbBlockTableRecord
  2
*MODEL_SPACE
340
20
  0
BLOCK_RECORD
  5
B
100
AcDbSymbolTableRecord
100
AcDbBlockTableRecord
  2
*PAPER_SPACE
340
21
  0
ENDTAB
  0
ENDSEC
  0
SECTION
  2
BLOCKS
  0
BLOCK
  5
D
100
AcDbEntity
  8
0
390
0
100
AcDbBlockBegin
  2
*MODEL_SPACE
 70
     0
 10
0.0
 20
0.0
 30
0.0
  3
*MODEL_SPACE
  1

  0
ENDBLK
  5
E
100
AcDbEntity
  8
0
390
0
100
AcDbBlockEnd
  0
BLOCK
  5
F
100
AcDbEntity
 67
     1
  8
0
390
0
100
AcDbBlockBegin
  2
*PAPER_SPACE
 70
     0
 10
0.0
 20
0.0
 30
0.0
  3
*PAPER_SPACE
  1

  0
ENDBLK
  5
10
100
AcDbEntity
 67
     1
  8
0
390
0
100
AcDbBlockEnd
  0
ENDSEC
  0
SECTION
  2
ENTITIES
  0
VIEWPORT
  5
472
100
AcDbEntity
 67
     1
  8
0
370
     0
390
0
 62
     0
 48
0.0
100
AcDbViewport
 10
0.0
 20
0.0
 30
0.0
 40
1000.0
 41
1000.0
 68
     1
 69
     1
 12
0.0
 22
0.0
 13
0.0
 23
0.0
 14
1.0
 24
1.0
 15
1.0
 25
1.0
 16
0.0
 26
0.0
 36
1.0
 17
0.0
 27
0.0
 37
0.0
 42
50.0
 43
0.0
 44
0.0
 45
1000.0
 50
0.0
 51
0.0
 72
   100
 90
        0
340
0
  1

281
     0
 71
     0
 74
     1
110
0.0
120
0.0
130
0.0
111
1.0
121
0.0
131
0.0
112
0.0
122
1.0
132
0.0
345
0
346
0
 79
     0
146
0.0
  0
LINE
  5
24
100
AcDbEntity
  8
0
370
    13
390
0
 62
     7
 48
0.395437
100
AcDbLine
 10
158.035187
 20
68.904778
 30
0.0
 11
158.14444
 21
53.087677
 31
0.0
210
0.0
220
0.0
230
1.0
  0
ELLIPSE
  5
25
100
AcDbEntity
  8
0
370
    13
390
0
 62
     7
100
AcDbEllipse
 10
157.853302
 20
53.161327
 30
0.0
 11
-0.4999847412109375
 21
-0.0034523010253906
 31
0.0
210
0.0
220
0.0
230
1.0
 40
0.185953
 41
2.1910556282159641
 42
3.1415533512990312
  0
ELLIPSE
  5
26
100
AcDbEntity
  8
0
370
    13
390
0
 62
     7
100
AcDbEllipse
 10
156.295685
 20
53.564308
 30
0.0
 11
-0.4376068115234375
 21
3.1843986511230469
 31
0.0
210
0.0
220
0.0
230
1.0
 40
0.56411
 41
3.1475390296934598
 42
4.4852345102932025
  0
LINE
  5
27
100
AcDbEntity
  8
0
370
    13
390
0
 62
     7
 48
0.199637
100
AcDbLine
 10
137.271484
 20
70.615234
 30
0.0
 11
129.349579
 21
69.609695
 31
0.0
210
0.0
220
0.0
230
1.0
  0
LINE
  5
28
100
AcDbEntity
  8
0
370
    35
390
0
 62
     7
 48
0.032161
100
AcDbLine
 10
129.349457
 20
69.609734
 30
0.0
 11
128.073257
 21
69.447746
 31
0.0
210
0.0
220
0.0
230
1.0
  0
ELLIPSE
  5
29
100
AcDbEntity
  8
0
370
    35
390
0
 62
     7
100
AcDbEllipse
 10
128.097244
 20
65.995125
 30
0.0
 11
-0.4784011840820313
 21
3.4812393188476562
 31
0.0
210
0.0
220
0.0
230
1.0
 40
0.56411
 41
6.0380537734430533
 42
6.056030836839672
  0
LINE
  5
2A
100
AcDbEntity
  8
0
370
    13
390
0
 62
     7
 48
0.448418
100
AcDbLine
 10
147.918472
 20
67.963631
 30
0.0
 11
130.154663
 21
65.479149
 31
0.0
210
0.0
220
0.0
230
1.0
  0
LINE
  5
2B
100
AcDbEntity
  8
0
370
    13
390
0
 62
     7
100
AcDbLine
 10
158.14444
 20
53.087677
 30
0.0
 11
130.267227
 21
49.188717
 31
0.0
210
0.0
220
0.0
230
1.0
  0
ELLIPSE
  5
2C
100
AcDbEntity
  8
0
370
    35
390
0
 62
     7
100
AcDbEllipse
 10
118.560455
 20
55.369656
 30
0.0
 11
-3.2120285034179687
 21
23.373527526855469
 31
0.0
210
0.0
220
0.0
230
1.0
 40
0.56411
 41
5.4217135086616972
 42
6.2832212923164859
  0
ELLIPSE
  5
2D
100
AcDbEntity
  8
0
370
    35
390
0
 62
     7
100
AcDbEllipse
 10
129.292313
 20
77.881401
 30
0.0
 11
-1.1442718505859375
 21
8.3267059326171875
 31
0.0
210
0.0
220
0.0
230
1.0
 40
0.56411
 41
2.2801208551427039
 42
2.9144381835568116
  0
LINE
  5
2E
100
AcDbEntity
  8
0
370
    35
390
0
 62
     7
 48
0.000337
100
AcDbLine
 10
129.349457
 20
69.609734
 30
0.0
 11
129.34935
 21
69.62323
 31
0.0
210
0.0
220
0.0
230
1.0
  0
LINE
  5
2F
100
AcDbEntity
  8
0
370
    35
390
0
 62
     7
 48
0.032203
100
AcDbLine
 10
129.34935
 20
69.62323
 30
0.0
 11
128.073257
 21
69.447746
 31
0.0
210
0.0
220
0.0
230
1.0
  0
ELLIPSE
  5
30
100
AcDbEntity
  8
0
370
    35
390
0
 62
     7
100
AcDbEllipse
 10
128.016205
 20
77.706039
 30
0.0
 11
-1.1442718505859375
 21
8.3267059326171875
 31
0.0
210
0.0
220
0.0
230
1.0
 40
0.56411
 41
2.2801208551336787
 42
2.91446622605977
  0
ELLIPSE
  5
31
100
AcDbEntity
  8
0
370
    35
390
0
 62
     7
100
AcDbEllipse
 10
117.284355
 20
55.194294
 30
0.0
 11
-3.2120285034179687
 21
23.373527526855469
 31
0.0
210
0.0
220
0.0
230
1.0
 40
0.56411
 41
0.0000359851459068
 42
0.0475152714592131
  0
ELLIPSE
  5
32
100
AcDbEntity
  8
0
370
    35
390
0
 62
     7
100
AcDbEllipse
 10
117.284355
 20
55.194294
 30
0.0
 11
-3.2120285034179687
 21
23.373527526855469
 31
0.0
210
0.0
220
0.0
230
1.0
 40
0.56411
 41
5.4217135086345252
 42
6.283221292325492
  0
LINE
  5
33
100
AcDbEntity
  8
0
370
    13
390
0
 62
     7
 48
0.032202
100
AcDbLine
 10
126.473373
 20
71.968239
 30
0.0
 11
125.197273
 21
71.792877
 31
0.0
210
0.0
220
0.0
230
1.0
  0
LINE
  5
34
100
AcDbEntity
  8
0
370
    35
390
0
 62
     7
 48
0.397487
100
AcDbLine
 10
158.243469
 20
69.063873
 30
0.0
 11
158.353302
 21
53.164776
 31
0.0
210
0.0
220
0.0
230
1.0
  0
POLYLINE
  5
35
100
AcDbEntity
  8
0
370
    35
390
0
 62
     7
100
AcDb2dPolyline
 66
     1
 10
0.0
 20
0.0
 30
0.0
 71
    43
  0
VERTEX
  5
36
100
AcDbEntity
  8
0
370
     0
390
0
100
AcDbVertex
100
AcDb2dVertex
 10
158.353302
 20
53.164776
 30
0.0
  0
VERTEX
  5
37
100
AcDbEntity
  8
0
370
     0
390
0
100
AcDbVertex
100
AcDb2dVertex
 10
158.352921
 20
53.059341
 30
0.0
  0
VERTEX
  5
38
100
AcDbEntity
  8
0
370
     0
390
0
100
AcDbVertex
100
AcDb2dVertex
 10
158.350327
 20
52.954414
 30
0.0
  0
VERTEX
  5
39
100
AcDbEntity
  8
0
370
     0
390
0
100
AcDbVertex
100
AcDb2dVertex
 10
158.34552
 20
52.850105
 30
0.0
  0
VERTEX
  5
3A
100
AcDbEntity
  8
0
370
     0
390
0
100
AcDbVertex
100
AcDb2dVertex
 10
158.338486
 20
52.746513
 30
0.0
  0
VERTEX
  5
3B
100
AcDbEntity
  8
0
370
     0
390
0
100
AcDbVertex
100
AcDb2dVertex
 10
158.329224
 20
52.643696
 30
0.0
  0
VERTEX
  5
3C
100
AcDbEntity
  8
0
370
     0
390
0
100
AcDbVertex
100
AcDb2dVertex
 10
158.317719
 20
52.541805
 30
0.0
  0
VERTEX
  5
3D
100
AcDbEntity
  8
0
370
     0
390
0
100
AcDbVertex
100
AcDb2dVertex
 10
158.303955
 20
52.440945
 30
0.0
  0
VERTEX
  5
3E
100
AcDbEntity
  8
0
370
     0
390
0
100
AcDbVertex
100
AcDb2dVertex
 10
158.287964
 20
52.341217
 30
0.0
  0
VERTEX
  5
3F
100
AcDbEntity
  8
0
370
     0
390
0
100
AcDbVertex
100
AcDb2dVertex
 10
158.269714
 20
52.242611
 30
0.0
  0
VERTEX
  5
40
100
AcDbEntity
  8
0
370
     0
390
0
100
AcDbVertex
100
AcDb2dVertex
 10
158.249207
 20
52.145336
 30
0.0
  0
VERTEX
  5
41
100
AcDbEntity
  8
0
370
     0
390
0
100
AcDbVertex
100
AcDb2dVertex
 10
158.22644
 20
52.049477
 30
0.0
  0
VERTEX
  5
42
100
AcDbEntity
  8
0
370
     0
390
0
100
AcDbVertex
100
AcDb2dVertex
 10
158.201401
 20
51.955128
 30
0.0
  0
VERTEX
  5
43
100
AcDbEntity
  8
0
370
     0
390
0
100
AcDbVertex
100
AcDb2dVertex
 10
158.174042
 20
51.862236
 30
0.0
  0
VERTEX
  5
44
100
AcDbEntity
  8
0
370
     0
390
0
100
AcDbVertex
100
AcDb2dVertex
 10
158.144409
 20
51.771042
 30
0.0
  0
VERTEX
  5
45
100
AcDbEntity
  8
0
370
     0
390
0
100
AcDbVertex
100
AcDb2dVertex
 10
158.112473
 20
51.681633
 30
0.0
  0
VERTEX
  5
46
100
AcDbEntity
  8
0
370
     0
390
0
100
AcDbVertex
100
AcDb2dVertex
 10
158.078232
 20
51.594097
 30
0.0
  0
VERTEX
  5
47
100
AcDbEntity
  8
0
370
     0
390
0
100
AcDbVertex
100
AcDb2dVertex
 10
158.044479
 20
51.514854
 30
0.0
  0
VERTEX
  5
48
100
AcDbEntity
  8
0
370
     0
390
0
100
AcDbVertex
100
AcDb2dVertex
 10
158.008728
 20
51.437363
 30
0.0
  0
VERTEX
  5
49
100
AcDbEntity
  8
0
370
     0
390
0
100
AcDbVertex
100
AcDb2dVertex
 10
157.970947
 20
51.361702
 30
0.0
  0
VERTEX
  5
4A
100
AcDbEntity
  8
0
370
     0
390
0
100
AcDbVertex
100
AcDb2dVertex
 10
157.917389
 20
51.263721
 30
0.0
  0
VERTEX
  5
4B
100
AcDbEntity
  8
0
370
     0
390
0
100
AcDbVertex
100
AcDb2dVertex
 10
157.871002
 20
51.186466
 30
0.0
  0
VERTEX
  5
4C
100
AcDbEntity
  8
0
370
     0
390
0
100
AcDbVertex
100
AcDb2dVertex
 10
157.822159
 20
51.111691
 30
0.0
  0
VERTEX
  5
4D
100
AcDbEntity
  8
0
370
     0
390
0
100
AcDbVertex
100
AcDb2dVertex
 10
157.770828
 20
51.039516
 30
0.0
  0
VERTEX
  5
4E
100
AcDbEntity
  8
0
370
     0
390
0
100
AcDbVertex
100
AcDb2dVertex
 10
157.71701
 20
50.970078
 30
0.0
  0
VERTEX
  5
4F
100
AcDbEntity
  8
0
370
     0
390
0
100
AcDbVertex
100
AcDb2dVertex
 10
157.675613
 20
50.920597
 30
0.0
  0
VERTEX
  5
50
100
AcDbEntity
  8
0
370
     0
390
0
100
AcDbVertex
100
AcDb2dVertex
 10
157.62796
 20
50.867477
 30
0.0
  0
VERTEX
  5
51
100
AcDbEntity
  8
0
370
     0
390
0
100
AcDbVertex
100
AcDb2dVertex
 10
157.578583
 20
50.816441
 30
0.0
  0
VERTEX
  5
52
100
AcDbEntity
  8
0
370
     0
390
0
100
AcDbVertex
100
AcDb2dVertex
 10
157.527496
 20
50.767586
 30
0.0
  0
VERTEX
  5
53
100
AcDbEntity
  8
0
370
     0
390
0
100
AcDbVertex
100
AcDb2dVertex
 10
157.474716
 20
50.721016
 30
0.0
  0
VERTEX
  5
54
100
AcDbEntity
  8
0
370
     0
390
0
100
AcDbVertex
100
AcDb2dVertex
 10
157.435059
 20
50.688473
 30
0.0
  0
VERTEX
  5
55
100
AcDbEntity
  8
0
370
     0
390
0
100
AcDbVertex
100
AcDb2dVertex
 10
157.376419
 20
50.643948
 30
0.0
  0
VERTEX
  5
56
100
AcDbEntity
  8
0
370
     0
390
0
100
AcDbVertex
100
AcDb2dVertex
 10
157.315964
 20
50.602276
 30
0.0
  0
VERTEX
  5
57
100
AcDbEntity
  8
0
370
     0
390
0
100
AcDbVertex
100
AcDb2dVertex
 10
157.253769
 20
50.563587
 30
0.0
  0
VERTEX
  5
58
100
AcDbEntity
  8
0
370
     0
390
0
100
AcDbVertex
100
AcDb2dVertex
 10
157.18988
 20
50.528008
 30
0.0
  0
VERTEX
  5
59
100
AcDbEntity
  8
0
370
     0
390
0
100
AcDbVertex
100
AcDb2dVertex
 10
157.137329
 20
50.501736
 30
0.0
  0
VERTEX
  5
5A
100
AcDbEntity
  8
0
370
     0
390
0
100
AcDbVertex
100
AcDb2dVertex
 10
157.083801
 20
50.477631
 30
0.0
  0
VERTEX
  5
5B
100
AcDbEntity
  8
0
370
     0
390
0
100
AcDbVertex
100
AcDb2dVertex
 10
157.029358
 20
50.455761
 30
0.0
  0
VERTEX
  5
5C
100
AcDbEntity
  8
0
370
     0
390
0
100
AcDbVertex
100
AcDb2dVertex
 10
156.974091
 20
50.436188
 30
0.0
  0
VERTEX
  5
5D
100
AcDbEntity
  8
0
370
     0
390
0
100
AcDbVertex
100
AcDb2dVertex
 10
156.921509
 20
50.419945
 30
0.0
  0
VERTEX
  5
5E
100
AcDbEntity
  8
0
370
     0
390
0
100
AcDbVertex
100
AcDb2dVertex
 10
156.868439
 20
50.405834
 30
0.0
  0
VERTEX
  5
5F
100
AcDbEntity
  8
0
370
     0
390
0
100
AcDbVertex
100
AcDb2dVertex
 10
156.806458
 20
50.392181
 30
0.0
  0
VERTEX
  5
60
100
AcDbEntity
  8
0
370
     0
390
0
100
AcDbVertex
100
AcDb2dVertex
 10
156.743973
 20
50.381435
 30
0.0
  0
SEQEND
  5
61
100
AcDbEntity
  8
0
370
     0
390
0
  0
LINE
  5
62
100
AcDbEntity
  8
0
370
    35
390
0
 62
     7
100
AcDbLine
 10
156.743973
 20
50.381435
 30
0.0
 11
128.912048
 21
46.256569
 31
0.0
210
0.0
220
0.0
230
1.0
  0
LINE
  5
63
100
AcDbEntity
  8
0
370
    35
390
0
 62
     7
 48
0.032202
100
AcDbLine
 10
115.347954
 20
78.743118
 30
0.0
 11
114.071854
 21
78.567757
 31
0.0
210
0.0
220
0.0
230
1.0
  0
POLYLINE
  5
64
100
AcDbEntity
  8
0
370
    35
390
0
 62
     7
100
AcDb2dPolyline
 66
     1
 10
0.0
 20
0.0
 30
0.0
 71
    52
  0
VERTEX
  5
65
100
AcDbEntity
  8
0
370
     0
390
0
100
AcDbVertex
100
AcDb2dVertex
 10
113.946373
 20
78.534164
 30
0.0
  0
VERTEX
  5
66
100
AcDbEntity
  8
0
370
     0
390
0
100
AcDbVertex
100
AcDb2dVertex
 10
114.140732
 20
78.562622
 30
0.0
  0
VERTEX
  5
67
100
AcDbEntity
  8
0
370
     0
390
0
100
AcDbVertex
100
AcDb2dVertex
 10
114.33577
 20
78.585983
 30
0.0
  0
VERTEX
  5
68
100
AcDbEntity
  8
0
370
     0
390
0
100
AcDbVertex
100
AcDb2dVertex
 10
114.531464
 20
78.604248
 30
0.0
  0
VERTEX
  5
69
100
AcDbEntity
  8
0
370
     0
390
0
100
AcDbVertex
100
AcDb2dVertex
 10
114.727768
 20
78.617401
 30
0.0
  0
VERTEX
  5
6A
100
AcDbEntity
  8
0
370
     0
390
0
100
AcDbVertex
100
AcDb2dVertex
 10
114.97081
 20
78.62661
 30
0.0
  0
VERTEX
  5
6B
100
AcDbEntity
  8
0
370
     0
390
0
100
AcDbVertex
100
AcDb2dVertex
 10
115.214638
 20
78.628036
 30
0.0
  0
VERTEX
  5
6C
100
AcDbEntity
  8
0
370
     0
390
0
100
AcDbVertex
100
AcDb2dVertex
 10
115.45916
 20
78.621689
 30
0.0
  0
VERTEX
  5
6D
100
AcDbEntity
  8
0
370
     0
390
0
100
AcDbVertex
100
AcDb2dVertex
 10
115.704308
 20
78.607567
 30
0.0
  0
VERTEX
  5
6E
100
AcDbEntity
  8
0
370
     0
390
0
100
AcDbVertex
100
AcDb2dVertex
 10
115.949989
 20
78.58567
 30
0.0
  0
VERTEX
  5
6F
100
AcDbEntity
  8
0
370
     0
390
0
100
AcDbVertex
100
AcDb2dVertex
 10
116.196129
 20
78.556007
 30
0.0
  0
VERTEX
  5
70
100
AcDbEntity
  8
0
370
     0
390
0
100
AcDbVertex
100
AcDb2dVertex
 10
116.44265
 20
78.518585
 30
0.0
  0
VERTEX
  5
71
100
AcDbEntity
  8
0
370
     0
390
0
100
AcDbVertex
100
AcDb2dVertex
 10
116.689461
 20
78.473434
 30
0.0
  0
VERTEX
  5
72
100
AcDbEntity
  8
0
370
     0
390
0
100
AcDbVertex
100
AcDb2dVertex
 10
116.936485
 20
78.420547
 30
0.0
  0
VERTEX
  5
73
100
AcDbEntity
  8
0
370
     0
390
0
100
AcDbVertex
100
AcDb2dVertex
 10
117.18364
 20
78.359947
 30
0.0
  0
VERTEX
  5
74
100
AcDbEntity
  8
0
370
     0
390
0
100
AcDbVertex
100
AcDb2dVertex
 10
117.43084
 20
78.291664
 30
0.0
  0
VERTEX
  5
75
100
AcDbEntity
  8
0
370
     0
390
0
100
AcDbVertex
100
AcDb2dVertex
 10
117.678001
 20
78.215714
 30
0.0
  0
VERTEX
  5
76
100
AcDbEntity
  8
0
370
     0
390
0
100
AcDbVertex
100
AcDb2dVertex
 10
117.925049
 20
78.132118
 30
0.0
  0
VERTEX
  5
77
100
AcDbEntity
  8
0
370
     0
390
0
100
AcDbVertex
100
AcDb2dVertex
 10
118.125633
 20
78.058594
 30
0.0
  0
VERTEX
  5
78
100
AcDbEntity
  8
0
370
     0
390
0
100
AcDbVertex
100
AcDb2dVertex
 10
118.326035
 20
77.980057
 30
0.0
  0
VERTEX
  5
79
100
AcDbEntity
  8
0
370
     0
390
0
100
AcDbVertex
100
AcDb2dVertex
 10
118.526222
 20
77.89653
 30
0.0
  0
VERTEX
  5
7A
100
AcDbEntity
  8
0
370
     0
390
0
100
AcDbVertex
100
AcDb2dVertex
 10
118.726135
 20
77.808029
 30
0.0
  0
VERTEX
  5
7B
100
AcDbEntity
  8
0
370
     0
390
0
100
AcDbVertex
100
AcDb2dVertex
 10
118.903587
 20
77.725204
 30
0.0
  0
VERTEX
  5
7C
100
AcDbEntity
  8
0
370
     0
390
0
100
AcDbVertex
100
AcDb2dVertex
 10
119.080757
 20
77.638474
 30
0.0
  0
VERTEX
  5
7D
100
AcDbEntity
  8
0
370
     0
390
0
100
AcDbVertex
100
AcDb2dVertex
 10
119.257622
 20
77.547867
 30
0.0
  0
VERTEX
  5
7E
100
AcDbEntity
  8
0
370
     0
390
0
100
AcDbVertex
100
AcDb2dVertex
 10
119.390053
 20
77.477364
 30
0.0
  0
VERTEX
  5
7F
100
AcDbEntity
  8
0
370
     0
390
0
100
AcDbVertex
100
AcDb2dVertex
 10
119.522285
 20
77.404694
 30
0.0
  0
VERTEX
  5
80
100
AcDbEntity
  8
0
370
     0
390
0
100
AcDbVertex
100
AcDb2dVertex
 10
119.786079
 20
77.252869
 30
0.0
  0
VERTEX
  5
81
100
AcDbEntity
  8
0
370
     0
390
0
100
AcDbVertex
100
AcDb2dVertex
 10
120.048912
 20
77.092461
 30
0.0
  0
VERTEX
  5
82
100
AcDbEntity
  8
0
370
     0
390
0
100
AcDbVertex
100
AcDb2dVertex
 10
120.310684
 20
76.923523
 30
0.0
  0
VERTEX
  5
83
100
AcDbEntity
  8
0
370
     0
390
0
100
AcDbVertex
100
AcDb2dVertex
 10
120.571289
 20
76.746117
 30
0.0
  0
VERTEX
  5
84
100
AcDbEntity
  8
0
370
     0
390
0
100
AcDbVertex
100
AcDb2dVertex
 10
120.83062
 20
76.560318
 30
0.0
  0
VERTEX
  5
85
100
AcDbEntity
  8
0
370
     0
390
0
100
AcDbVertex
100
AcDb2dVertex
 10
121.061981
 20
76.386658
 30
0.0
  0
VERTEX
  5
86
100
AcDbEntity
  8
0
370
     0
390
0
100
AcDbVertex
100
AcDb2dVertex
 10
121.292175
 20
76.206352
 30
0.0
  0
VERTEX
  5
87
100
AcDbEntity
  8
0
370
     0
390
0
100
AcDbVertex
100
AcDb2dVertex
 10
121.521118
 20
76.01947
 30
0.0
  0
VERTEX
  5
88
100
AcDbEntity
  8
0
370
     0
390
0
100
AcDbVertex
100
AcDb2dVertex
 10
121.748756
 20
75.826065
 30
0.0
  0
VERTEX
  5
89
100
AcDbEntity
  8
0
370
     0
390
0
100
AcDbVertex
100
AcDb2dVertex
 10
121.975006
 20
75.626205
 30
0.0
  0
VERTEX
  5
8A
100
AcDbEntity
  8
0
370
     0
390
0
100
AcDbVertex
100
AcDb2dVertex
 10
122.199799
 20
75.419937
 30
0.0
  0
VERTEX
  5
8B
100
AcDbEntity
  8
0
370
     0
390
0
100
AcDbVertex
100
AcDb2dVertex
 10
122.333641
 20
75.293427
 30
0.0
  0
VERTEX
  5
8C
100
AcDbEntity
  8
0
370
     0
390
0
100
AcDbVertex
100
AcDb2dVertex
 10
122.466919
 20
75.164658
 30
0.0
  0
VERTEX
  5
8D
100
AcDbEntity
  8
0
370
     0
390
0
100
AcDbVertex
100
AcDb2dVertex
 10
122.600235
 20
75.033043
 30
0.0
  0
VERTEX
  5
8E
100
AcDbEntity
  8
0
370
     0
390
0
100
AcDbVertex
100
AcDb2dVertex
 10
122.732941
 20
74.899185
 30
0.0
  0
VERTEX
  5
8F
100
AcDbEntity
  8
0
370
     0
390
0
100
AcDbVertex
100
AcDb2dVertex
 10
122.995918
 20
74.62542
 30
0.0
  0
VERTEX
  5
90
100
AcDbEntity
  8
0
370
     0
390
0
100
AcDbVertex
100
AcDb2dVertex
 10
123.256332
 20
74.342888
 30
0.0
  0
VERTEX
  5
91
100
AcDbEntity
  8
0
370
     0
390
0
100
AcDbVertex
100
AcDb2dVertex
 10
123.514076
 20
74.051727
 30
0.0
  0
VERTEX
  5
92
100
AcDbEntity
  8
0
370
     0
390
0
100
AcDbVertex
100
AcDb2dVertex
 10
123.769028
 20
73.75206
 30
0.0
  0
VERTEX
  5
93
100
AcDbEntity
  8
0
370
     0
390
0
100
AcDbVertex
100
AcDb2dVertex
 10
124.021072
 20
73.444031
 30
0.0
  0
VERTEX
  5
94
100
AcDbEntity
  8
0
370
     0
390
0
100
AcDbVertex
100
AcDb2dVertex
 10
124.270088
 20
73.127769
 30
0.0
  0
VERTEX
  5
95
100
AcDbEntity
  8
0
370
     0
390
0
100
AcDbVertex
100
AcDb2dVertex
 10
124.515976
 20
72.803421
 30
0.0
  0
VERTEX
  5
96
100
AcDbEntity
  8
0
370
     0
390
0
100
AcDbVertex
100
AcDb2dVertex
 10
124.758621
 20
72.471138
 30
0.0
  0
VERTEX
  5
97
100
AcDbEntity
  8
0
370
     0
390
0
100
AcDbVertex
100
AcDb2dVertex
 10
124.99791
 20
72.131065
 30
0.0
  0
VERTEX
  5
98
100
AcDbEntity
  8
0
370
     0
390
0
100
AcDbVertex
100
AcDb2dVertex
 10
125.233734
 20
71.783356
 30
0.0
  0
SEQEND
  5
99
100
AcDbEntity
  8
0
370
     0
390
0
  0
POLYLINE
  5
9A
100
AcDbEntity
  8
0
370
    35
390
0
 62
     7
100
AcDb2dPolyline
 66
     1
 10
0.0
 20
0.0
 30
0.0
 71
    24
  0
VERTEX
  5
9B
100
AcDbEntity
  8
0
370
     0
390
0
100
AcDbVertex
100
AcDb2dVertex
 10
128.109726
 20
69.438347
 30
0.0
  0
VERTEX
  5
9C
100
AcDbEntity
  8
0
370
     0
390
0
100
AcDbVertex
100
AcDb2dVertex
 10
128.033142
 20
69.459122
 30
0.0
  0
VERTEX
  5
9D
100
AcDbEntity
  8
0
370
     0
390
0
100
AcDbVertex
100
AcDb2dVertex
 10
127.956566
 20
69.481964
 30
0.0
  0
VERTEX
  5
9E
100
AcDbEntity
  8
0
370
     0
390
0
100
AcDbVertex
100
AcDb2dVertex
 10
127.803513
 20
69.533836
 30
0.0
  0
VERTEX
  5
9F
100
AcDbEntity
  8
0
370
     0
390
0
100
AcDbVertex
100
AcDb2dVertex
 10
127.650696
 20
69.593903
 30
0.0
  0
VERTEX
  5
A0
100
AcDbEntity
  8
0
370
     0
390
0
100
AcDbVertex
100
AcDb2dVertex
 10
127.498283
 20
69.662094
 30
0.0
  0
VERTEX
  5
A1
100
AcDbEntity
  8
0
370
     0
390
0
100
AcDbVertex
100
AcDb2dVertex
 10
127.34642
 20
69.738358
 30
0.0
  0
VERTEX
  5
A2
100
AcDbEntity
  8
0
370
     0
390
0
100
AcDbVertex
100
AcDb2dVertex
 10
127.195259
 20
69.822617
 30
0.0
  0
VERTEX
  5
A3
100
AcDbEntity
  8
0
370
     0
390
0
100
AcDbVertex
100
AcDb2dVertex
 10
127.04496
 20
69.91478
 30
0.0
  0
VERTEX
  5
A4
100
AcDbEntity
  8
0
370
     0
390
0
100
AcDbVertex
100
AcDb2dVertex
 10
126.895668
 20
70.014748
 30
0.0
  0
VERTEX
  5
A5
100
AcDbEntity
  8
0
370
     0
390
0
100
AcDbVertex
100
AcDb2dVertex
 10
126.760193
 20
70.1129
 30
0.0
  0
VERTEX
  5
A6
100
AcDbEntity
  8
0
370
     0
390
0
100
AcDbVertex
100
AcDb2dVertex
 10
126.625793
 20
70.217415
 30
0.0
  0
VERTEX
  5
A7
100
AcDbEntity
  8
0
370
     0
390
0
100
AcDbVertex
100
AcDb2dVertex
 10
126.492599
 20
70.328201
 30
0.0
  0
VERTEX
  5
A8
100
AcDbEntity
  8
0
370
     0
390
0
100
AcDbVertex
100
AcDb2dVertex
 10
126.36071
 20
70.445175
 30
0.0
  0
VERTEX
  5
A9
100
AcDbEntity
  8
0
370
     0
390
0
100
AcDbVertex
100
AcDb2dVertex
 10
126.230255
 20
70.568222
 30
0.0
  0
VERTEX
  5
AA
100
AcDbEntity
  8
0
370
     0
390
0
100
AcDbVertex
100
AcDb2dVertex
 10
126.122696
 20
70.675331
 30
0.0
  0
VERTEX
  5
AB
100
AcDbEntity
  8
0
370
     0
390
0
100
AcDbVertex
100
AcDb2dVertex
 10
126.016281
 20
70.78653
 30
0.0
  0
VERTEX
  5
AC
100
AcDbEntity
  8
0
370
     0
390
0
100
AcDbVertex
100
AcDb2dVertex
 10
125.911041
 20
70.901756
 30
0.0
  0
VERTEX
  5
AD
100
AcDbEntity
  8
0
370
     0
390
0
100
AcDbVertex
100
AcDb2dVertex
 10
125.832932
 20
70.990776
 30
0.0
  0
VERTEX
  5
AE
100
AcDbEntity
  8
0
370
     0
390
0
100
AcDbVertex
100
AcDb2dVertex
 10
125.755554
 20
71.081993
 30
0.0
  0
VERTEX
  5
AF
100
AcDbEntity
  8
0
370
     0
390
0
100
AcDbVertex
100
AcDb2dVertex
 10
125.621315
 20
71.247643
 30
0.0
  0
VERTEX
  5
B0
100
AcDbEntity
  8
0
370
     0
390
0
100
AcDbVertex
100
AcDb2dVertex
 10
125.489449
 20
71.419952
 30
0.0
  0
VERTEX
  5
B1
100
AcDbEntity
  8
0
370
     0
390
0
100
AcDbVertex
100
AcDb2dVertex
 10
125.360184
 20
71.598633
 30
0.0
  0
VERTEX
  5
B2
100
AcDbEntity
  8
0
370
     0
390
0
100
AcDbVertex
100
AcDb2dVertex
 10
125.233734
 20
71.783356
 30
0.0
  0
SEQEND
  5
B3
100
AcDbEntity
  8
0
370
     0
390
0
  0
ELLIPSE
  5
B4
100
AcDbEntity
  8
0
370
    35
390
0
 62
     7
100
AcDbEllipse
 10
128.133698
 20
65.985725
 30
0.0
 11
-0.4784011840820313
 21
3.4812393188476562
 31
0.0
210
0.0
220
0.0
230
1.0
 40
0.56411
 41
4.4852345096047257
 42
6.0560979132858428
  0
LINE
  5
B5
100
AcDbEntity
  8
0
370
    35
390
0
 62
     7
 48
0.407271
100
AcDbLine
 10
130.1548
 20
65.464668
 30
0.0
 11
130.267319
 21
49.174232
 31
0.0
210
0.0
220
0.0
230
1.0
  0
ELLIPSE
  5
B6
100
AcDbEntity
  8
0
370
    35
390
0
 62
     7
100
AcDbEllipse
 10
128.246231
 20
49.69529
 30
0.0
 11
-0.4784011840820313
 21
3.4812393188476562
 31
0.0
210
0.0
220
0.0
230
1.0
 40
0.56411
 41
3.1296350968116045
 42
4.4852345100664985
  0
LINE
  5
B7
100
AcDbEntity
  8
0
370
    13
390
0
 62
     7
 48
0.060598
100
AcDbLine
 10
105.002434
 20
74.857239
 30
0.0
 11
102.608368
 21
74.477997
 31
0.0
210
0.0
220
0.0
230
1.0
  0
ARC
  5
B8
100
AcDbEntity
  8
0
370
    13
390
0
 62
     7
100
AcDbCircle
 10
103.325775
 20
77.179855
 30
0.0
 40
2.795106
210
0.0
220
0.0
230
1.0
100
AcDbArc
 50
255.132684
 51
278.730994
  0
POLYLINE
  5
B9
100
AcDbEntity
  8
0
370
    13
390
0
 62
     7
100
AcDb2dPolyline
 66
     1
 10
0.0
 20
0.0
 30
0.0
 71
    64
  0
VERTEX
  5
BA
100
AcDbEntity
  8
0
370
     0
390
0
100
AcDbVertex
100
AcDb2dVertex
 10
122.08873
 20
71.285156
 30
0.0
  0
VERTEX
  5
BB
100
AcDbEntity
  8
0
370
     0
390
0
100
AcDbVertex
100
AcDb2dVertex
 10
122.009552
 20
71.532288
 30
0.0
  0
VERTEX
  5
BC
100
AcDbEntity
  8
0
370
     0
390
0
100
AcDbVertex
100
AcDb2dVertex
 10
121.927544
 20
71.776573
 30
0.0
  0
VERTEX
  5
BD
100
AcDbEntity
  8
0
370
     0
390
0
100
AcDbVertex
100
AcDb2dVertex
 10
121.842751
 20
72.017906
 30
0.0
  0
VERTEX
  5
BE
100
AcDbEntity
  8
0
370
     0
390
0
100
AcDbVertex
100
AcDb2dVertex
 10
121.777557
 20
72.196419
 30
0.0
  0
VERTEX
  5
BF
100
AcDbEntity
  8
0
370
     0
390
0
100
AcDbVertex
100
AcDb2dVertex
 10
121.710869
 20
72.373184
 30
0.0
  0
VERTEX
  5
C0
100
AcDbEntity
  8
0
370
     0
390
0
100
AcDbVertex
100
AcDb2dVertex
 10
121.642342
 20
72.549171
 30
0.0
  0
VERTEX
  5
C1
100
AcDbEntity
  8
0
370
     0
390
0
100
AcDbVertex
100
AcDb2dVertex
 10
121.572372
 20
72.723328
 30
0.0
  0
VERTEX
  5
C2
100
AcDbEntity
  8
0
370
     0
390
0
100
AcDbVertex
100
AcDb2dVertex
 10
121.430252
 20
73.061447
 30
0.0
  0
VERTEX
  5
C3
100
AcDbEntity
  8
0
370
     0
390
0
100
AcDbVertex
100
AcDb2dVertex
 10
121.282181
 20
73.393799
 30
0.0
  0
VERTEX
  5
C4
100
AcDbEntity
  8
0
370
     0
390
0
100
AcDbVertex
100
AcDb2dVertex
 10
121.127563
 20
73.721817
 30
0.0
  0
VERTEX
  5
C5
100
AcDbEntity
  8
0
370
     0
390
0
100
AcDbVertex
100
AcDb2dVertex
 10
120.967117
 20
74.044106
 30
0.0
  0
VERTEX
  5
C6
100
AcDbEntity
  8
0
370
     0
390
0
100
AcDbVertex
100
AcDb2dVertex
 10
120.803535
 20
74.355835
 30
0.0
  0
VERTEX
  5
C7
100
AcDbEntity
  8
0
370
     0
390
0
100
AcDbVertex
100
AcDb2dVertex
 10
120.637421
 20
74.656708
 30
0.0
  0
VERTEX
  5
C8
100
AcDbEntity
  8
0
370
     0
390
0
100
AcDbVertex
100
AcDb2dVertex
 10
120.469894
 20
74.945618
 30
0.0
  0
VERTEX
  5
C9
100
AcDbEntity
  8
0
370
     0
390
0
100
AcDbVertex
100
AcDb2dVertex
 10
120.300537
 20
75.224144
 30
0.0
  0
VERTEX
  5
CA
100
AcDbEntity
  8
0
370
     0
390
0
100
AcDbVertex
100
AcDb2dVertex
 10
120.131157
 20
75.49012
 30
0.0
  0
VERTEX
  5
CB
100
AcDbEntity
  8
0
370
     0
390
0
100
AcDbVertex
100
AcDb2dVertex
 10
119.958084
 20
75.749718
 30
0.0
  0
VERTEX
  5
CC
100
AcDbEntity
  8
0
370
     0
390
0
100
AcDbVertex
100
AcDb2dVertex
 10
119.781631
 20
76.002403
 30
0.0
  0
VERTEX
  5
CD
100
AcDbEntity
  8
0
370
     0
390
0
100
AcDbVertex
100
AcDb2dVertex
 10
119.602631
 20
76.24678
 30
0.0
  0
VERTEX
  5
CE
100
AcDbEntity
  8
0
370
     0
390
0
100
AcDbVertex
100
AcDb2dVertex
 10
119.423882
 20
76.47908
 30
0.0
  0
VERTEX
  5
CF
100
AcDbEntity
  8
0
370
     0
390
0
100
AcDbVertex
100
AcDb2dVertex
 10
119.244705
 20
76.700256
 30
0.0
  0
VERTEX
  5
D0
100
AcDbEntity
  8
0
370
     0
390
0
100
AcDbVertex
100
AcDb2dVertex
 10
119.152611
 20
76.809341
 30
0.0
  0
VERTEX
  5
D1
100
AcDbEntity
  8
0
370
     0
390
0
100
AcDbVertex
100
AcDb2dVertex
 10
119.060577
 20
76.915176
 30
0.0
  0
VERTEX
  5
D2
100
AcDbEntity
  8
0
370
     0
390
0
100
AcDbVertex
100
AcDb2dVertex
 10
118.973648
 20
77.012161
 30
0.0
  0
VERTEX
  5
D3
100
AcDbEntity
  8
0
370
     0
390
0
100
AcDbVertex
100
AcDb2dVertex
 10
118.886559
 20
77.106361
 30
0.0
  0
VERTEX
  5
D4
100
AcDbEntity
  8
0
370
     0
390
0
100
AcDbVertex
100
AcDb2dVertex
 10
118.744148
 20
77.253761
 30
0.0
  0
VERTEX
  5
D5
100
AcDbEntity
  8
0
370
     0
390
0
100
AcDbVertex
100
AcDb2dVertex
 10
118.599831
 20
77.394402
 30
0.0
  0
VERTEX
  5
D6
100
AcDbEntity
  8
0
370
     0
390
0
100
AcDbVertex
100
AcDb2dVertex
 10
118.452499
 20
77.528419
 30
0.0
  0
VERTEX
  5
D7
100
AcDbEntity
  8
0
370
     0
390
0
100
AcDbVertex
100
AcDb2dVertex
 10
118.376457
 20
77.593658
 30
0.0
  0
VERTEX
  5
D8
100
AcDbEntity
  8
0
370
     0
390
0
100
AcDbVertex
100
AcDb2dVertex
 10
118.299141
 20
77.657166
 30
0.0
  0
VERTEX
  5
D9
100
AcDbEntity
  8
0
370
     0
390
0
100
AcDbVertex
100
AcDb2dVertex
 10
118.222183
 20
77.717514
 30
0.0
  0
VERTEX
  5
DA
100
AcDbEntity
  8
0
370
     0
390
0
100
AcDbVertex
100
AcDb2dVertex
 10
118.143677
 20
77.776093
 30
0.0
  0
VERTEX
  5
DB
100
AcDbEntity
  8
0
370
     0
390
0
100
AcDbVertex
100
AcDb2dVertex
 10
118.072571
 20
77.826553
 30
0.0
  0
VERTEX
  5
DC
100
AcDbEntity
  8
0
370
     0
390
0
100
AcDbVertex
100
AcDb2dVertex
 10
117.999977
 20
77.875511
 30
0.0
  0
VERTEX
  5
DD
100
AcDbEntity
  8
0
370
     0
390
0
100
AcDbVertex
100
AcDb2dVertex
 10
117.900566
 20
77.938393
 30
0.0
  0
VERTEX
  5
DE
100
AcDbEntity
  8
0
370
     0
390
0
100
AcDbVertex
100
AcDb2dVertex
 10
117.797791
 20
77.998451
 30
0.0
  0
VERTEX
  5
DF
100
AcDbEntity
  8
0
370
     0
390
0
100
AcDbVertex
100
AcDb2dVertex
 10
117.691223
 20
78.05558
 30
0.0
  0
VERTEX
  5
E0
100
AcDbEntity
  8
0
370
     0
390
0
100
AcDbVertex
100
AcDb2dVertex
 10
117.557777
 20
78.120117
 30
0.0
  0
VERTEX
  5
E1
100
AcDbEntity
  8
0
370
     0
390
0
100
AcDbVertex
100
AcDb2dVertex
 10
117.417664
 20
78.180099
 30
0.0
  0
VERTEX
  5
E2
100
AcDbEntity
  8
0
370
     0
390
0
100
AcDbVertex
100
AcDb2dVertex
 10
117.270409
 20
78.235344
 30
0.0
  0
VERTEX
  5
E3
100
AcDbEntity
  8
0
370
     0
390
0
100
AcDbVertex
100
AcDb2dVertex
 10
117.115707
 20
78.285736
 30
0.0
  0
VERTEX
  5
E4
100
AcDbEntity
  8
0
370
     0
390
0
100
AcDbVertex
100
AcDb2dVertex
 10
116.953491
 20
78.331169
 30
0.0
  0
VERTEX
  5
E5
100
AcDbEntity
  8
0
370
     0
390
0
100
AcDbVertex
100
AcDb2dVertex
 10
116.807007
 20
78.366516
 30
0.0
  0
VERTEX
  5
E6
100
AcDbEntity
  8
0
370
     0
390
0
100
AcDbVertex
100
AcDb2dVertex
 10
116.655304
 20
78.398148
 30
0.0
  0
VERTEX
  5
E7
100
AcDbEntity
  8
0
370
     0
390
0
100
AcDbVertex
100
AcDb2dVertex
 10
116.498856
 20
78.42614
 30
0.0
  0
VERTEX
  5
E8
100
AcDbEntity
  8
0
370
     0
390
0
100
AcDbVertex
100
AcDb2dVertex
 10
116.381035
 20
78.44445
 30
0.0
  0
VERTEX
  5
E9
100
AcDbEntity
  8
0
370
     0
390
0
100
AcDbVertex
100
AcDb2dVertex
 10
116.261169
 20
78.460876
 30
0.0
  0
VERTEX
  5
EA
100
AcDbEntity
  8
0
370
     0
390
0
100
AcDbVertex
100
AcDb2dVertex
 10
116.13472
 20
78.475998
 30
0.0
  0
VERTEX
  5
EB
100
AcDbEntity
  8
0
370
     0
390
0
100
AcDbVertex
100
AcDb2dVertex
 10
116.006378
 20
78.489212
 30
0.0
  0
VERTEX
  5
EC
100
AcDbEntity
  8
0
370
     0
390
0
100
AcDbVertex
100
AcDb2dVertex
 10
115.871765
 20
78.500946
 30
0.0
  0
VERTEX
  5
ED
100
AcDbEntity
  8
0
370
     0
390
0
100
AcDbVertex
100
AcDb2dVertex
 10
115.735268
 20
78.510773
 30
0.0
  0
VERTEX
  5
EE
100
AcDbEntity
  8
0
370
     0
390
0
100
AcDbVertex
100
AcDb2dVertex
 10
115.589554
 20
78.519135
 30
0.0
  0
VERTEX
  5
EF
100
AcDbEntity
  8
0
370
     0
390
0
100
AcDbVertex
100
AcDb2dVertex
 10
115.442192
 20
78.525505
 30
0.0
  0
VERTEX
  5
F0
100
AcDbEntity
  8
0
370
     0
390
0
100
AcDbVertex
100
AcDb2dVertex
 10
115.15136
 20
78.532333
 30
0.0
  0
VERTEX
  5
F1
100
AcDbEntity
  8
0
370
     0
390
0
100
AcDbVertex
100
AcDb2dVertex
 10
114.857529
 20
78.532074
 30
0.0
  0
VERTEX
  5
F2
100
AcDbEntity
  8
0
370
     0
390
0
100
AcDbVertex
100
AcDb2dVertex
 10
114.607483
 20
78.52655
 30
0.0
  0
VERTEX
  5
F3
100
AcDbEntity
  8
0
370
     0
390
0
100
AcDbVertex
100
AcDb2dVertex
 10
114.357407
 20
78.516342
 30
0.0
  0
VERTEX
  5
F4
100
AcDbEntity
  8
0
370
     0
390
0
100
AcDbVertex
100
AcDb2dVertex
 10
114.107574
 20
78.501625
 30
0.0
  0
VERTEX
  5
F5
100
AcDbEntity
  8
0
370
     0
390
0
100
AcDbVertex
100
AcDb2dVertex
 10
113.857986
 20
78.482483
 30
0.0
  0
VERTEX
  5
F6
100
AcDbEntity
  8
0
370
     0
390
0
100
AcDbVertex
100
AcDb2dVertex
 10
113.608826
 20
78.458992
 30
0.0
  0
VERTEX
  5
F7
100
AcDbEntity
  8
0
370
     0
390
0
100
AcDbVertex
100
AcDb2dVertex
 10
113.36026
 20
78.431213
 30
0.0
  0
VERTEX
  5
F8
100
AcDbEntity
  8
0
370
     0
390
0
100
AcDbVertex
100
AcDb2dVertex
 10
113.092369
 20
78.396408
 30
0.0
  0
VERTEX
  5
F9
100
AcDbEntity
  8
0
370
     0
390
0
100
AcDbVertex
100
AcDb2dVertex
 10
112.824364
 20
78.356514
 30
0.0
  0
SEQEND
  5
FA
100
AcDbEntity
  8
0
370
     0
390
0
  0
LINE
  5
FB
100
AcDbEntity
  8
0
370
    13
390
0
 62
     7
 48
0.079605
100
AcDbLine
 10
125.233734
 20
71.783356
 30
0.0
 11
122.08873
 21
71.285156
 31
0.0
210
0.0
220
0.0
230
1.0
  0
LINE
  5
FC
100
AcDbEntity
  8
0
370
    13
390
0
 62
     7
 48
0.093334
100
AcDbLine
 10
128.109726
 20
69.438347
 30
0.0
 11
124.422363
 21
68.854233
 31
0.0
210
0.0
220
0.0
230
1.0
  0
POLYLINE
  5
FD
100
AcDbEntity
  8
0
370
    13
390
0
 62
     7
100
AcDb2dPolyline
 66
     1
 10
0.0
 20
0.0
 30
0.0
 71
    15
  0
VERTEX
  5
FE
100
AcDbEntity
  8
0
370
     0
390
0
100
AcDbVertex
100
AcDb2dVertex
 10
122.088737
 20
71.285156
 30
0.0
  0
VERTEX
  5
FF
100
AcDbEntity
  8
0
370
     0
390
0
100
AcDbVertex
100
AcDb2dVertex
 10
122.144753
 20
71.100708
 30
0.0
  0
VERTEX
  5
100
100
AcDbEntity
  8
0
370
     0
390
0
100
AcDbVertex
100
AcDb2dVertex
 10
122.206657
 20
70.920906
 30
0.0
  0
VERTEX
  5
101
100
AcDbEntity
  8
0
370
     0
390
0
100
AcDbVertex
100
AcDb2dVertex
 10
122.27446
 20
70.746056
 30
0.0
  0
VERTEX
  5
102
100
AcDbEntity
  8
0
370
     0
390
0
100
AcDbVertex
100
AcDb2dVertex
 10
122.348145
 20
70.576477
 30
0.0
  0
VERTEX
  5
103
100
AcDbEntity
  8
0
370
     0
390
0
100
AcDbVertex
100
AcDb2dVertex
 10
122.427696
 20
70.412506
 30
0.0
  0
VERTEX
  5
104
100
AcDbEntity
  8
0
370
     0
390
0
100
AcDbVertex
100
AcDb2dVertex
 10
122.469666
 20
70.332718
 30
0.0
  0
VERTEX
  5
105
100
AcDbEntity
  8
0
370
     0
390
0
100
AcDbVertex
100
AcDb2dVertex
 10
122.513077
 20
70.254463
 30
0.0
  0
VERTEX
  5
106
100
AcDbEntity
  8
0
370
     0
390
0
100
AcDbVertex
100
AcDb2dVertex
 10
122.573227
 20
70.152565
 30
0.0
  0
VERTEX
  5
107
100
AcDbEntity
  8
0
370
     0
390
0
100
AcDbVertex
100
AcDb2dVertex
 10
122.635925
 20
70.053543
 30
0.0
  0
VERTEX
  5
108
100
AcDbEntity
  8
0
370
     0
390
0
100
AcDbVertex
100
AcDb2dVertex
 10
122.701172
 20
69.957504
 30
0.0
  0
VERTEX
  5
109
100
AcDbEntity
  8
0
370
     0
390
0
100
AcDbVertex
100
AcDb2dVertex
 10
122.77758
 20
69.853142
 30
0.0
  0
VERTEX
  5
10A
100
AcDbEntity
  8
0
370
     0
390
0
100
AcDbVertex
100
AcDb2dVertex
 10
122.857155
 20
69.752792
 30
0.0
  0
VERTEX
  5
10B
100
AcDbEntity
  8
0
370
     0
390
0
100
AcDbVertex
100
AcDb2dVertex
 10
122.939857
 20
69.656586
 30
0.0
  0
VERTEX
  5
10C
100
AcDbEntity
  8
0
370
     0
390
0
100
AcDbVertex
100
AcDb2dVertex
 10
123.02565
 20
69.564636
 30
0.0
  0
SEQEND
  5
10D
100
AcDbEntity
  8
0
370
     0
390
0
  0
ELLIPSE
  5
10E
100
AcDbEntity
  8
0
370
    13
390
0
 62
     7
100
AcDbEllipse
 10
124.355354
 20
76.682556
 30
0.0
 11
1.1849288940429687
 21
-7.8922348022460938
 31
0.0
210
0.0
220
0.0
230
1.0
 40
0.577217
 41
5.7423304373159674
 42
6.0429537252622749
  0
POLYLINE
  5
10F
100
AcDbEntity
  8
0
370
    13
390
0
 62
     7
100
AcDb2dPolyline
 66
     1
 10
0.0
 20
0.0
 30
0.0
 71
    39
  0
VERTEX
  5
110
100
AcDbEntity
  8
0
370
     0
390
0
100
AcDbVertex
100
AcDb2dVertex
 10
124.422363
 20
68.854233
 30
0.0
  0
VERTEX
  5
111
100
AcDbEntity
  8
0
370
     0
390
0
100
AcDbVertex
100
AcDb2dVertex
 10
124.490448
 20
68.834686
 30
0.0
  0
VERTEX
  5
112
100
AcDbEntity
  8
0
370
     0
390
0
100
AcDbVertex
100
AcDb2dVertex
 10
124.558479
 20
68.811157
 30
0.0
  0
VERTEX
  5
113
100
AcDbEntity
  8
0
370
     0
390
0
100
AcDbVertex
100
AcDb2dVertex
 10
124.626373
 20
68.783669
 30
0.0
  0
VERTEX
  5
114
100
AcDbEntity
  8
0
370
     0
390
0
100
AcDbVertex
100
AcDb2dVertex
 10
124.676575
 20
68.760757
 30
0.0
  0
VERTEX
  5
115
100
AcDbEntity
  8
0
370
     0
390
0
100
AcDbVertex
100
AcDb2dVertex
 10
124.726616
 20
68.73571
 30
0.0
  0
VERTEX
  5
116
100
AcDbEntity
  8
0
370
     0
390
0
100
AcDbVertex
100
AcDb2dVertex
 10
124.777649
 20
68.70787
 30
0.0
  0
VERTEX
  5
117
100
AcDbEntity
  8
0
370
     0
390
0
100
AcDbVertex
100
AcDb2dVertex
 10
124.828453
 20
68.677818
 30
0.0
  0
VERTEX
  5
118
100
AcDbEntity
  8
0
370
     0
390
0
100
AcDbVertex
100
AcDb2dVertex
 10
124.928085
 20
68.612
 30
0.0
  0
VERTEX
  5
119
100
AcDbEntity
  8
0
370
     0
390
0
100
AcDbVertex
100
AcDb2dVertex
 10
125.026436
 20
68.537819
 30
0.0
  0
VERTEX
  5
11A
100
AcDbEntity
  8
0
370
     0
390
0
100
AcDbVertex
100
AcDb2dVertex
 10
125.12323
 20
68.455467
 30
0.0
  0
VERTEX
  5
11B
100
AcDbEntity
  8
0
370
     0
390
0
100
AcDbVertex
100
AcDb2dVertex
 10
125.218216
 20
68.365173
 30
0.0
  0
VERTEX
  5
11C
100
AcDbEntity
  8
0
370
     0
390
0
100
AcDbVertex
100
AcDb2dVertex
 10
125.297997
 20
68.281631
 30
0.0
  0
VERTEX
  5
11D
100
AcDbEntity
  8
0
370
     0
390
0
100
AcDbVertex
100
AcDb2dVertex
 10
125.376099
 20
68.192596
 30
0.0
  0
VERTEX
  5
11E
100
AcDbEntity
  8
0
370
     0
390
0
100
AcDbVertex
100
AcDb2dVertex
 10
125.452377
 20
68.098236
 30
0.0
  0
VERTEX
  5
11F
100
AcDbEntity
  8
0
370
     0
390
0
100
AcDbVertex
100
AcDb2dVertex
 10
125.52668
 20
67.998741
 30
0.0
  0
VERTEX
  5
120
100
AcDbEntity
  8
0
370
     0
390
0
100
AcDbVertex
100
AcDb2dVertex
 10
125.575043
 20
67.929649
 30
0.0
  0
VERTEX
  5
121
100
AcDbEntity
  8
0
370
     0
390
0
100
AcDbVertex
100
AcDb2dVertex
 10
125.622421
 20
67.858429
 30
0.0
  0
VERTEX
  5
122
100
AcDbEntity
  8
0
370
     0
390
0
100
AcDbVertex
100
AcDb2dVertex
 10
125.714058
 20
67.709824
 30
0.0
  0
VERTEX
  5
123
100
AcDbEntity
  8
0
370
     0
390
0
100
AcDbVertex
100
AcDb2dVertex
 10
125.80127
 20
67.553436
 30
0.0
  0
VERTEX
  5
124
100
AcDbEntity
  8
0
370
     0
390
0
100
AcDbVertex
100
AcDb2dVertex
 10
125.852325
 20
67.454124
 30
0.0
  0
VERTEX
  5
125
100
AcDbEntity
  8
0
370
     0
390
0
100
AcDbVertex
100
AcDb2dVertex
 10
125.918892
 20
67.314758
 30
0.0
  0
VERTEX
  5
126
100
AcDbEntity
  8
0
370
     0
390
0
100
AcDbVertex
100
AcDb2dVertex
 10
125.981888
 20
67.170944
 30
0.0
  0
VERTEX
  5
127
100
AcDbEntity
  8
0
370
     0
390
0
100
AcDbVertex
100
AcDb2dVertex
 10
126.013786
 20
67.092941
 30
0.0
  0
VERTEX
  5
128
100
AcDbEntity
  8
0
370
     0
390
0
100
AcDbVertex
100
AcDb2dVertex
 10
126.050583
 20
66.99823
 30
0.0
  0
VERTEX
  5
129
100
AcDbEntity
  8
0
370
     0
390
0
100
AcDbVertex
100
AcDb2dVertex
 10
126.098274
 20
66.866486
 30
0.0
  0
VERTEX
  5
12A
100
AcDbEntity
  8
0
370
     0
390
0
100
AcDbVertex
100
AcDb2dVertex
 10
126.142952
 20
66.732216
 30
0.0
  0
VERTEX
  5
12B
100
AcDbEntity
  8
0
370
     0
390
0
100
AcDbVertex
100
AcDb2dVertex
 10
126.184547
 20
66.595673
 30
0.0
  0
VERTEX
  5
12C
100
AcDbEntity
  8
0
370
     0
390
0
100
AcDbVertex
100
AcDb2dVertex
 10
126.239449
 20
66.393204
 30
0.0
  0
VERTEX
  5
12D
100
AcDbEntity
  8
0
370
     0
390
0
100
AcDbVertex
100
AcDb2dVertex
 10
126.264969
 20
66.287788
 30
0.0
  0
VERTEX
  5
12E
100
AcDbEntity
  8
0
370
     0
390
0
100
AcDbVertex
100
AcDb2dVertex
 10
126.28875
 20
66.181023
 30
0.0
  0
VERTEX
  5
12F
100
AcDbEntity
  8
0
370
     0
390
0
100
AcDbVertex
100
AcDb2dVertex
 10
126.329369
 20
65.972427
 30
0.0
  0
VERTEX
  5
130
100
AcDbEntity
  8
0
370
     0
390
0
100
AcDbVertex
100
AcDb2dVertex
 10
126.361282
 20
65.772171
 30
0.0
  0
VERTEX
  5
131
100
AcDbEntity
  8
0
370
     0
390
0
100
AcDbVertex
100
AcDb2dVertex
 10
126.386513
 20
65.570892
 30
0.0
  0
VERTEX
  5
132
100
AcDbEntity
  8
0
370
     0
390
0
100
AcDbVertex
100
AcDb2dVertex
 10
126.399445
 20
65.438049
 30
0.0
  0
VERTEX
  5
133
100
AcDbEntity
  8
0
370
     0
390
0
100
AcDbVertex
100
AcDb2dVertex
 10
126.407875
 20
65.328583
 30
0.0
  0
VERTEX
  5
134
100
AcDbEntity
  8
0
370
     0
390
0
100
AcDbVertex
100
AcDb2dVertex
 10
126.414284
 20
65.219276
 30
0.0
  0
VERTEX
  5
135
100
AcDbEntity
  8
0
370
     0
390
0
100
AcDbVertex
100
AcDb2dVertex
 10
126.418655
 20
65.110825
 30
0.0
  0
VERTEX
  5
136
100
AcDbEntity
  8
0
370
     0
390
0
100
AcDbVertex
100
AcDb2dVertex
 10
126.421646
 20
64.969536
 30
0.0
  0
SEQEND
  5
137
100
AcDbEntity
  8
0
370
     0
390
0
  0
LINE
  5
138
100
AcDbEntity
  8
0
370
    13
390
0
 62
     7
 48
0.094154
100
AcDbLine
 10
126.421341
 20
64.969498
 30
0.0
 11
130.1548
 21
65.464668
 31
0.0
210
0.0
220
0.0
230
1.0
  0
LINE
  5
139
100
AcDbEntity
  8
0
370
    13
390
0
 62
     7
 48
0.094154
100
AcDbLine
 10
126.533859
 20
48.679062
 30
0.0
 11
130.267319
 21
49.174232
 31
0.0
210
0.0
220
0.0
230
1.0
  0
LINE
  5
13A
100
AcDbEntity
  8
0
370
    13
390
0
 62
     7
 48
0.407271
100
AcDbLine
 10
126.421341
 20
64.969498
 30
0.0
 11
126.533859
 21
48.679062
 31
0.0
210
0.0
220
0.0
230
1.0
  0
ELLIPSE
  5
13B
100
AcDbEntity
  8
0
370
    13
390
0
 62
     7
100
AcDbEllipse
 10
124.558037
 20
49.188454
 30
0.0
 11
0.467681884765625
 21
-3.4032707214355469
 31
0.0
210
0.0
220
0.0
230
1.0
 40
0.56411
 41
6.2712277504725282
 42
7.6268271638651903
  0
ELLIPSE
  5
13C
100
AcDbEntity
  8
0
370
    13
390
0
 62
     7
100
AcDbEllipse
 10
102.631683
 20
71.102737
 30
0.0
 11
0.467681884765625
 21
-3.4032707214355469
 31
0.0
210
0.0
220
0.0
230
1.0
 40
0.56411
 41
2.9144381832214217
 42
3.1535076133719273
  0
ELLIPSE
  5
13D
100
AcDbEntity
  8
0
370
    13
390
0
 62
     7
100
AcDbEllipse
 10
106.180603
 20
86.780075
 30
0.0
 11
-4.3288192749023437
 21
-12.588676452636719
 31
0.0
210
0.0
220
0.0
230
1.0
 40
0.467912
 41
0.2908862242633215
 42
0.5838096089136634
  0
POLYLINE
  5
13E
100
AcDbEntity
  8
0
370
    13
390
0
 62
     7
100
AcDb2dPolyline
 66
     1
 10
0.0
 20
0.0
 30
0.0
 71
     8
  0
VERTEX
  5
13F
100
AcDbEntity
  8
0
370
     0
390
0
100
AcDbVertex
100
AcDb2dVertex
 10
105.815598
 20
75.160004
 30
0.0
  0
VERTEX
  5
140
100
AcDbEntity
  8
0
370
     0
390
0
100
AcDbVertex
100
AcDb2dVertex
 10
105.812721
 20
75.205864
 30
0.0
  0
VERTEX
  5
141
100
AcDbEntity
  8
0
370
     0
390
0
100
AcDbVertex
100
AcDb2dVertex
 10
105.814957
 20
75.249893
 30
0.0
  0
VERTEX
  5
142
100
AcDbEntity
  8
0
370
     0
390
0
100
AcDbVertex
100
AcDb2dVertex
 10
105.822662
 20
75.291229
 30
0.0
  0
VERTEX
  5
143
100
AcDbEntity
  8
0
370
     0
390
0
100
AcDbVertex
100
AcDb2dVertex
 10
105.836067
 20
75.328896
 30
0.0
  0
VERTEX
  5
144
100
AcDbEntity
  8
0
370
     0
390
0
100
AcDbVertex
100
AcDb2dVertex
 10
105.851334
 20
75.35627
 30
0.0
  0
VERTEX
  5
145
100
AcDbEntity
  8
0
370
     0
390
0
100
AcDbVertex
100
AcDb2dVertex
 10
105.870438
 20
75.380058
 30
0.0
  0
VERTEX
  5
146
100
AcDbEntity
  8
0
370
     0
390
0
100
AcDbVertex
100
AcDb2dVertex
 10
105.893044
 20
75.399635
 30
0.0
  0
SEQEND
  5
147
100
AcDbEntity
  8
0
370
     0
390
0
  0
POLYLINE
  5
148
100
AcDbEntity
  8
0
370
    13
390
0
 62
     7
100
AcDb2dPolyline
 66
     1
 10
0.0
 20
0.0
 30
0.0
 71
    14
  0
VERTEX
  5
149
100
AcDbEntity
  8
0
370
     0
390
0
100
AcDbVertex
100
AcDb2dVertex
 10
103.723007
 20
74.139328
 30
0.0
  0
VERTEX
  5
14A
100
AcDbEntity
  8
0
370
     0
390
0
100
AcDbVertex
100
AcDb2dVertex
 10
103.735603
 20
74.198898
 30
0.0
  0
VERTEX
  5
14B
100
AcDbEntity
  8
0
370
     0
390
0
100
AcDbVertex
100
AcDb2dVertex
 10
103.754646
 20
74.255493
 30
0.0
  0
VERTEX
  5
14C
100
AcDbEntity
  8
0
370
     0
390
0
100
AcDbVertex
100
AcDb2dVertex
 10
103.766998
 20
74.28318
 30
0.0
  0
VERTEX
  5
14D
100
AcDbEntity
  8
0
370
     0
390
0
100
AcDbVertex
100
AcDb2dVertex
 10
103.781052
 20
74.309624
 30
0.0
  0
VERTEX
  5
14E
100
AcDbEntity
  8
0
370
     0
390
0
100
AcDbVertex
100
AcDb2dVertex
 10
103.795731
 20
74.333099
 30
0.0
  0
VERTEX
  5
14F
100
AcDbEntity
  8
0
370
     0
390
0
100
AcDbVertex
100
AcDb2dVertex
 10
103.811836
 20
74.355202
 30
0.0
  0
VERTEX
  5
150
100
AcDbEntity
  8
0
370
     0
390
0
100
AcDbVertex
100
AcDb2dVertex
 10
103.829185
 20
74.375626
 30
0.0
  0
VERTEX
  5
151
100
AcDbEntity
  8
0
370
     0
390
0
100
AcDbVertex
100
AcDb2dVertex
 10
103.847847
 20
74.394417
 30
0.0
  0
VERTEX
  5
152
100
AcDbEntity
  8
0
370
     0
390
0
100
AcDbVertex
100
AcDb2dVertex
 10
103.866608
 20
74.410553
 30
0.0
  0
VERTEX
  5
153
100
AcDbEntity
  8
0
370
     0
390
0
100
AcDbVertex
100
AcDb2dVertex
 10
103.886398
 20
74.424995
 30
0.0
  0
VERTEX
  5
154
100
AcDbEntity
  8
0
370
     0
390
0
100
AcDbVertex
100
AcDb2dVertex
 10
103.91507
 20
74.441902
 30
0.0
  0
VERTEX
  5
155
100
AcDbEntity
  8
0
370
     0
390
0
100
AcDbVertex
100
AcDb2dVertex
 10
103.945259
 20
74.455238
 30
0.0
  0
VERTEX
  5
156
100
AcDbEntity
  8
0
370
     0
390
0
100
AcDbVertex
100
AcDb2dVertex
 10
103.9767
 20
74.464844
 30
0.0
  0
SEQEND
  5
157
100
AcDbEntity
  8
0
370
     0
390
0
  0
ELLIPSE
  5
158
100
AcDbEntity
  8
0
370
    13
390
0
 62
     7
100
AcDbEllipse
 10
104.093697
 20
73.978722
 30
0.0
 11
0.1247634887695313
 21
-0.4841842651367188
 31
0.0
210
0.0
220
0.0
230
1.0
 40
0.823933
 41
3.1414832458661182
 42
4.6169849847015021
  0
POLYLINE
  5
159
100
AcDbEntity
  8
0
370
    13
390
0
 62
     7
100
AcDb2dPolyline
 66
     1
 10
0.0
 20
0.0
 30
0.0
 71
    14
  0
VERTEX
  5
15A
100
AcDbEntity
  8
0
370
     0
390
0
100
AcDbVertex
100
AcDb2dVertex
 10
102.608505
 20
74.477966
 30
0.0
  0
VERTEX
  5
15B
100
AcDbEntity
  8
0
370
     0
390
0
100
AcDbVertex
100
AcDb2dVertex
 10
102.560493
 20
74.466942
 30
0.0
  0
VERTEX
  5
15C
100
AcDbEntity
  8
0
370
     0
390
0
100
AcDbVertex
100
AcDb2dVertex
 10
102.51371
 20
74.44944
 30
0.0
  0
VERTEX
  5
15D
100
AcDbEntity
  8
0
370
     0
390
0
100
AcDbVertex
100
AcDb2dVertex
 10
102.468803
 20
74.425903
 30
0.0
  0
VERTEX
  5
15E
100
AcDbEntity
  8
0
370
     0
390
0
100
AcDbVertex
100
AcDb2dVertex
 10
102.426353
 20
74.396835
 30
0.0
  0
VERTEX
  5
15F
100
AcDbEntity
  8
0
370
     0
390
0
100
AcDbVertex
100
AcDb2dVertex
 10
102.382462
 20
74.358574
 30
0.0
  0
VERTEX
  5
160
100
AcDbEntity
  8
0
370
     0
390
0
100
AcDbVertex
100
AcDb2dVertex
 10
102.342728
 20
74.314896
 30
0.0
  0
VERTEX
  5
161
100
AcDbEntity
  8
0
370
     0
390
0
100
AcDbVertex
100
AcDb2dVertex
 10
102.307594
 20
74.266586
 30
0.0
  0
VERTEX
  5
162
100
AcDbEntity
  8
0
370
     0
390
0
100
AcDbVertex
100
AcDb2dVertex
 10
102.277435
 20
74.214432
 30
0.0
  0
VERTEX
  5
163
100
AcDbEntity
  8
0
370
     0
390
0
100
AcDbVertex
100
AcDb2dVertex
 10
102.252548
 20
74.15918
 30
0.0
  0
VERTEX
  5
164
100
AcDbEntity
  8
0
370
     0
390
0
100
AcDbVertex
100
AcDb2dVertex
 10
102.233894
 20
74.104042
 30
0.0
  0
VERTEX
  5
165
100
AcDbEntity
  8
0
370
     0
390
0
100
AcDbVertex
100
AcDb2dVertex
 10
102.220467
 20
74.047165
 30
0.0
  0
VERTEX
  5
166
100
AcDbEntity
  8
0
370
     0
390
0
100
AcDbVertex
100
AcDb2dVertex
 10
102.212456
 20
73.989388
 30
0.0
  0
VERTEX
  5
167
100
AcDbEntity
  8
0
370
     0
390
0
100
AcDbVertex
100
AcDb2dVertex
 10
102.21003
 20
73.931541
 30
0.0
  0
SEQEND
  5
168
100
AcDbEntity
  8
0
370
     0
390
0
  0
ARC
  5
169
100
AcDbEntity
  8
0
370
    13
390
0
 62
     7
100
AcDbCircle
 10
102.966949
 20
76.758804
 30
0.0
 40
2.926177
210
0.0
220
0.0
230
1.0
100
AcDbArc
 50
255.012199
 51
284.200924
  0
POLYLINE
  5
16A
100
AcDbEntity
  8
0
370
    13
390
0
 62
     7
100
AcDb2dPolyline
 66
     1
 10
0.0
 20
0.0
 30
0.0
 71
    86
  0
VERTEX
  5
16B
100
AcDbEntity
  8
0
370
     0
390
0
100
AcDbVertex
100
AcDb2dVertex
 10
121.558556
 20
71.101288
 30
0.0
  0
VERTEX
  5
16C
100
AcDbEntity
  8
0
370
     0
390
0
100
AcDbVertex
100
AcDb2dVertex
 10
121.469833
 20
71.387032
 30
0.0
  0
VERTEX
  5
16D
100
AcDbEntity
  8
0
370
     0
390
0
100
AcDbVertex
100
AcDb2dVertex
 10
121.377197
 20
71.669693
 30
0.0
  0
VERTEX
  5
16E
100
AcDbEntity
  8
0
370
     0
390
0
100
AcDbVertex
100
AcDb2dVertex
 10
121.280716
 20
71.949066
 30
0.0
  0
VERTEX
  5
16F
100
AcDbEntity
  8
0
370
     0
390
0
100
AcDbVertex
100
AcDb2dVertex
 10
121.180511
 20
72.225014
 30
0.0
  0
VERTEX
  5
170
100
AcDbEntity
  8
0
370
     0
390
0
100
AcDbVertex
100
AcDb2dVertex
 10
121.11171
 20
72.407005
 30
0.0
  0
VERTEX
  5
171
100
AcDbEntity
  8
0
370
     0
390
0
100
AcDbVertex
100
AcDb2dVertex
 10
121.041359
 20
72.587372
 30
0.0
  0
VERTEX
  5
172
100
AcDbEntity
  8
0
370
     0
390
0
100
AcDbVertex
100
AcDb2dVertex
 10
120.89624
 20
72.9431
 30
0.0
  0
VERTEX
  5
173
100
AcDbEntity
  8
0
370
     0
390
0
100
AcDbVertex
100
AcDb2dVertex
 10
120.745628
 20
73.291992
 30
0.0
  0
VERTEX
  5
174
100
AcDbEntity
  8
0
370
     0
390
0
100
AcDbVertex
100
AcDb2dVertex
 10
120.605812
 20
73.599968
 30
0.0
  0
VERTEX
  5
175
100
AcDbEntity
  8
0
370
     0
390
0
100
AcDbVertex
100
AcDb2dVertex
 10
120.462379
 20
73.9021
 30
0.0
  0
VERTEX
  5
176
100
AcDbEntity
  8
0
370
     0
390
0
100
AcDbVertex
100
AcDb2dVertex
 10
120.315765
 20
74.198257
 30
0.0
  0
VERTEX
  5
177
100
AcDbEntity
  8
0
370
     0
390
0
100
AcDbVertex
100
AcDb2dVertex
 10
120.166412
 20
74.488289
 30
0.0
  0
VERTEX
  5
178
100
AcDbEntity
  8
0
370
     0
390
0
100
AcDbVertex
100
AcDb2dVertex
 10
120.066139
 20
74.67704
 30
0.0
  0
VERTEX
  5
179
100
AcDbEntity
  8
0
370
     0
390
0
100
AcDbVertex
100
AcDb2dVertex
 10
119.964981
 20
74.862976
 30
0.0
  0
VERTEX
  5
17A
100
AcDbEntity
  8
0
370
     0
390
0
100
AcDbVertex
100
AcDb2dVertex
 10
119.861855
 20
75.048203
 30
0.0
  0
VERTEX
  5
17B
100
AcDbEntity
  8
0
370
     0
390
0
100
AcDbVertex
100
AcDb2dVertex
 10
119.758072
 20
75.230415
 30
0.0
  0
VERTEX
  5
17C
100
AcDbEntity
  8
0
370
     0
390
0
100
AcDbVertex
100
AcDb2dVertex
 10
119.565773
 20
75.557602
 30
0.0
  0
VERTEX
  5
17D
100
AcDbEntity
  8
0
370
     0
390
0
100
AcDbVertex
100
AcDb2dVertex
 10
119.372192
 20
75.873932
 30
0.0
  0
VERTEX
  5
17E
100
AcDbEntity
  8
0
370
     0
390
0
100
AcDbVertex
100
AcDb2dVertex
 10
119.177803
 20
76.178757
 30
0.0
  0
VERTEX
  5
17F
100
AcDbEntity
  8
0
370
     0
390
0
100
AcDbVertex
100
AcDb2dVertex
 10
119.080376
 20
76.326599
 30
0.0
  0
VERTEX
  5
180
100
AcDbEntity
  8
0
370
     0
390
0
100
AcDbVertex
100
AcDb2dVertex
 10
118.982788
 20
76.471214
 30
0.0
  0
VERTEX
  5
181
100
AcDbEntity
  8
0
370
     0
390
0
100
AcDbVertex
100
AcDb2dVertex
 10
118.852295
 20
76.658783
 30
0.0
  0
VERTEX
  5
182
100
AcDbEntity
  8
0
370
     0
390
0
100
AcDbVertex
100
AcDb2dVertex
 10
118.721123
 20
76.840027
 30
0.0
  0
VERTEX
  5
183
100
AcDbEntity
  8
0
370
     0
390
0
100
AcDbVertex
100
AcDb2dVertex
 10
118.588814
 20
77.014557
 30
0.0
  0
VERTEX
  5
184
100
AcDbEntity
  8
0
370
     0
390
0
100
AcDbVertex
100
AcDb2dVertex
 10
118.454605
 20
77.18203
 30
0.0
  0
VERTEX
  5
185
100
AcDbEntity
  8
0
370
     0
390
0
100
AcDbVertex
100
AcDb2dVertex
 10
118.386642
 20
77.262749
 30
0.0
  0
VERTEX
  5
186
100
AcDbEntity
  8
0
370
     0
390
0
100
AcDbVertex
100
AcDb2dVertex
 10
118.317879
 20
77.341415
 30
0.0
  0
VERTEX
  5
187
100
AcDbEntity
  8
0
370
     0
390
0
100
AcDbVertex
100
AcDb2dVertex
 10
118.22451
 20
77.443138
 30
0.0
  0
VERTEX
  5
188
100
AcDbEntity
  8
0
370
     0
390
0
100
AcDbVertex
100
AcDb2dVertex
 10
118.128632
 20
77.54126
 30
0.0
  0
VERTEX
  5
189
100
AcDbEntity
  8
0
370
     0
390
0
100
AcDbVertex
100
AcDb2dVertex
 10
118.029648
 20
77.635612
 30
0.0
  0
VERTEX
  5
18A
100
AcDbEntity
  8
0
370
     0
390
0
100
AcDbVertex
100
AcDb2dVertex
 10
117.915894
 20
77.735115
 30
0.0
  0
VERTEX
  5
18B
100
AcDbEntity
  8
0
370
     0
390
0
100
AcDbVertex
100
AcDb2dVertex
 10
117.85701
 20
77.782852
 30
0.0
  0
VERTEX
  5
18C
100
AcDbEntity
  8
0
370
     0
390
0
100
AcDbVertex
100
AcDb2dVertex
 10
117.796585
 20
77.829178
 30
0.0
  0
VERTEX
  5
18D
100
AcDbEntity
  8
0
370
     0
390
0
100
AcDbVertex
100
AcDb2dVertex
 10
117.713409
 20
77.888687
 30
0.0
  0
VERTEX
  5
18E
100
AcDbEntity
  8
0
370
     0
390
0
100
AcDbVertex
100
AcDb2dVertex
 10
117.626938
 20
77.945503
 30
0.0
  0
VERTEX
  5
18F
100
AcDbEntity
  8
0
370
     0
390
0
100
AcDbVertex
100
AcDb2dVertex
 10
117.536888
 20
77.999512
 30
0.0
  0
VERTEX
  5
190
100
AcDbEntity
  8
0
370
     0
390
0
100
AcDbVertex
100
AcDb2dVertex
 10
117.423737
 20
78.060463
 30
0.0
  0
VERTEX
  5
191
100
AcDbEntity
  8
0
370
     0
390
0
100
AcDbVertex
100
AcDb2dVertex
 10
117.30468
 20
78.117035
 30
0.0
  0
VERTEX
  5
192
100
AcDbEntity
  8
0
370
     0
390
0
100
AcDbVertex
100
AcDb2dVertex
 10
117.179459
 20
78.169075
 30
0.0
  0
VERTEX
  5
193
100
AcDbEntity
  8
0
370
     0
390
0
100
AcDbVertex
100
AcDb2dVertex
 10
117.047935
 20
78.216484
 30
0.0
  0
VERTEX
  5
194
100
AcDbEntity
  8
0
370
     0
390
0
100
AcDbVertex
100
AcDb2dVertex
 10
116.910103
 20
78.259201
 30
0.0
  0
VERTEX
  5
195
100
AcDbEntity
  8
0
370
     0
390
0
100
AcDbVertex
100
AcDb2dVertex
 10
116.778122
 20
78.294304
 30
0.0
  0
VERTEX
  5
196
100
AcDbEntity
  8
0
370
     0
390
0
100
AcDbVertex
100
AcDb2dVertex
 10
116.64122
 20
78.325539
 30
0.0
  0
VERTEX
  5
197
100
AcDbEntity
  8
0
370
     0
390
0
100
AcDbVertex
100
AcDb2dVertex
 10
116.499802
 20
78.353004
 30
0.0
  0
VERTEX
  5
198
100
AcDbEntity
  8
0
370
     0
390
0
100
AcDbVertex
100
AcDb2dVertex
 10
116.392868
 20
78.370911
 30
0.0
  0
VERTEX
  5
199
100
AcDbEntity
  8
0
370
     0
390
0
100
AcDbVertex
100
AcDb2dVertex
 10
116.283958
 20
78.386887
 30
0.0
  0
VERTEX
  5
19A
100
AcDbEntity
  8
0
370
     0
390
0
100
AcDbVertex
100
AcDb2dVertex
 10
116.169586
 20
78.401428
 30
0.0
  0
VERTEX
  5
19B
100
AcDbEntity
  8
0
370
     0
390
0
100
AcDbVertex
100
AcDb2dVertex
 10
116.053513
 20
78.414024
 30
0.0
  0
VERTEX
  5
19C
100
AcDbEntity
  8
0
370
     0
390
0
100
AcDbVertex
100
AcDb2dVertex
 10
115.821289
 20
78.433434
 30
0.0
  0
VERTEX
  5
19D
100
AcDbEntity
  8
0
370
     0
390
0
100
AcDbVertex
100
AcDb2dVertex
 10
115.584274
 20
78.446198
 30
0.0
  0
VERTEX
  5
19E
100
AcDbEntity
  8
0
370
     0
390
0
100
AcDbVertex
100
AcDb2dVertex
 10
115.343521
 20
78.452759
 30
0.0
  0
VERTEX
  5
19F
100
AcDbEntity
  8
0
370
     0
390
0
100
AcDbVertex
100
AcDb2dVertex
 10
115.09996
 20
78.453506
 30
0.0
  0
VERTEX
  5
1A0
100
AcDbEntity
  8
0
370
     0
390
0
100
AcDbVertex
100
AcDb2dVertex
 10
114.854393
 20
78.448761
 30
0.0
  0
VERTEX
  5
1A1
100
AcDbEntity
  8
0
370
     0
390
0
100
AcDbVertex
100
AcDb2dVertex
 10
114.700195
 20
78.44313
 30
0.0
  0
VERTEX
  5
1A2
100
AcDbEntity
  8
0
370
     0
390
0
100
AcDbVertex
100
AcDb2dVertex
 10
114.545616
 20
78.435532
 30
0.0
  0
VERTEX
  5
1A3
100
AcDbEntity
  8
0
370
     0
390
0
100
AcDbVertex
100
AcDb2dVertex
 10
114.235809
 20
78.414597
 30
0.0
  0
VERTEX
  5
1A4
100
AcDbEntity
  8
0
370
     0
390
0
100
AcDbVertex
100
AcDb2dVertex
 10
113.925751
 20
78.386345
 30
0.0
  0
VERTEX
  5
1A5
100
AcDbEntity
  8
0
370
     0
390
0
100
AcDbVertex
100
AcDb2dVertex
 10
113.615982
 20
78.351059
 30
0.0
  0
VERTEX
  5
1A6
100
AcDbEntity
  8
0
370
     0
390
0
100
AcDbVertex
100
AcDb2dVertex
 10
113.28511
 20
78.305771
 30
0.0
  0
VERTEX
  5
1A7
100
AcDbEntity
  8
0
370
     0
390
0
100
AcDbVertex
100
AcDb2dVertex
 10
112.955299
 20
78.252975
 30
0.0
  0
VERTEX
  5
1A8
100
AcDbEntity
  8
0
370
     0
390
0
100
AcDbVertex
100
AcDb2dVertex
 10
112.626869
 20
78.192879
 30
0.0
  0
VERTEX
  5
1A9
100
AcDbEntity
  8
0
370
     0
390
0
100
AcDbVertex
100
AcDb2dVertex
 10
112.300079
 20
78.125687
 30
0.0
  0
VERTEX
  5
1AA
100
AcDbEntity
  8
0
370
     0
390
0
100
AcDbVertex
100
AcDb2dVertex
 10
111.975128
 20
78.051567
 30
0.0
  0
VERTEX
  5
1AB
100
AcDbEntity
  8
0
370
     0
390
0
100
AcDbVertex
100
AcDb2dVertex
 10
111.652168
 20
77.970673
 30
0.0
  0
VERTEX
  5
1AC
100
AcDbEntity
  8
0
370
     0
390
0
100
AcDbVertex
100
AcDb2dVertex
 10
111.331314
 20
77.883102
 30
0.0
  0
VERTEX
  5
1AD
100
AcDbEntity
  8
0
370
     0
390
0
100
AcDbVertex
100
AcDb2dVertex
 10
111.012642
 20
77.788986
 30
0.0
  0
VERTEX
  5
1AE
100
AcDbEntity
  8
0
370
     0
390
0
100
AcDbVertex
100
AcDb2dVertex
 10
110.696198
 20
77.688377
 30
0.0
  0
VERTEX
  5
1AF
100
AcDbEntity
  8
0
370
     0
390
0
100
AcDbVertex
100
AcDb2dVertex
 10
110.381989
 20
77.581367
 30
0.0
  0
VERTEX
  5
1B0
100
AcDbEntity
  8
0
370
     0
390
0
100
AcDbVertex
100
AcDb2dVertex
 10
110.070007
 20
77.467987
 30
0.0
  0
VERTEX
  5
1B1
100
AcDbEntity
  8
0
370
     0
390
0
100
AcDbVertex
100
AcDb2dVertex
 10
109.75103
 20
77.344627
 30
0.0
  0
VERTEX
  5
1B2
100
AcDbEntity
  8
0
370
     0
390
0
100
AcDbVertex
100
AcDb2dVertex
 10
109.434425
 20
77.214615
 30
0.0
  0
VERTEX
  5
1B3
100
AcDbEntity
  8
0
370
     0
390
0
100
AcDbVertex
100
AcDb2dVertex
 10
109.120178
 20
77.078018
 30
0.0
  0
VERTEX
  5
1B4
100
AcDbEntity
  8
0
370
     0
390
0
100
AcDbVertex
100
AcDb2dVertex
 10
108.808289
 20
76.934883
 30
0.0
  0
VERTEX
  5
1B5
100
AcDbEntity
  8
0
370
     0
390
0
100
AcDbVertex
100
AcDb2dVertex
 10
108.498734
 20
76.785263
 30
0.0
  0
VERTEX
  5
1B6
100
AcDbEntity
  8
0
370
     0
390
0
100
AcDbVertex
100
AcDb2dVertex
 10
108.191498
 20
76.629227
 30
0.0
  0
VERTEX
  5
1B7
100
AcDbEntity
  8
0
370
     0
390
0
100
AcDbVertex
100
AcDb2dVertex
 10
107.886543
 20
76.466835
 30
0.0
  0
VERTEX
  5
1B8
100
AcDbEntity
  8
0
370
     0
390
0
100
AcDbVertex
100
AcDb2dVertex
 10
107.621567
 20
76.31958
 30
0.0
  0
VERTEX
  5
1B9
100
AcDbEntity
  8
0
370
     0
390
0
100
AcDbVertex
100
AcDb2dVertex
 10
107.358315
 20
76.167572
 30
0.0
  0
VERTEX
  5
1BA
100
AcDbEntity
  8
0
370
     0
390
0
100
AcDbVertex
100
AcDb2dVertex
 10
107.096779
 20
76.01088
 30
0.0
  0
VERTEX
  5
1BB
100
AcDbEntity
  8
0
370
     0
390
0
100
AcDbVertex
100
AcDb2dVertex
 10
106.836975
 20
75.849564
 30
0.0
  0
VERTEX
  5
1BC
100
AcDbEntity
  8
0
370
     0
390
0
100
AcDbVertex
100
AcDb2dVertex
 10
106.607506
 20
75.70237
 30
0.0
  0
VERTEX
  5
1BD
100
AcDbEntity
  8
0
370
     0
390
0
100
AcDbVertex
100
AcDb2dVertex
 10
106.379433
 20
75.551651
 30
0.0
  0
VERTEX
  5
1BE
100
AcDbEntity
  8
0
370
     0
390
0
100
AcDbVertex
100
AcDb2dVertex
 10
106.152786
 20
75.397499
 30
0.0
  0
VERTEX
  5
1BF
100
AcDbEntity
  8
0
370
     0
390
0
100
AcDbVertex
100
AcDb2dVertex
 10
105.983765
 20
75.279678
 30
0.0
  0
VERTEX
  5
1C0
100
AcDbEntity
  8
0
370
     0
390
0
100
AcDbVertex
100
AcDb2dVertex
 10
105.815598
 20
75.160004
 30
0.0
  0
SEQEND
  5
1C1
100
AcDbEntity
  8
0
370
     0
390
0
  0
ARC
  5
1C2
100
AcDbEntity
  8
0
370
    13
390
0
 62
     7
100
AcDbCircle
 10
122.035995
 20
70.578148
 30
0.0
 40
0.709083
210
0.0
220
0.0
230
1.0
100
AcDbArc
 50
85.733784
 51
132.384557
  0
POLYLINE
  5
1C3
100
AcDbEntity
  8
0
370
    13
390
0
 62
     7
100
AcDb2dPolyline
 66
     1
 10
0.0
 20
0.0
 30
0.0
 71
    14
  0
VERTEX
  5
1C4
100
AcDbEntity
  8
0
370
     0
390
0
100
AcDbVertex
100
AcDb2dVertex
 10
121.558556
 20
71.101288
 30
0.0
  0
VERTEX
  5
1C5
100
AcDbEntity
  8
0
370
     0
390
0
100
AcDbVertex
100
AcDb2dVertex
 10
121.620712
 20
70.907745
 30
0.0
  0
VERTEX
  5
1C6
100
AcDbEntity
  8
0
370
     0
390
0
100
AcDbVertex
100
AcDb2dVertex
 10
121.68898
 20
70.718727
 30
0.0
  0
VERTEX
  5
1C7
100
AcDbEntity
  8
0
370
     0
390
0
100
AcDbVertex
100
AcDb2dVertex
 10
121.763397
 20
70.534554
 30
0.0
  0
VERTEX
  5
1C8
100
AcDbEntity
  8
0
370
     0
390
0
100
AcDbVertex
100
AcDb2dVertex
 10
121.843979
 20
70.355545
 30
0.0
  0
VERTEX
  5
1C9
100
AcDbEntity
  8
0
370
     0
390
0
100
AcDbVertex
100
AcDb2dVertex
 10
121.886597
 20
70.268082
 30
0.0
  0
VERTEX
  5
1CA
100
AcDbEntity
  8
0
370
     0
390
0
100
AcDbVertex
100
AcDb2dVertex
 10
121.930771
 20
70.182045
 30
0.0
  0
VERTEX
  5
1CB
100
AcDbEntity
  8
0
370
     0
390
0
100
AcDbVertex
100
AcDb2dVertex
 10
122.010132
 20
70.037979
 30
0.0
  0
VERTEX
  5
1CC
100
AcDbEntity
  8
0
370
     0
390
0
100
AcDbVertex
100
AcDb2dVertex
 10
122.094078
 20
69.898445
 30
0.0
  0
VERTEX
  5
1CD
100
AcDbEntity
  8
0
370
     0
390
0
100
AcDbVertex
100
AcDb2dVertex
 10
122.18261
 20
69.763672
 30
0.0
  0
VERTEX
  5
1CE
100
AcDbEntity
  8
0
370
     0
390
0
100
AcDbVertex
100
AcDb2dVertex
 10
122.275719
 20
69.633919
 30
0.0
  0
VERTEX
  5
1CF
100
AcDbEntity
  8
0
370
     0
390
0
100
AcDbVertex
100
AcDb2dVertex
 10
122.373375
 20
69.509422
 30
0.0
  0
VERTEX
  5
1D0
100
AcDbEntity
  8
0
370
     0
390
0
100
AcDbVertex
100
AcDb2dVertex
 10
122.475533
 20
69.390442
 30
0.0
  0
VERTEX
  5
1D1
100
AcDbEntity
  8
0
370
     0
390
0
100
AcDbVertex
100
AcDb2dVertex
 10
122.582123
 20
69.277245
 30
0.0
  0
SEQEND
  5
1D2
100
AcDbEntity
  8
0
370
     0
390
0
  0
POLYLINE
  5
1D3
100
AcDbEntity
  8
0
370
    13
390
0
 62
     7
100
AcDb2dPolyline
 66
     1
 10
0.0
 20
0.0
 30
0.0
 71
    10
  0
VERTEX
  5
1D4
100
AcDbEntity
  8
0
370
     0
390
0
100
AcDbVertex
100
AcDb2dVertex
 10
122.582123
 20
69.277245
 30
0.0
  0
VERTEX
  5
1D5
100
AcDbEntity
  8
0
370
     0
390
0
100
AcDbVertex
100
AcDb2dVertex
 10
122.620186
 20
69.332642
 30
0.0
  0
VERTEX
  5
1D6
100
AcDbEntity
  8
0
370
     0
390
0
100
AcDbVertex
100
AcDb2dVertex
 10
122.664215
 20
69.38385
 30
0.0
  0
VERTEX
  5
1D7
100
AcDbEntity
  8
0
370
     0
390
0
100
AcDbVertex
100
AcDb2dVertex
 10
122.713501
 20
69.430145
 30
0.0
  0
VERTEX
  5
1D8
100
AcDbEntity
  8
0
370
     0
390
0
100
AcDbVertex
100
AcDb2dVertex
 10
122.767288
 20
69.470787
 30
0.0
  0
VERTEX
  5
1D9
100
AcDbEntity
  8
0
370
     0
390
0
100
AcDbVertex
100
AcDb2dVertex
 10
122.824799
 20
69.505096
 30
0.0
  0
VERTEX
  5
1DA
100
AcDbEntity
  8
0
370
     0
390
0
100
AcDbVertex
100
AcDb2dVertex
 10
122.87336
 20
69.527679
 30
0.0
  0
VERTEX
  5
1DB
100
AcDbEntity
  8
0
370
     0
390
0
100
AcDbVertex
100
AcDb2dVertex
 10
122.923508
 20
69.545403
 30
0.0
  0
VERTEX
  5
1DC
100
AcDbEntity
  8
0
370
     0
390
0
100
AcDbVertex
100
AcDb2dVertex
 10
122.974533
 20
69.557846
 30
0.0
  0
VERTEX
  5
1DD
100
AcDbEntity
  8
0
370
     0
390
0
100
AcDbVertex
100
AcDb2dVertex
 10
123.02565
 20
69.564636
 30
0.0
  0
SEQEND
  5
1DE
100
AcDbEntity
  8
0
370
     0
390
0
  0
POLYLINE
  5
1DF
100
AcDbEntity
  8
0
370
    13
390
0
 62
     7
100
AcDb2dPolyline
 66
     1
 10
0.0
 20
0.0
 30
0.0
 71
    14
  0
VERTEX
  5
1E0
100
AcDbEntity
  8
0
370
     0
390
0
100
AcDbVertex
100
AcDb2dVertex
 10
124.422058
 20
68.854187
 30
0.0
  0
VERTEX
  5
1E1
100
AcDbEntity
  8
0
370
     0
390
0
100
AcDbVertex
100
AcDb2dVertex
 10
124.374046
 20
68.843163
 30
0.0
  0
VERTEX
  5
1E2
100
AcDbEntity
  8
0
370
     0
390
0
100
AcDbVertex
100
AcDb2dVertex
 10
124.327263
 20
68.825661
 30
0.0
  0
VERTEX
  5
1E3
100
AcDbEntity
  8
0
370
     0
390
0
100
AcDbVertex
100
AcDb2dVertex
 10
124.282364
 20
68.802124
 30
0.0
  0
VERTEX
  5
1E4
100
AcDbEntity
  8
0
370
     0
390
0
100
AcDbVertex
100
AcDb2dVertex
 10
124.239914
 20
68.773056
 30
0.0
  0
VERTEX
  5
1E5
100
AcDbEntity
  8
0
370
     0
390
0
100
AcDbVertex
100
AcDb2dVertex
 10
124.196014
 20
68.734795
 30
0.0
  0
VERTEX
  5
1E6
100
AcDbEntity
  8
0
370
     0
390
0
100
AcDbVertex
100
AcDb2dVertex
 10
124.156281
 20
68.691116
 30
0.0
  0
VERTEX
  5
1E7
100
AcDbEntity
  8
0
370
     0
390
0
100
AcDbVertex
100
AcDb2dVertex
 10
124.121155
 20
68.642815
 30
0.0
  0
VERTEX
  5
1E8
100
AcDbEntity
  8
0
370
     0
390
0
100
AcDbVertex
100
AcDb2dVertex
 10
124.090988
 20
68.590652
 30
0.0
  0
VERTEX
  5
1E9
100
AcDbEntity
  8
0
370
     0
390
0
100
AcDbVertex
100
AcDb2dVertex
 10
124.066101
 20
68.5354
 30
0.0
  0
VERTEX
  5
1EA
100
AcDbEntity
  8
0
370
     0
390
0
100
AcDbVertex
100
AcDb2dVertex
 10
124.047455
 20
68.48027
 30
0.0
  0
VERTEX
  5
1EB
100
AcDbEntity
  8
0
370
     0
390
0
100
AcDbVertex
100
AcDb2dVertex
 10
124.034019
 20
68.423393
 30
0.0
  0
VERTEX
  5
1EC
100
AcDbEntity
  8
0
370
     0
390
0
100
AcDbVertex
100
AcDb2dVertex
 10
124.026009
 20
68.365608
 30
0.0
  0
VERTEX
  5
1ED
100
AcDbEntity
  8
0
370
     0
390
0
100
AcDbVertex
100
AcDb2dVertex
 10
124.02359
 20
68.30777
 30
0.0
  0
SEQEND
  5
1EE
100
AcDbEntity
  8
0
370
     0
390
0
  0
ELLIPSE
  5
1EF
100
AcDbEntity
  8
0
370
    13
390
0
 62
     7
100
AcDbEllipse
 10
122.952805
 20
69.116638
 30
0.0
 11
-0.304962158203125
 21
-0.3962287902832031
 31
0.0
210
0.0
220
0.0
230
1.0
 40
0.716666
 41
3.7868970472684045
 42
5.3409816613319245
  0
ELLIPSE
  5
1F0
100
AcDbEntity
  8
0
370
    13
390
0
 62
     7
100
AcDbEllipse
 10
123.962273
 20
77.046486
 30
0.0
 11
1.2140731811523437
 21
-8.8111915588378906
 31
0.0
210
0.0
220
0.0
230
1.0
 40
0.564372
 41
5.7629420868164836
 42
6.0557044050275062
  0
ELLIPSE
  5
1F1
100
AcDbEntity
  8
0
370
    13
390
0
 62
     7
100
AcDbEllipse
 10
126.140938
 20
65.044609
 30
0.0
 11
-0.4999847412109375
 21
-0.0034523010253906
 31
0.0
210
0.0
220
0.0
230
1.0
 40
0.185953
 41
0.6115326553945308
 42
2.1648756896057852
  0
ELLIPSE
  5
1F2
100
AcDbEntity
  8
0
370
    13
390
0
 62
     7
100
AcDbEllipse
 10
124.04364
 20
65.42366
 30
0.0
 11
-0.3996200561523438
 21
2.9080047607421875
 31
0.0
210
0.0
220
0.0
230
1.0
 40
0.56411
 41
4.4852345097097084
 42
6.0561112798863705
  0
ELLIPSE
  5
1F3
100
AcDbEntity
  8
0
370
    13
390
0
 62
     7
100
AcDbEllipse
 10
126.253464
 20
48.754173
 30
0.0
 11
-0.4999847412109375
 21
-0.0034523010253906
 31
0.0
210
0.0
220
0.0
230
1.0
 40
0.185953
 41
0.6115326562945401
 42
2.1648756878077968
  0
LINE
  5
1F4
100
AcDbEntity
  8
0
370
    13
390
0
 62
     7
 48
0.407271
100
AcDbLine
 10
125.731934
 20
64.988403
 30
0.0
 11
125.84446
 21
48.697968
 31
0.0
210
0.0
220
0.0
230
1.0
  0
ELLIPSE
  5
1F5
100
AcDbEntity
  8
0
370
    13
390
0
 62
     7
100
AcDbEllipse
 10
124.585098
 20
46.305367
 30
0.0
 11
0.1248245239257813
 21
0.4841690063476563
 31
0.0
210
0.0
220
0.0
230
1.0
 40
0.804489
 41
1.8892184103411436
 42
3.1415531220680193
  0
ELLIPSE
  5
1F6
100
AcDbEntity
  8
0
370
    13
390
0
 62
     7
100
AcDbEllipse
 10
124.156174
 20
49.133228
 30
0.0
 11
-0.3996200561523438
 21
2.9080047607421875
 31
0.0
210
0.0
220
0.0
230
1.0
 40
0.56411
 41
2.9144381831873551
 42
4.485234404222525
  0
ELLIPSE
  5
1F7
100
AcDbEntity
  8
0
370
    13
390
0
 62
     7
100
AcDbEllipse
 10
102.771271
 20
51.929214
 30
0.0
 11
-0.1248245239257813
 21
-0.4841690063476563
 31
0.0
210
0.0
220
0.0
230
1.0
 40
0.804489
 41
5.030811063930936
 42
6.2831457756561582
  0
LINE
  5
1F8
100
AcDbEntity
  8
0
370
    13
390
0
 62
     7
100
AcDbLine
 10
102.362267
 20
51.873009
 30
0.0
 11
124.176094
 21
46.249161
 31
0.0
210
0.0
220
0.0
230
1.0
  0
ELLIPSE
  5
1F9
100
AcDbEntity
  8
0
370
    13
390
0
 62
     7
100
AcDbEllipse
 10
101.063057
 20
55.248543
 30
0.0
 11
0.4999847412109375
 21
0.0034523010253906
 31
0.0
210
0.0
220
0.0
230
1.0
 40
0.185953
 41
3.1415574402320092
 42
3.7531253087843348
  0
ELLIPSE
  5
1FA
100
AcDbEntity
  8
0
370
    13
390
0
 62
     7
100
AcDbEllipse
 10
102.342346
 20
54.757076
 30
0.0
 11
-0.3996200561523438
 21
2.9080047607421875
 31
0.0
210
0.0
220
0.0
230
1.0
 40
0.56411
 41
1.3436418561233241
 42
2.9144380771005793
  0
ELLIPSE
  5
1FB
100
AcDbEntity
  8
0
370
    13
390
0
 62
     7
100
AcDbEllipse
 10
100.950531
 20
71.538979
 30
0.0
 11
-0.4999847412109375
 21
-0.0034523010253906
 31
0.0
210
0.0
220
0.0
230
1.0
 40
0.185953
 41
6.2831500938209066
 42
6.8947179624741226
  0
LINE
  5
1FC
100
AcDbEntity
  8
0
370
    13
390
0
 62
     7
 48
0.407271
100
AcDbLine
 10
100.541527
 20
71.482773
 30
0.0
 11
100.654053
 21
55.192337
 31
0.0
210
0.0
220
0.0
230
1.0
  0
ELLIPSE
  5
1FD
100
AcDbEntity
  8
0
370
    13
390
0
 62
     7
100
AcDbEllipse
 10
102.22982
 20
71.047508
 30
0.0
 11
-0.3996200561523438
 21
2.9080047607421875
 31
0.0
210
0.0
220
0.0
230
1.0
 40
0.56411
 41
6.0559506146312856
 42
7.626827103101899
  0
LINE
  5
1FE
100
AcDbEntity
  8
0
370
    13
390
0
 62
     7
 48
0.486895
100
AcDbLine
 10
103.723007
 20
74.139328
 30
0.0
 11
122.582123
 21
69.277245
 31
0.0
210
0.0
220
0.0
230
1.0
  0
ELLIPSE
  5
1FF
100
AcDbEntity
  8
0
370
    13
390
0
 62
     7
100
AcDbEllipse
 10
104.093697
 20
73.978722
 30
0.0
 11
-0.1248245239257813
 21
-0.4841690063476563
 31
0.0
210
0.0
220
0.0
230
1.0
 40
0.804489
 41
4.5860858301862599
 42
5.0308081916184637
  0
LINE
  5
200
100
AcDbEntity
  8
0
370
    13
390
0
 62
     7
 48
0.486894
100
AcDbLine
 10
122.543793
 20
69.060425
 30
0.0
 11
103.684685
 21
73.922516
 31
0.0
210
0.0
220
0.0
230
1.0
  0
LINE
  5
201
100
AcDbEntity
  8
0
370
    13
390
0
 62
     7
100
AcDbLine
 10
102.642685
 20
72.225433
 30
0.0
 11
123.612999
 21
66.819054
 31
0.0
210
0.0
220
0.0
230
1.0
  0
ELLIPSE
  5
202
100
AcDbEntity
  8
0
370
    13
390
0
 62
     7
100
AcDbEllipse
 10
123.626862
 20
64.81192
 30
0.0
 11
0.2781143188476563
 21
-2.0237846374511719
 31
0.0
210
0.0
220
0.0
230
1.0
 40
0.56411
 41
1.3436418584721073
 42
2.9144381831360171
  0
LINE
  5
203
100
AcDbEntity
  8
0
370
    13
390
0
 62
     7
 48
0.371245
100
AcDbLine
 10
124.801811
 20
64.509003
 30
0.0
 11
124.904381
 21
49.659557
 31
0.0
210
0.0
220
0.0
230
1.0
  0
ELLIPSE
  5
204
100
AcDbEntity
  8
0
370
    13
390
0
 62
     7
100
AcDbEllipse
 10
123.729416
 20
49.962479
 30
0.0
 11
0.2781143188476563
 21
-2.0238189697265625
 31
0.0
210
0.0
220
0.0
230
1.0
 40
0.56411
 41
6.0560308388396056
 42
7.6268271640425667
  0
LINE
  5
205
100
AcDbEntity
  8
0
370
    13
390
0
 62
     7
100
AcDbLine
 10
102.77301
 20
53.361683
 30
0.0
 11
123.743286
 21
47.955311
 31
0.0
210
0.0
220
0.0
230
1.0
  0
ELLIPSE
  5
206
100
AcDbEntity
  8
0
370
    13
390
0
 62
     7
100
AcDbEllipse
 10
102.75914
 20
55.368847
 30
0.0
 11
0.2781143188476563
 21
-2.0238189697265625
 31
0.0
210
0.0
220
0.0
230
1.0
 40
0.56411
 41
4.4852345114034424
 42
6.0560308366064035
  0
LINE
  5
207
100
AcDbEntity
  8
0
370
    13
390
0
 62
     7
 48
0.371245
100
AcDbLine
 10
101.481606
 20
70.521217
 30
0.0
 11
101.584175
 21
55.671768
 31
0.0
210
0.0
220
0.0
230
1.0
  0
ELLIPSE
  5
208
100
AcDbEntity
  8
0
370
    13
390
0
 62
     7
100
AcDbEllipse
 10
102.656548
 20
70.2183
 30
0.0
 11
0.2781143188476563
 21
-2.0237846374511719
 31
0.0
210
0.0
220
0.0
230
1.0
 40
0.56411
 41
2.9144381851304479
 42
4.4852345097943456
  0
ELLIPSE
  5
209
100
AcDbEntity
  8
0
370
    13
390
0
 62
     7
100
AcDbEllipse
 10
122.952805
 20
69.116638
 30
0.0
 11
0.1248245239257813
 21
0.4841690063476563
 31
0.0
210
0.0
220
0.0
230
1.0
 40
0.804489
 41
1.4444938369177358
 42
1.8892184025411372
  0
ELLIPSE
  5
20A
100
AcDbEntity
  8
0
370
    13
390
0
 62
     7
100
AcDbEllipse
 10
103.051689
 20
72.281639
 30
0.0
 11
-0.1248245239257813
 21
-0.4841690063476563
 31
0.0
210
0.0
220
0.0
230
1.0
 40
0.804489
 41
5.0308110639309378
 42
6.2831726731902569
  0
ELLIPSE
  5
20B
100
AcDbEntity
  8
0
370
    13
390
0
 62
     7
100
AcDbEllipse
 10
124.022003
 20
66.875259
 30
0.0
 11
-0.1248245239257813
 21
-0.4841690063476563
 31
0.0
210
0.0
220
0.0
230
1.0
 40
0.804489
 41
5.0308110639309307
 42
6.2831726731902569
  0
ELLIPSE
  5
20C
100
AcDbEntity
  8
0
370
    13
390
0
 62
     7
100
AcDbEllipse
 10
125.210815
 20
64.565216
 30
0.0
 11
0.4999847412109375
 21
0.0034523010253906
 31
0.0
210
0.0
220
0.0
230
1.0
 40
0.185953
 41
3.1415669480757149
 42
3.7531253081897251
  0
ELLIPSE
  5
20D
100
AcDbEntity
  8
0
370
    13
390
0
 62
     7
100
AcDbEllipse
 10
125.313385
 20
49.715763
 30
0.0
 11
-0.4999847412109375
 21
-0.0034523010253906
 31
0.0
210
0.0
220
0.0
230
1.0
 40
0.185953
 41
6.2831596017168874
 42
6.8947179620741226
  0
ELLIPSE
  5
20E
100
AcDbEntity
  8
0
370
    13
390
0
 62
     7
100
AcDbEllipse
 10
124.124146
 20
50.016724
 30
0.0
 11
0.2100906372070313
 21
-1.5287818908691406
 31
0.0
210
0.0
220
0.0
230
1.0
 40
0.56411
 41
6.0560308370704243
 42
6.3070438008283158
  0
ELLIPSE
  5
20F
100
AcDbEntity
  8
0
370
    13
390
0
 62
     7
100
AcDbEllipse
 10
124.15229
 20
48.011517
 30
0.0
 11
-0.1248245239257813
 21
-0.4841690063476563
 31
0.0
210
0.0
220
0.0
230
1.0
 40
0.804489
 41
3.4949213217400916
 42
5.0308110642795008
  0
LINE
  5
210
100
AcDbEntity
  8
0
370
    13
390
0
 62
     7
100
AcDbLine
 10
103.164345
 20
53.906895
 30
0.0
 11
124.134621
 21
48.500523
 31
0.0
210
0.0
220
0.0
230
1.0
  0
ELLIPSE
  5
211
100
AcDbEntity
  8
0
370
    13
390
0
 62
     7
100
AcDbEllipse
 10
103.182014
 20
53.417889
 30
0.0
 11
-0.1248245239257813
 21
-0.4841690063476563
 31
0.0
210
0.0
220
0.0
230
1.0
 40
0.804489
 41
3.4949213222733353
 42
5.0308110646109361
  0
ELLIPSE
  5
212
100
AcDbEntity
  8
0
370
    13
390
0
 62
     7
100
AcDbEllipse
 10
103.153877
 20
55.423092
 30
0.0
 11
0.2100906372070313
 21
-1.5287818908691406
 31
0.0
210
0.0
220
0.0
230
1.0
 40
0.56411
 41
4.4852345096177828
 42
6.0560308365520052
  0
ELLIPSE
  5
213
100
AcDbEntity
  8
0
370
    13
390
0
 62
     7
100
AcDbEllipse
 10
101.993187
 20
55.727974
 30
0.0
 11
-0.4999847412109375
 21
-0.0034523010253906
 31
0.0
210
0.0
220
0.0
230
1.0
 40
0.185953
 41
0.6115326557378464
 42
2.1474223971946165
  0
LINE
  5
214
100
AcDbEntity
  8
0
370
    13
390
0
 62
     7
 48
0.371245
100
AcDbLine
 10
102.163742
 20
70.501366
 30
0.0
 11
102.266319
 21
55.651917
 31
0.0
210
0.0
220
0.0
230
1.0
  0
ELLIPSE
  5
215
100
AcDbEntity
  8
0
370
    13
390
0
 62
     7
100
AcDbEllipse
 10
101.89061
 20
70.577423
 30
0.0
 11
-0.4999847412109375
 21
-0.0034523010253906
 31
0.0
210
0.0
220
0.0
230
1.0
 40
0.185953
 41
0.6115326556945364
 42
2.147422396951435
  0
ELLIPSE
  5
216
100
AcDbEntity
  8
0
370
    13
390
0
 62
     7
100
AcDbEllipse
 10
103.051277
 20
70.272545
 30
0.0
 11
0.2100830078125
 21
-1.5287437438964844
 31
0.0
210
0.0
220
0.0
230
1.0
 40
0.56411
 41
3.117691563028588
 42
4.4852345098867099
  0
LINE
  5
217
100
AcDbEntity
  8
0
370
    13
390
0
 62
     7
 48
0.008721
100
AcDbLine
 10
124.477959
 20
48.562126
 30
0.0
 11
124.134621
 21
48.500523
 31
0.0
210
0.0
220
0.0
230
1.0
  0
LINE
  5
218
100
AcDbEntity
  8
0
370
    13
390
0
 62
     7
 48
0.027167
100
AcDbLine
 10
103.164345
 20
53.906895
 30
0.0
 11
104.233932
 21
54.098797
 31
0.0
210
0.0
220
0.0
230
1.0
  0
LINE
  5
219
100
AcDbEntity
  8
0
370
    13
390
0
 62
     7
 48
0.027627
100
AcDbLine
 10
103.36248
 20
55.792168
 30
0.0
 11
102.266319
 21
55.651917
 31
0.0
210
0.0
220
0.0
230
1.0
  0
LINE
  5
21A
100
AcDbEntity
  8
0
370
    13
390
0
 62
     7
 48
0.027627
100
AcDbLine
 10
102.163742
 20
70.501366
 30
0.0
 11
103.259903
 21
70.641617
 31
0.0
210
0.0
220
0.0
230
1.0
  0
ELLIPSE
  5
21B
100
AcDbEntity
  8
0
370
    13
390
0
 62
     7
100
AcDbEllipse
 10
104.121178
 20
70.419571
 30
0.0
 11
-0.2038650512695313
 21
1.4834976196289063
 31
0.0
210
0.0
220
0.0
230
1.0
 40
0.56411
 41
0.527496055922792
 42
1.3436418565600883
  0
LINE
  5
21C
100
AcDbEntity
  8
0
370
    35
390
0
 62
     7
 48
0.322696
100
AcDbLine
 10
118.13681
 20
66.038345
 30
0.0
 11
118.227127
 21
53.130833
 31
0.0
210
0.0
220
0.0
230
1.0
  0
LINE
  5
21D
100
AcDbEntity
  8
0
370
    35
390
0
 62
     7
 48
0.032202
100
AcDbLine
 10
118.227127
 20
53.130833
 30
0.0
 11
119.503227
 21
53.306194
 31
0.0
210
0.0
220
0.0
230
1.0
  0
LINE
  5
21E
100
AcDbEntity
  8
0
370
    35
390
0
 62
     7
 48
0.079008
100
AcDbLine
 10
121.287468
 20
52.342243
 30
0.0
 11
118.227127
 21
53.130833
 31
0.0
210
0.0
220
0.0
230
1.0
  0
LINE
  5
21F
100
AcDbEntity
  8
0
370
    35
390
0
 62
     7
 48
0.028752
100
AcDbLine
 10
113.960266
 20
78.536453
 30
0.0
 11
112.824364
 21
78.356514
 31
0.0
210
0.0
220
0.0
230
1.0
  0
LINE
  5
220
100
AcDbEntity
  8
0
370
    35
390
0
 62
     7
 48
0.093079
100
AcDbLine
 10
125.002731
 20
45.782269
 30
0.0
 11
128.701111
 21
46.211075
 31
0.0
210
0.0
220
0.0
230
1.0
  0
LINE
  5
221
100
AcDbEntity
  8
0
370
    35
390
0
 62
     7
 48
0.079305
100
AcDbLine
 10
102.141159
 20
74.502625
 30
0.0
 11
105.273979
 21
75.000816
 31
0.0
210
0.0
220
0.0
230
1.0
  0
POLYLINE
  5
222
100
AcDbEntity
  8
0
370
    35
390
0
 62
     7
100
AcDb2dPolyline
 66
     1
 10
0.0
 20
0.0
 30
0.0
 71
    15
  0
VERTEX
  5
223
100
AcDbEntity
  8
0
370
     0
390
0
100
AcDbVertex
100
AcDb2dVertex
 10
105.893044
 20
75.399635
 30
0.0
  0
VERTEX
  5
224
100
AcDbEntity
  8
0
370
     0
390
0
100
AcDbVertex
100
AcDb2dVertex
 10
105.728386
 20
75.284912
 30
0.0
  0
VERTEX
  5
225
100
AcDbEntity
  8
0
370
     0
390
0
100
AcDbVertex
100
AcDb2dVertex
 10
105.564163
 20
75.176598
 30
0.0
  0
VERTEX
  5
226
100
AcDbEntity
  8
0
370
     0
390
0
100
AcDbVertex
100
AcDb2dVertex
 10
105.400505
 20
75.074799
 30
0.0
  0
VERTEX
  5
227
100
AcDbEntity
  8
0
370
     0
390
0
100
AcDbVertex
100
AcDb2dVertex
 10
105.237534
 20
74.979591
 30
0.0
  0
VERTEX
  5
228
100
AcDbEntity
  8
0
370
     0
390
0
100
AcDbVertex
100
AcDb2dVertex
 10
105.090019
 20
74.898811
 30
0.0
  0
VERTEX
  5
229
100
AcDbEntity
  8
0
370
     0
390
0
100
AcDbVertex
100
AcDb2dVertex
 10
104.94754
 20
74.825737
 30
0.0
  0
VERTEX
  5
22A
100
AcDbEntity
  8
0
370
     0
390
0
100
AcDbVertex
100
AcDb2dVertex
 10
104.805931
 20
74.758003
 30
0.0
  0
VERTEX
  5
22B
100
AcDbEntity
  8
0
370
     0
390
0
100
AcDbVertex
100
AcDb2dVertex
 10
104.665298
 20
74.695656
 30
0.0
  0
VERTEX
  5
22C
100
AcDbEntity
  8
0
370
     0
390
0
100
AcDbVertex
100
AcDb2dVertex
 10
104.528847
 20
74.639938
 30
0.0
  0
VERTEX
  5
22D
100
AcDbEntity
  8
0
370
     0
390
0
100
AcDbVertex
100
AcDb2dVertex
 10
104.396622
 20
74.590538
 30
0.0
  0
VERTEX
  5
22E
100
AcDbEntity
  8
0
370
     0
390
0
100
AcDbVertex
100
AcDb2dVertex
 10
104.241364
 20
74.538437
 30
0.0
  0
VERTEX
  5
22F
100
AcDbEntity
  8
0
370
     0
390
0
100
AcDbVertex
100
AcDb2dVertex
 10
104.152458
 20
74.511536
 30
0.0
  0
VERTEX
  5
230
100
AcDbEntity
  8
0
370
     0
390
0
100
AcDbVertex
100
AcDb2dVertex
 10
104.064224
 20
74.487007
 30
0.0
  0
VERTEX
  5
231
100
AcDbEntity
  8
0
370
     0
390
0
100
AcDbVertex
100
AcDb2dVertex
 10
103.9767
 20
74.464844
 30
0.0
  0
SEQEND
  5
232
100
AcDbEntity
  8
0
370
     0
390
0
  0
ARC
  5
233
100
AcDbEntity
  8
0
370
    35
390
0
 62
     7
100
AcDbCircle
 10
103.382919
 20
76.735405
 30
0.0
 40
2.346841
210
0.0
220
0.0
230
1.0
100
AcDbArc
 50
278.999216
 51
284.461065
  0
POLYLINE
  5
234
100
AcDbEntity
  8
0
370
    35
390
0
 62
     7
100
AcDb2dPolyline
 66
     1
 10
0.0
 20
0.0
 30
0.0
 71
    39
  0
VERTEX
  5
235
100
AcDbEntity
  8
0
370
     0
390
0
100
AcDbVertex
100
AcDb2dVertex
 10
105.893044
 20
75.399635
 30
0.0
  0
VERTEX
  5
236
100
AcDbEntity
  8
0
370
     0
390
0
100
AcDbVertex
100
AcDb2dVertex
 10
106.219109
 20
75.628227
 30
0.0
  0
VERTEX
  5
237
100
AcDbEntity
  8
0
370
     0
390
0
100
AcDbVertex
100
AcDb2dVertex
 10
106.547653
 20
75.849289
 30
0.0
  0
VERTEX
  5
238
100
AcDbEntity
  8
0
370
     0
390
0
100
AcDbVertex
100
AcDb2dVertex
 10
106.712555
 20
75.956749
 30
0.0
  0
VERTEX
  5
239
100
AcDbEntity
  8
0
370
     0
390
0
100
AcDbVertex
100
AcDb2dVertex
 10
106.878525
 20
76.062546
 30
0.0
  0
VERTEX
  5
23A
100
AcDbEntity
  8
0
370
     0
390
0
100
AcDbVertex
100
AcDb2dVertex
 10
107.04454
 20
76.166008
 30
0.0
  0
VERTEX
  5
23B
100
AcDbEntity
  8
0
370
     0
390
0
100
AcDbVertex
100
AcDb2dVertex
 10
107.211609
 20
76.267754
 30
0.0
  0
VERTEX
  5
23C
100
AcDbEntity
  8
0
370
     0
390
0
100
AcDbVertex
100
AcDb2dVertex
 10
107.3787
 20
76.367119
 30
0.0
  0
VERTEX
  5
23D
100
AcDbEntity
  8
0
370
     0
390
0
100
AcDbVertex
100
AcDb2dVertex
 10
107.546837
 20
76.464706
 30
0.0
  0
VERTEX
  5
23E
100
AcDbEntity
  8
0
370
     0
390
0
100
AcDbVertex
100
AcDb2dVertex
 10
107.714973
 20
76.559883
 30
0.0
  0
VERTEX
  5
23F
100
AcDbEntity
  8
0
370
     0
390
0
100
AcDbVertex
100
AcDb2dVertex
 10
107.88414
 20
76.653221
 30
0.0
  0
VERTEX
  5
240
100
AcDbEntity
  8
0
370
     0
390
0
100
AcDbVertex
100
AcDb2dVertex
 10
108.053314
 20
76.744133
 30
0.0
  0
VERTEX
  5
241
100
AcDbEntity
  8
0
370
     0
390
0
100
AcDbVertex
100
AcDb2dVertex
 10
108.223495
 20
76.833145
 30
0.0
  0
VERTEX
  5
242
100
AcDbEntity
  8
0
370
     0
390
0
100
AcDbVertex
100
AcDb2dVertex
 10
108.3937
 20
76.919724
 30
0.0
  0
VERTEX
  5
243
100
AcDbEntity
  8
0
370
     0
390
0
100
AcDbVertex
100
AcDb2dVertex
 10
108.564888
 20
77.004333
 30
0.0
  0
VERTEX
  5
244
100
AcDbEntity
  8
0
370
     0
390
0
100
AcDbVertex
100
AcDb2dVertex
 10
108.736122
 20
77.086525
 30
0.0
  0
VERTEX
  5
245
100
AcDbEntity
  8
0
370
     0
390
0
100
AcDbVertex
100
AcDb2dVertex
 10
108.908318
 20
77.166702
 30
0.0
  0
VERTEX
  5
246
100
AcDbEntity
  8
0
370
     0
390
0
100
AcDbVertex
100
AcDb2dVertex
 10
109.080582
 20
77.244453
 30
0.0
  0
VERTEX
  5
247
100
AcDbEntity
  8
0
370
     0
390
0
100
AcDbVertex
100
AcDb2dVertex
 10
109.253769
 20
77.320145
 30
0.0
  0
VERTEX
  5
248
100
AcDbEntity
  8
0
370
     0
390
0
100
AcDbVertex
100
AcDb2dVertex
 10
109.427078
 20
77.393417
 30
0.0
  0
VERTEX
  5
249
100
AcDbEntity
  8
0
370
     0
390
0
100
AcDbVertex
100
AcDb2dVertex
 10
109.601257
 20
77.464584
 30
0.0
  0
VERTEX
  5
24A
100
AcDbEntity
  8
0
370
     0
390
0
100
AcDbVertex
100
AcDb2dVertex
 10
109.775604
 20
77.533348
 30
0.0
  0
VERTEX
  5
24B
100
AcDbEntity
  8
0
370
     0
390
0
100
AcDbVertex
100
AcDb2dVertex
 10
109.950775
 20
77.599968
 30
0.0
  0
VERTEX
  5
24C
100
AcDbEntity
  8
0
370
     0
390
0
100
AcDbVertex
100
AcDb2dVertex
 10
110.12616
 20
77.664207
 30
0.0
  0
VERTEX
  5
24D
100
AcDbEntity
  8
0
370
     0
390
0
100
AcDbVertex
100
AcDb2dVertex
 10
110.30233
 20
77.726273
 30
0.0
  0
VERTEX
  5
24E
100
AcDbEntity
  8
0
370
     0
390
0
100
AcDbVertex
100
AcDb2dVertex
 10
110.478752
 20
77.785965
 30
0.0
  0
VERTEX
  5
24F
100
AcDbEntity
  8
0
370
     0
390
0
100
AcDbVertex
100
AcDb2dVertex
 10
110.655899
 20
77.84346
 30
0.0
  0
VERTEX
  5
250
100
AcDbEntity
  8
0
370
     0
390
0
100
AcDbVertex
100
AcDb2dVertex
 10
110.833351
 20
77.898605
 30
0.0
  0
VERTEX
  5
251
100
AcDbEntity
  8
0
370
     0
390
0
100
AcDbVertex
100
AcDb2dVertex
 10
111.011475
 20
77.951523
 30
0.0
  0
VERTEX
  5
252
100
AcDbEntity
  8
0
370
     0
390
0
100
AcDbVertex
100
AcDb2dVertex
 10
111.189941
 20
78.002121
 30
0.0
  0
VERTEX
  5
253
100
AcDbEntity
  8
0
370
     0
390
0
100
AcDbVertex
100
AcDb2dVertex
 10
111.369019
 20
78.050476
 30
0.0
  0
VERTEX
  5
254
100
AcDbEntity
  8
0
370
     0
390
0
100
AcDbVertex
100
AcDb2dVertex
 10
111.548492
 20
78.096527
 30
0.0
  0
VERTEX
  5
255
100
AcDbEntity
  8
0
370
     0
390
0
100
AcDbVertex
100
AcDb2dVertex
 10
111.728523
 20
78.14032
 30
0.0
  0
VERTEX
  5
256
100
AcDbEntity
  8
0
370
     0
390
0
100
AcDbVertex
100
AcDb2dVertex
 10
111.908951
 20
78.181831
 30
0.0
  0
VERTEX
  5
257
100
AcDbEntity
  8
0
370
     0
390
0
100
AcDbVertex
100
AcDb2dVertex
 10
112.089882
 20
78.221085
 30
0.0
  0
VERTEX
  5
258
100
AcDbEntity
  8
0
370
     0
390
0
100
AcDbVertex
100
AcDb2dVertex
 10
112.271233
 20
78.258057
 30
0.0
  0
VERTEX
  5
259
100
AcDbEntity
  8
0
370
     0
390
0
100
AcDbVertex
100
AcDb2dVertex
 10
112.453018
 20
78.29277
 30
0.0
  0
VERTEX
  5
25A
100
AcDbEntity
  8
0
370
     0
390
0
100
AcDbVertex
100
AcDb2dVertex
 10
112.638489
 20
78.325798
 30
0.0
  0
VERTEX
  5
25B
100
AcDbEntity
  8
0
370
     0
390
0
100
AcDbVertex
100
AcDb2dVertex
 10
112.824364
 20
78.356514
 30
0.0
  0
SEQEND
  5
25C
100
AcDbEntity
  8
0
370
     0
390
0
  0
ARC
  5
25D
100
AcDbEntity
  8
0
370
    35
390
0
 62
     7
100
AcDbCircle
 10
124.836426
 20
47.254829
 30
0.0
 40
1.482036
210
0.0
220
0.0
230
1.0
100
AcDbArc
 50
255.297619
 51
276.443441
  0
LINE
  5
25E
100
AcDbEntity
  8
0
370
    35
390
0
 62
     7
100
AcDbLine
 10
102.646431
 20
51.445049
 30
0.0
 11
124.460258
 21
45.821201
 31
0.0
210
0.0
220
0.0
230
1.0
  0
POLYLINE
  5
25F
100
AcDbEntity
  8
0
370
    35
390
0
 62
     7
100
AcDb2dPolyline
 66
     1
 10
0.0
 20
0.0
 30
0.0
 71
    37
  0
VERTEX
  5
260
100
AcDbEntity
  8
0
370
     0
390
0
100
AcDbVertex
100
AcDb2dVertex
 10
102.646431
 20
51.445049
 30
0.0
  0
VERTEX
  5
261
100
AcDbEntity
  8
0
370
     0
390
0
100
AcDbVertex
100
AcDb2dVertex
 10
102.584541
 20
51.462337
 30
0.0
  0
VERTEX
  5
262
100
AcDbEntity
  8
0
370
     0
390
0
100
AcDbVertex
100
AcDb2dVertex
 10
102.523232
 20
51.482105
 30
0.0
  0
VERTEX
  5
263
100
AcDbEntity
  8
0
370
     0
390
0
100
AcDbVertex
100
AcDb2dVertex
 10
102.462578
 20
51.504284
 30
0.0
  0
VERTEX
  5
264
100
AcDbEntity
  8
0
370
     0
390
0
100
AcDbVertex
100
AcDb2dVertex
 10
102.402634
 20
51.528809
 30
0.0
  0
VERTEX
  5
265
100
AcDbEntity
  8
0
370
     0
390
0
100
AcDbVertex
100
AcDb2dVertex
 10
102.306259
 20
51.573765
 30
0.0
  0
VERTEX
  5
266
100
AcDbEntity
  8
0
370
     0
390
0
100
AcDbVertex
100
AcDb2dVertex
 10
102.25135
 20
51.602512
 30
0.0
  0
VERTEX
  5
267
100
AcDbEntity
  8
0
370
     0
390
0
100
AcDbVertex
100
AcDb2dVertex
 10
102.197166
 20
51.633163
 30
0.0
  0
VERTEX
  5
268
100
AcDbEntity
  8
0
370
     0
390
0
100
AcDbVertex
100
AcDb2dVertex
 10
102.091103
 20
51.69994
 30
0.0
  0
VERTEX
  5
269
100
AcDbEntity
  8
0
370
     0
390
0
100
AcDbVertex
100
AcDb2dVertex
 10
101.99308
 20
51.769978
 30
0.0
  0
VERTEX
  5
26A
100
AcDbEntity
  8
0
370
     0
390
0
100
AcDbVertex
100
AcDb2dVertex
 10
101.919441
 20
51.828125
 30
0.0
  0
VERTEX
  5
26B
100
AcDbEntity
  8
0
370
     0
390
0
100
AcDbVertex
100
AcDb2dVertex
 10
101.847534
 20
51.889729
 30
0.0
  0
VERTEX
  5
26C
100
AcDbEntity
  8
0
370
     0
390
0
100
AcDbVertex
100
AcDb2dVertex
 10
101.777382
 20
51.954651
 30
0.0
  0
VERTEX
  5
26D
100
AcDbEntity
  8
0
370
     0
390
0
100
AcDbVertex
100
AcDb2dVertex
 10
101.708984
 20
52.022785
 30
0.0
  0
VERTEX
  5
26E
100
AcDbEntity
  8
0
370
     0
390
0
100
AcDbVertex
100
AcDb2dVertex
 10
101.610046
 20
52.130371
 30
0.0
  0
VERTEX
  5
26F
100
AcDbEntity
  8
0
370
     0
390
0
100
AcDbVertex
100
AcDb2dVertex
 10
101.515106
 20
52.244526
 30
0.0
  0
VERTEX
  5
270
100
AcDbEntity
  8
0
370
     0
390
0
100
AcDbVertex
100
AcDb2dVertex
 10
101.454056
 20
52.3241
 30
0.0
  0
VERTEX
  5
271
100
AcDbEntity
  8
0
370
     0
390
0
100
AcDbVertex
100
AcDb2dVertex
 10
101.399734
 20
52.399319
 30
0.0
  0
VERTEX
  5
272
100
AcDbEntity
  8
0
370
     0
390
0
100
AcDbVertex
100
AcDb2dVertex
 10
101.346947
 20
52.476696
 30
0.0
  0
VERTEX
  5
273
100
AcDbEntity
  8
0
370
     0
390
0
100
AcDbVertex
100
AcDb2dVertex
 10
101.2957
 20
52.556164
 30
0.0
  0
VERTEX
  5
274
100
AcDbEntity
  8
0
370
     0
390
0
100
AcDbVertex
100
AcDb2dVertex
 10
101.228531
 20
52.667423
 30
0.0
  0
VERTEX
  5
275
100
AcDbEntity
  8
0
370
     0
390
0
100
AcDbVertex
100
AcDb2dVertex
 10
101.151726
 20
52.805706
 30
0.0
  0
VERTEX
  5
276
100
AcDbEntity
  8
0
370
     0
390
0
100
AcDbVertex
100
AcDb2dVertex
 10
101.079224
 20
52.948761
 30
0.0
  0
VERTEX
  5
277
100
AcDbEntity
  8
0
370
     0
390
0
100
AcDbVertex
100
AcDb2dVertex
 10
101.011116
 20
53.096199
 30
0.0
  0
VERTEX
  5
278
100
AcDbEntity
  8
0
370
     0
390
0
100
AcDbVertex
100
AcDb2dVertex
 10
100.947502
 20
53.247669
 30
0.0
  0
VERTEX
  5
279
100
AcDbEntity
  8
0
370
     0
390
0
100
AcDbVertex
100
AcDb2dVertex
 10
100.888458
 20
53.40284
 30
0.0
  0
VERTEX
  5
27A
100
AcDbEntity
  8
0
370
     0
390
0
100
AcDbVertex
100
AcDb2dVertex
 10
100.834068
 20
53.561352
 30
0.0
  0
VERTEX
  5
27B
100
AcDbEntity
  8
0
370
     0
390
0
100
AcDbVertex
100
AcDb2dVertex
 10
100.784424
 20
53.722801
 30
0.0
  0
VERTEX
  5
27C
100
AcDbEntity
  8
0
370
     0
390
0
100
AcDbVertex
100
AcDb2dVertex
 10
100.739594
 20
53.886864
 30
0.0
  0
VERTEX
  5
27D
100
AcDbEntity
  8
0
370
     0
390
0
100
AcDbVertex
100
AcDb2dVertex
 10
100.699669
 20
54.053097
 30
0.0
  0
VERTEX
  5
27E
100
AcDbEntity
  8
0
370
     0
390
0
100
AcDbVertex
100
AcDb2dVertex
 10
100.664726
 20
54.221153
 30
0.0
  0
VERTEX
  5
27F
100
AcDbEntity
  8
0
370
     0
390
0
100
AcDbVertex
100
AcDb2dVertex
 10
100.634834
 20
54.390617
 30
0.0
  0
VERTEX
  5
280
100
AcDbEntity
  8
0
370
     0
390
0
100
AcDbVertex
100
AcDb2dVertex
 10
100.610046
 20
54.561092
 30
0.0
  0
VERTEX
  5
281
100
AcDbEntity
  8
0
370
     0
390
0
100
AcDbVertex
100
AcDb2dVertex
 10
100.590439
 20
54.732182
 30
0.0
  0
VERTEX
  5
282
100
AcDbEntity
  8
0
370
     0
390
0
100
AcDbVertex
100
AcDb2dVertex
 10
100.576042
 20
54.903477
 30
0.0
  0
VERTEX
  5
283
100
AcDbEntity
  8
0
370
     0
390
0
100
AcDbVertex
100
AcDb2dVertex
 10
100.56691
 20
55.074589
 30
0.0
  0
VERTEX
  5
284
100
AcDbEntity
  8
0
370
     0
390
0
100
AcDbVertex
100
AcDb2dVertex
 10
100.563072
 20
55.24509
 30
0.0
  0
SEQEND
  5
285
100
AcDbEntity
  8
0
370
     0
390
0
  0
LINE
  5
286
100
AcDbEntity
  8
0
370
    35
390
0
 62
     7
 48
0.407271
100
AcDbLine
 10
100.450546
 20
71.535522
 30
0.0
 11
100.563072
 21
55.24509
 31
0.0
210
0.0
220
0.0
230
1.0
  0
POLYLINE
  5
287
100
AcDbEntity
  8
0
370
    35
390
0
 62
     7
100
AcDb2dPolyline
 66
     1
 10
0.0
 20
0.0
 30
0.0
 71
    38
  0
VERTEX
  5
288
100
AcDbEntity
  8
0
370
     0
390
0
100
AcDbVertex
100
AcDb2dVertex
 10
102.141159
 20
74.502625
 30
0.0
  0
VERTEX
  5
289
100
AcDbEntity
  8
0
370
     0
390
0
100
AcDbVertex
100
AcDb2dVertex
 10
102.083061
 20
74.492157
 30
0.0
  0
VERTEX
  5
28A
100
AcDbEntity
  8
0
370
     0
390
0
100
AcDbVertex
100
AcDb2dVertex
 10
102.025383
 20
74.479294
 30
0.0
  0
VERTEX
  5
28B
100
AcDbEntity
  8
0
370
     0
390
0
100
AcDbVertex
100
AcDb2dVertex
 10
101.962631
 20
74.462448
 30
0.0
  0
VERTEX
  5
28C
100
AcDbEntity
  8
0
370
     0
390
0
100
AcDbVertex
100
AcDb2dVertex
 10
101.900665
 20
74.44281
 30
0.0
  0
VERTEX
  5
28D
100
AcDbEntity
  8
0
370
     0
390
0
100
AcDbVertex
100
AcDb2dVertex
 10
101.846024
 20
74.422943
 30
0.0
  0
VERTEX
  5
28E
100
AcDbEntity
  8
0
370
     0
390
0
100
AcDbVertex
100
AcDb2dVertex
 10
101.79216
 20
74.400925
 30
0.0
  0
VERTEX
  5
28F
100
AcDbEntity
  8
0
370
     0
390
0
100
AcDbVertex
100
AcDb2dVertex
 10
101.739136
 20
74.376831
 30
0.0
  0
VERTEX
  5
290
100
AcDbEntity
  8
0
370
     0
390
0
100
AcDbVertex
100
AcDb2dVertex
 10
101.660904
 20
74.336678
 30
0.0
  0
VERTEX
  5
291
100
AcDbEntity
  8
0
370
     0
390
0
100
AcDbVertex
100
AcDb2dVertex
 10
101.597488
 20
74.299896
 30
0.0
  0
VERTEX
  5
292
100
AcDbEntity
  8
0
370
     0
390
0
100
AcDbVertex
100
AcDb2dVertex
 10
101.535675
 20
74.260178
 30
0.0
  0
VERTEX
  5
293
100
AcDbEntity
  8
0
370
     0
390
0
100
AcDbVertex
100
AcDb2dVertex
 10
101.47551
 20
74.217628
 30
0.0
  0
VERTEX
  5
294
100
AcDbEntity
  8
0
370
     0
390
0
100
AcDbVertex
100
AcDb2dVertex
 10
101.386345
 20
74.146973
 30
0.0
  0
VERTEX
  5
295
100
AcDbEntity
  8
0
370
     0
390
0
100
AcDbVertex
100
AcDb2dVertex
 10
101.327614
 20
74.095047
 30
0.0
  0
VERTEX
  5
296
100
AcDbEntity
  8
0
370
     0
390
0
100
AcDbVertex
100
AcDb2dVertex
 10
101.270844
 20
74.040428
 30
0.0
  0
VERTEX
  5
297
100
AcDbEntity
  8
0
370
     0
390
0
100
AcDbVertex
100
AcDb2dVertex
 10
101.216049
 20
73.983231
 30
0.0
  0
VERTEX
  5
298
100
AcDbEntity
  8
0
370
     0
390
0
100
AcDbVertex
100
AcDb2dVertex
 10
101.163239
 20
73.923561
 30
0.0
  0
VERTEX
  5
299
100
AcDbEntity
  8
0
370
     0
390
0
100
AcDbVertex
100
AcDb2dVertex
 10
101.100716
 20
73.846588
 30
0.0
  0
VERTEX
  5
29A
100
AcDbEntity
  8
0
370
     0
390
0
100
AcDbVertex
100
AcDb2dVertex
 10
101.044846
 20
73.771324
 30
0.0
  0
VERTEX
  5
29B
100
AcDbEntity
  8
0
370
     0
390
0
100
AcDbVertex
100
AcDb2dVertex
 10
100.991592
 20
73.693184
 30
0.0
  0
VERTEX
  5
29C
100
AcDbEntity
  8
0
370
     0
390
0
100
AcDbVertex
100
AcDb2dVertex
 10
100.940926
 20
73.612282
 30
0.0
  0
VERTEX
  5
29D
100
AcDbEntity
  8
0
370
     0
390
0
100
AcDbVertex
100
AcDb2dVertex
 10
100.892372
 20
73.527916
 30
0.0
  0
VERTEX
  5
29E
100
AcDbEntity
  8
0
370
     0
390
0
100
AcDbVertex
100
AcDb2dVertex
 10
100.852676
 20
73.453239
 30
0.0
  0
VERTEX
  5
29F
100
AcDbEntity
  8
0
370
     0
390
0
100
AcDbVertex
100
AcDb2dVertex
 10
100.814888
 20
73.376724
 30
0.0
  0
VERTEX
  5
2A0
100
AcDbEntity
  8
0
370
     0
390
0
100
AcDbVertex
100
AcDb2dVertex
 10
100.778999
 20
73.298447
 30
0.0
  0
VERTEX
  5
2A1
100
AcDbEntity
  8
0
370
     0
390
0
100
AcDbVertex
100
AcDb2dVertex
 10
100.726402
 20
73.171959
 30
0.0
  0
VERTEX
  5
2A2
100
AcDbEntity
  8
0
370
     0
390
0
100
AcDbVertex
100
AcDb2dVertex
 10
100.674278
 20
73.029366
 30
0.0
  0
VERTEX
  5
2A3
100
AcDbEntity
  8
0
370
     0
390
0
100
AcDbVertex
100
AcDb2dVertex
 10
100.627647
 20
72.882378
 30
0.0
  0
VERTEX
  5
2A4
100
AcDbEntity
  8
0
370
     0
390
0
100
AcDbVertex
100
AcDb2dVertex
 10
100.602455
 20
72.792809
 30
0.0
  0
VERTEX
  5
2A5
100
AcDbEntity
  8
0
370
     0
390
0
100
AcDbVertex
100
AcDb2dVertex
 10
100.579048
 20
72.701248
 30
0.0
  0
VERTEX
  5
2A6
100
AcDbEntity
  8
0
370
     0
390
0
100
AcDbVertex
100
AcDb2dVertex
 10
100.55761
 20
72.608376
 30
0.0
  0
VERTEX
  5
2A7
100
AcDbEntity
  8
0
370
     0
390
0
100
AcDbVertex
100
AcDb2dVertex
 10
100.538124
 20
72.514259
 30
0.0
  0
VERTEX
  5
2A8
100
AcDbEntity
  8
0
370
     0
390
0
100
AcDbVertex
100
AcDb2dVertex
 10
100.511734
 20
72.365692
 30
0.0
  0
VERTEX
  5
2A9
100
AcDbEntity
  8
0
370
     0
390
0
100
AcDbVertex
100
AcDb2dVertex
 10
100.488724
 20
72.203926
 30
0.0
  0
VERTEX
  5
2AA
100
AcDbEntity
  8
0
370
     0
390
0
100
AcDbVertex
100
AcDb2dVertex
 10
100.471107
 20
72.03965
 30
0.0
  0
VERTEX
  5
2AB
100
AcDbEntity
  8
0
370
     0
390
0
100
AcDbVertex
100
AcDb2dVertex
 10
100.458885
 20
71.87323
 30
0.0
  0
VERTEX
  5
2AC
100
AcDbEntity
  8
0
370
     0
390
0
100
AcDbVertex
100
AcDb2dVertex
 10
100.452042
 20
71.705086
 30
0.0
  0
VERTEX
  5
2AD
100
AcDbEntity
  8
0
370
     0
390
0
100
AcDbVertex
100
AcDb2dVertex
 10
100.450546
 20
71.535522
 30
0.0
  0
SEQEND
  5
2AE
100
AcDbEntity
  8
0
370
     0
390
0
  0
LINE
  5
2AF
100
AcDbEntity
  8
0
370
    35
390
0
 62
     7
 48
0.000199
100
AcDbLine
 10
103.9767
 20
74.464844
 30
0.0
 11
103.968971
 21
74.462921
 31
0.0
210
0.0
220
0.0
230
1.0
  0
LINE
  5
2B0
100
AcDbEntity
  8
0
370
    35
390
0
 62
     7
100
AcDbLine
 10
102.926865
 20
71.79747
 30
0.0
 11
123.897179
 21
66.39109
 31
0.0
210
0.0
220
0.0
230
1.0
  0
POLYLINE
  5
2B1
100
AcDbEntity
  8
0
370
    35
390
0
 62
     7
100
AcDb2dPolyline
 66
     1
 10
0.0
 20
0.0
 30
0.0
 71
    23
  0
VERTEX
  5
2B2
100
AcDbEntity
  8
0
370
     0
390
0
100
AcDbVertex
100
AcDb2dVertex
 10
124.710831
 20
64.56176
 30
0.0
  0
VERTEX
  5
2B3
100
AcDbEntity
  8
0
370
     0
390
0
100
AcDbVertex
100
AcDb2dVertex
 10
124.707413
 20
64.685066
 30
0.0
  0
VERTEX
  5
2B4
100
AcDbEntity
  8
0
370
     0
390
0
100
AcDbVertex
100
AcDb2dVertex
 10
124.698853
 20
64.809547
 30
0.0
  0
VERTEX
  5
2B5
100
AcDbEntity
  8
0
370
     0
390
0
100
AcDbVertex
100
AcDb2dVertex
 10
124.685188
 20
64.934334
 30
0.0
  0
VERTEX
  5
2B6
100
AcDbEntity
  8
0
370
     0
390
0
100
AcDbVertex
100
AcDb2dVertex
 10
124.666489
 20
65.058578
 30
0.0
  0
VERTEX
  5
2B7
100
AcDbEntity
  8
0
370
     0
390
0
100
AcDbVertex
100
AcDb2dVertex
 10
124.642883
 20
65.181465
 30
0.0
  0
VERTEX
  5
2B8
100
AcDbEntity
  8
0
370
     0
390
0
100
AcDbVertex
100
AcDb2dVertex
 10
124.614563
 20
65.302124
 30
0.0
  0
VERTEX
  5
2B9
100
AcDbEntity
  8
0
370
     0
390
0
100
AcDbVertex
100
AcDb2dVertex
 10
124.581757
 20
65.419785
 30
0.0
  0
VERTEX
  5
2BA
100
AcDbEntity
  8
0
370
     0
390
0
100
AcDbVertex
100
AcDb2dVertex
 10
124.544762
 20
65.533585
 30
0.0
  0
VERTEX
  5
2BB
100
AcDbEntity
  8
0
370
     0
390
0
100
AcDbVertex
100
AcDb2dVertex
 10
124.503891
 20
65.642822
 30
0.0
  0
VERTEX
  5
2BC
100
AcDbEntity
  8
0
370
     0
390
0
100
AcDbVertex
100
AcDb2dVertex
 10
124.459595
 20
65.746643
 30
0.0
  0
VERTEX
  5
2BD
100
AcDbEntity
  8
0
370
     0
390
0
100
AcDbVertex
100
AcDb2dVertex
 10
124.415741
 20
65.837669
 30
0.0
  0
VERTEX
  5
2BE
100
AcDbEntity
  8
0
370
     0
390
0
100
AcDbVertex
100
AcDb2dVertex
 10
124.362534
 20
65.935387
 30
0.0
  0
VERTEX
  5
2BF
100
AcDbEntity
  8
0
370
     0
390
0
100
AcDbVertex
100
AcDb2dVertex
 10
124.310883
 20
66.019043
 30
0.0
  0
VERTEX
  5
2C0
100
AcDbEntity
  8
0
370
     0
390
0
100
AcDbVertex
100
AcDb2dVertex
 10
124.258133
 20
66.094604
 30
0.0
  0
VERTEX
  5
2C1
100
AcDbEntity
  8
0
370
     0
390
0
100
AcDbVertex
100
AcDb2dVertex
 10
124.204872
 20
66.161865
 30
0.0
  0
VERTEX
  5
2C2
100
AcDbEntity
  8
0
370
     0
390
0
100
AcDbVertex
100
AcDb2dVertex
 10
124.152206
 20
66.220161
 30
0.0
  0
VERTEX
  5
2C3
100
AcDbEntity
  8
0
370
     0
390
0
100
AcDbVertex
100
AcDb2dVertex
 10
124.100746
 20
66.269638
 30
0.0
  0
VERTEX
  5
2C4
100
AcDbEntity
  8
0
370
     0
390
0
100
AcDbVertex
100
AcDb2dVertex
 10
124.051849
 20
66.309921
 30
0.0
  0
VERTEX
  5
2C5
100
AcDbEntity
  8
0
370
     0
390
0
100
AcDbVertex
100
AcDb2dVertex
 10
124.012527
 20
66.337524
 30
0.0
  0
VERTEX
  5
2C6
100
AcDbEntity
  8
0
370
     0
390
0
100
AcDbVertex
100
AcDb2dVertex
 10
123.964821
 20
66.364975
 30
0.0
  0
VERTEX
  5
2C7
100
AcDbEntity
  8
0
370
     0
390
0
100
AcDbVertex
100
AcDb2dVertex
 10
123.921272
 20
66.383698
 30
0.0
  0
VERTEX
  5
2C8
100
AcDbEntity
  8
0
370
     0
390
0
100
AcDbVertex
100
AcDb2dVertex
 10
123.897179
 20
66.39109
 30
0.0
  0
SEQEND
  5
2C9
100
AcDbEntity
  8
0
370
     0
390
0
  0
LINE
  5
2CA
100
AcDbEntity
  8
0
370
    35
390
0
 62
     7
 48
0.371245
100
AcDbLine
 10
124.710831
 20
64.56176
 30
0.0
 11
124.8134
 21
49.712315
 31
0.0
210
0.0
220
0.0
230
1.0
  0
POLYLINE
  5
2CB
100
AcDbEntity
  8
0
370
    35
390
0
 62
     7
100
AcDb2dPolyline
 66
     1
 10
0.0
 20
0.0
 30
0.0
 71
    19
  0
VERTEX
  5
2CC
100
AcDbEntity
  8
0
370
     0
390
0
100
AcDbVertex
100
AcDb2dVertex
 10
124.354752
 20
48.491203
 30
0.0
  0
VERTEX
  5
2CD
100
AcDbEntity
  8
0
370
     0
390
0
100
AcDbVertex
100
AcDb2dVertex
 10
124.381325
 20
48.498447
 30
0.0
  0
VERTEX
  5
2CE
100
AcDbEntity
  8
0
370
     0
390
0
100
AcDbVertex
100
AcDb2dVertex
 10
124.41452
 20
48.51405
 30
0.0
  0
VERTEX
  5
2CF
100
AcDbEntity
  8
0
370
     0
390
0
100
AcDbVertex
100
AcDb2dVertex
 10
124.449371
 20
48.537556
 30
0.0
  0
VERTEX
  5
2D0
100
AcDbEntity
  8
0
370
     0
390
0
100
AcDbVertex
100
AcDb2dVertex
 10
124.47728
 20
48.561337
 30
0.0
  0
VERTEX
  5
2D1
100
AcDbEntity
  8
0
370
     0
390
0
100
AcDbVertex
100
AcDb2dVertex
 10
124.509132
 20
48.593853
 30
0.0
  0
VERTEX
  5
2D2
100
AcDbEntity
  8
0
370
     0
390
0
100
AcDbVertex
100
AcDb2dVertex
 10
124.547638
 20
48.641125
 30
0.0
  0
VERTEX
  5
2D3
100
AcDbEntity
  8
0
370
     0
390
0
100
AcDbVertex
100
AcDb2dVertex
 10
124.583969
 20
48.694489
 30
0.0
  0
VERTEX
  5
2D4
100
AcDbEntity
  8
0
370
     0
390
0
100
AcDbVertex
100
AcDb2dVertex
 10
124.61869
 20
48.754665
 30
0.0
  0
VERTEX
  5
2D5
100
AcDbEntity
  8
0
370
     0
390
0
100
AcDbVertex
100
AcDb2dVertex
 10
124.65876
 20
48.837681
 30
0.0
  0
VERTEX
  5
2D6
100
AcDbEntity
  8
0
370
     0
390
0
100
AcDbVertex
100
AcDb2dVertex
 10
124.68763
 20
48.909023
 30
0.0
  0
VERTEX
  5
2D7
100
AcDbEntity
  8
0
370
     0
390
0
100
AcDbVertex
100
AcDb2dVertex
 10
124.717651
 20
48.997135
 30
0.0
  0
VERTEX
  5
2D8
100
AcDbEntity
  8
0
370
     0
390
0
100
AcDbVertex
100
AcDb2dVertex
 10
124.744492
 20
49.093216
 30
0.0
  0
VERTEX
  5
2D9
100
AcDbEntity
  8
0
370
     0
390
0
100
AcDbVertex
100
AcDb2dVertex
 10
124.769737
 20
49.207764
 30
0.0
  0
VERTEX
  5
2DA
100
AcDbEntity
  8
0
370
     0
390
0
100
AcDbVertex
100
AcDb2dVertex
 10
124.785721
 20
49.302071
 30
0.0
  0
VERTEX
  5
2DB
100
AcDbEntity
  8
0
370
     0
390
0
100
AcDbVertex
100
AcDb2dVertex
 10
124.799728
 20
49.41465
 30
0.0
  0
VERTEX
  5
2DC
100
AcDbEntity
  8
0
370
     0
390
0
100
AcDbVertex
100
AcDb2dVertex
 10
124.808945
 20
49.531357
 30
0.0
  0
VERTEX
  5
2DD
100
AcDbEntity
  8
0
370
     0
390
0
100
AcDbVertex
100
AcDb2dVertex
 10
124.813187
 20
49.65134
 30
0.0
  0
VERTEX
  5
2DE
100
AcDbEntity
  8
0
370
     0
390
0
100
AcDbVertex
100
AcDb2dVertex
 10
124.8134
 20
49.712315
 30
0.0
  0
SEQEND
  5
2DF
100
AcDbEntity
  8
0
370
     0
390
0
  0
ARC
  5
2E0
100
AcDbEntity
  8
0
370
    35
390
0
 62
     7
100
AcDbCircle
 10
102.876244
 20
71.61515
 30
0.0
 40
0.189148
210
0.0
220
0.0
230
1.0
100
AcDbArc
 50
74.483739
 51
94.360423
  0
ELLIPSE
  5
2E1
100
AcDbEntity
  8
0
370
    35
390
0
 62
     7
100
AcDbEllipse
 10
104.1147
 20
70.32843
 30
0.0
 11
-0.1884307861328125
 21
1.48553466796875
 31
0.0
210
0.0
220
0.0
230
1.0
 40
0.565725
 41
0.4395057850607934
 42
1.3494394340511329
  0
LINE
  5
2E2
100
AcDbEntity
  8
0
370
    35
390
0
 62
     7
 48
0.079886
100
AcDbLine
 10
118.193153
 20
53.03159
 30
0.0
 11
121.28743
 21
52.233852
 31
0.0
210
0.0
220
0.0
230
1.0
  0
LINE
  5
2E3
100
AcDbEntity
  8
0
370
    35
390
0
 62
     7
 48
0.087911
100
AcDbLine
 10
121.29229
 20
65.224831
 30
0.0
 11
117.887207
 21
66.102699
 31
0.0
210
0.0
220
0.0
230
1.0
  0
LINE
  5
2E4
100
AcDbEntity
  8
0
370
    35
390
0
 62
     7
 48
0.327763
100
AcDbLine
 10
121.287384
 20
52.114292
 30
0.0
 11
121.29229
 21
65.224831
 31
0.0
210
0.0
220
0.0
230
1.0
  0
LINE
  5
2E5
100
AcDbEntity
  8
0
370
    35
390
0
 62
     7
 48
0.087911
100
AcDbLine
 10
117.882301
 20
52.992161
 30
0.0
 11
121.287384
 21
52.114292
 31
0.0
210
0.0
220
0.0
230
1.0
  0
LINE
  5
2E6
100
AcDbEntity
  8
0
370
    35
390
0
 62
     7
 48
0.327763
100
AcDbLine
 10
117.887207
 20
66.102699
 30
0.0
 11
117.882301
 21
52.992161
 31
0.0
210
0.0
220
0.0
230
1.0
  0
LINE
  5
2E7
100
AcDbEntity
  8
0
370
    35
390
0
 62
     7
 48
0.007834
100
AcDbLine
 10
118.193153
 20
53.03159
 30
0.0
 11
117.882301
 21
52.992161
 31
0.0
210
0.0
220
0.0
230
1.0
  0
ELLIPSE
  5
2E8
100
AcDbEntity
  8
0
370
    35
390
0
 62
     7
100
AcDbEllipse
 10
173.228607
 20
109.367516
 30
0.0
 11
-0.5015106201171875
 21
-2.0137405395507813
 31
0.0
210
0.0
220
0.0
230
1.0
 40
0.808892
 41
3.1415534827907798
 42
4.5431868011277343
  0
ELLIPSE
  5
2E9
100
AcDbEntity
  8
0
370
    35
390
0
 62
     7
100
AcDbEllipse
 10
173.51387
 20
109.296471
 30
0.0
 11
-0.5015106201171875
 21
-2.0137405395507813
 31
0.0
210
0.0
220
0.0
230
1.0
 40
0.808892
 41
6.2831461363805632
 42
9.4247387899703643
  0
ELLIPSE
  5
2EA
100
AcDbEntity
  8
0
370
    35
390
0
 62
     7
100
AcDbEllipse
 10
173.51387
 20
109.296471
 30
0.0
 11
-0.5015106201171875
 21
-2.0137405395507813
 31
0.0
210
0.0
220
0.0
230
1.0
 40
0.808892
 41
3.1415534827907776
 42
4.5431868011277343
  0
ELLIPSE
  5
2EB
100
AcDbEntity
  8
0
370
    35
390
0
 62
     7
100
AcDbEllipse
 10
173.228607
 20
109.367516
 30
0.0
 11
-0.5015106201171875
 21
-2.0137405395507813
 31
0.0
210
0.0
220
0.0
230
1.0
 40
0.808892
 41
4.5431868011277343
 42
6.2831461363805658
  0
ELLIPSE
  5
2EC
100
AcDbEntity
  8
0
370
    35
390
0
 62
     7
100
AcDbEllipse
 10
173.51387
 20
109.296471
 30
0.0
 11
-0.5015106201171875
 21
-2.0137405395507813
 31
0.0
210
0.0
220
0.0
230
1.0
 40
0.808892
 41
4.5431868011277343
 42
6.2831461363805632
  0
LINE
  5
2ED
100
AcDbEntity
  8
0
370
    35
390
0
 62
     7
 48
0.107978
100
AcDbLine
 10
173.028625
 20
103.007591
 30
0.0
 11
169.143646
 21
104.894882
 31
0.0
210
0.0
220
0.0
230
1.0
  0
LINE
  5
2EE
100
AcDbEntity
  8
0
370
    35
390
0
 62
     7
 48
0.257557
100
AcDbLine
 10
173.028625
 20
103.007591
 30
0.0
 11
176.863327
 21
112.569611
 31
0.0
210
0.0
220
0.0
230
1.0
  0
LINE
  5
2EF
100
AcDbEntity
  8
0
370
    13
390
0
 62
     7
 48
0.107978
100
AcDbLine
 10
172.978363
 20
114.456902
 30
0.0
 11
176.863327
 21
112.569611
 31
0.0
210
0.0
220
0.0
230
1.0
  0
LINE
  5
2F0
100
AcDbEntity
  8
0
370
    35
390
0
 62
     7
 48
0.257557
100
AcDbLine
 10
169.143646
 20
104.894882
 30
0.0
 11
172.978363
 21
114.456902
 31
0.0
210
0.0
220
0.0
230
1.0
  0
ELLIPSE
  5
2F1
100
AcDbEntity
  8
0
370
    35
390
0
 62
     7
100
AcDbEllipse
 10
173.51387
 20
109.296471
 30
0.0
 11
-0.3394775390625
 21
-1.3631248474121094
 31
0.0
210
0.0
220
0.0
230
1.0
 40
0.808892
 41
6.2831461363805676
 42
9.4247387899703625
  0
ELLIPSE
  5
2F2
100
AcDbEntity
  8
0
370
    35
390
0
 62
     7
100
AcDbEllipse
 10
173.51387
 20
109.296471
 30
0.0
 11
-0.3394775390625
 21
-1.3631248474121094
 31
0.0
210
0.0
220
0.0
230
1.0
 40
0.808892
 41
3.1415534827907745
 42
4.5431868011277343
  0
ELLIPSE
  5
2F3
100
AcDbEntity
  8
0
370
    35
390
0
 62
     7
100
AcDbEllipse
 10
173.51387
 20
109.296471
 30
0.0
 11
-0.3394775390625
 21
-1.3631248474121094
 31
0.0
210
0.0
220
0.0
230
1.0
 40
0.808892
 41
4.5431868011277343
 42
6.2831461363805676
  0
LINE
  5
2F4
100
AcDbEntity
  8
0
370
    35
390
0
 62
     7
100
AcDbLine
 10
158.358078
 20
78.000534
 30
0.0
 11
169.080978
 21
104.738594
 31
0.0
210
0.0
220
0.0
230
1.0
  0
ELLIPSE
  5
2F5
100
AcDbEntity
  8
0
370
    35
390
0
 62
     7
100
AcDbEllipse
 10
151.777313
 20
79.63945
 30
0.0
 11
-5.0401382446289062
 21
-10.375038146972656
 31
0.0
210
0.0
220
0.0
230
1.0
 40
0.579561
 41
0.1217955850651758
 42
1.6925919118600736
  0
LINE
  5
2F6
100
AcDbEntity
  8
0
370
    35
390
0
 62
     7
100
AcDbLine
 10
147.505066
 20
68.986374
 30
0.0
 11
124.270844
 21
74.772758
 31
0.0
210
0.0
220
0.0
230
1.0
  0
LINE
  5
2F7
100
AcDbEntity
  8
0
370
    35
390
0
 62
     7
 48
0.426927
100
AcDbLine
 10
111.244179
 20
78.016991
 30
0.0
 11
94.673256
 21
82.143913
 31
0.0
210
0.0
220
0.0
230
1.0
  0
ELLIPSE
  5
2F8
100
AcDbEntity
  8
0
370
    35
390
0
 62
     7
100
AcDbEllipse
 10
98.690727
 20
92.161667
 30
0.0
 11
-4.7395553588867187
 21
-9.7563056945800781
 31
0.0
210
0.0
220
0.0
230
1.0
 40
0.579561
 41
0.0000430325408831
 42
0.1217955850651782
  0
ELLIPSE
  5
2F9
100
AcDbEntity
  8
0
370
    35
390
0
 62
     7
100
AcDbEllipse
 10
98.690727
 20
92.161667
 30
0.0
 11
-4.7395553588867187
 21
-9.7563056945800781
 31
0.0
210
0.0
220
0.0
230
1.0
 40
0.579561
 41
5.7438581118074277
 42
6.2832283397204689
  0
ELLIPSE
  5
2FA
100
AcDbEntity
  8
0
370
    35
390
0
 62
     7
100
AcDbEllipse
 10
113.641121
 20
128.158661
 30
0.0
 11
-5.09771728515625
 21
-10.493568420410156
 31
0.0
210
0.0
220
0.0
230
1.0
 40
0.579561
 41
3.2633882386549722
 42
3.6889943396826452
  0
LINE
  5
2FB
100
AcDbEntity
  8
0
370
    35
390
0
 62
     7
100
AcDbLine
 10
117.962189
 20
138.933441
 30
0.0
 11
152.85643
 21
130.243164
 31
0.0
210
0.0
220
0.0
230
1.0
  0
LINE
  5
2FC
100
AcDbEntity
  8
0
370
    35
390
0
 62
     7
 48
0.14357
100
AcDbLine
 10
152.85643
 20
130.243164
 30
0.0
 11
158.429001
 21
128.855347
 31
0.0
210
0.0
220
0.0
230
1.0
  0
LINE
  5
2FD
100
AcDbEntity
  8
0
370
    35
390
0
 62
     7
 48
0.320151
100
AcDbLine
 10
158.429001
 20
128.855347
 30
0.0
 11
170.855453
 21
125.76059
 31
0.0
210
0.0
220
0.0
230
1.0
  0
ELLIPSE
  5
2FE
100
AcDbEntity
  8
0
370
    35
390
0
 62
     7
100
AcDbEllipse
 10
166.926697
 20
115.964043
 30
0.0
 11
-4.6349029541015625
 21
-9.5408668518066406
 31
0.0
210
0.0
220
0.0
230
1.0
 40
0.579561
 41
3.1416356861306753
 42
3.26338823865497
  0
ELLIPSE
  5
2FF
100
AcDbEntity
  8
0
370
    35
390
0
 62
     7
100
AcDbEllipse
 10
166.926697
 20
115.964043
 30
0.0
 11
-4.6349029541015625
 21
-9.5408668518066406
 31
0.0
210
0.0
220
0.0
230
1.0
 40
0.579561
 41
1.6925919118600743
 42
3.1416356861306753
  0
LINE
  5
300
100
AcDbEntity
  8
0
370
    35
390
0
 62
     7
 48
0.014699
100
AcDbLine
 10
169.143646
 20
104.894882
 30
0.0
 11
168.57312
 21
105.036972
 31
0.0
210
0.0
220
0.0
230
1.0
  0
LINE
  5
301
100
AcDbEntity
  8
0
370
    35
390
0
 62
     7
 48
0.257557
100
AcDbLine
 10
168.57312
 20
105.036972
 30
0.0
 11
172.407837
 21
114.598984
 31
0.0
210
0.0
220
0.0
230
1.0
  0
ELLIPSE
  5
302
100
AcDbEntity
  8
0
370
    35
390
0
 62
     7
100
AcDbEllipse
 10
166.926697
 20
115.964043
 30
0.0
 11
-4.19793701171875
 21
-8.641387939453125
 31
0.0
210
0.0
220
0.0
230
1.0
 40
0.579561
 41
1.692591911860073
 42
3.1416356861306762
  0
ELLIPSE
  5
303
100
AcDbEntity
  8
0
370
    35
390
0
 62
     7
100
AcDbEllipse
 10
98.690727
 20
92.161667
 30
0.0
 11
-4.3025970458984375
 21
-8.8568267822265625
 31
0.0
210
0.0
220
0.0
230
1.0
 40
0.579561
 41
0.0000430325408817
 42
0.1217955850651776
  0
LINE
  5
304
100
AcDbEntity
  8
0
370
    35
390
0
 62
     7
100
AcDbLine
 10
147.875443
 20
69.909958
 30
0.0
 11
122.827988
 21
76.147919
 31
0.0
210
0.0
220
0.0
230
1.0
  0
LINE
  5
305
100
AcDbEntity
  8
0
370
    35
390
0
 62
     7
 48
0.475777
100
AcDbLine
 10
113.510643
 20
78.468369
 30
0.0
 11
95.043648
 21
83.067497
 31
0.0
210
0.0
220
0.0
230
1.0
  0
ELLIPSE
  5
306
100
AcDbEntity
  8
0
370
    35
390
0
 62
     7
100
AcDbEllipse
 10
151.777313
 20
79.63945
 30
0.0
 11
-4.6031723022460937
 21
-9.475555419921875
 31
0.0
210
0.0
220
0.0
230
1.0
 40
0.579561
 41
0.1217955850651783
 42
1.6925919118600741
  0
LINE
  5
307
100
AcDbEntity
  8
0
370
    35
390
0
 62
     7
100
AcDbLine
 10
157.787552
 20
78.142624
 30
0.0
 11
168.510452
 21
104.880684
 31
0.0
210
0.0
220
0.0
230
1.0
  0
LINE
  5
308
100
AcDbEntity
  8
0
370
    35
390
0
 62
     7
 48
0.014699
100
AcDbLine
 10
169.080978
 20
104.738594
 30
0.0
 11
168.510452
 21
104.880684
 31
0.0
210
0.0
220
0.0
230
1.0
  0
ELLIPSE
  5
309
100
AcDbEntity
  8
0
370
    35
390
0
 62
     7
100
AcDbEllipse
 10
170.811661
 20
114.076752
 30
0.0
 11
-4.6349029541015625
 21
-9.5408668518066406
 31
0.0
210
0.0
220
0.0
230
1.0
 40
0.579561
 41
1.6925919118600743
 42
2.6289874183237134
  0
ELLIPSE
  5
30A
100
AcDbEntity
  8
0
370
    35
390
0
 62
     7
100
AcDbEllipse
 10
174.049652
 20
112.497406
 30
0.0
 11
1.2271804809570312
 21
-11.856571197509766
 31
0.0
210
0.0
220
0.0
230
1.0
 40
0.504292
 41
2.3258693533699271
 42
2.838305133926359
  0
LINE
  5
30B
100
AcDbEntity
  8
0
370
    35
390
0
 62
     7
 48
0.014699
100
AcDbLine
 10
173.028625
 20
103.007591
 30
0.0
 11
172.458099
 21
103.149681
 31
0.0
210
0.0
220
0.0
230
1.0
  0
LINE
  5
30C
100
AcDbEntity
  8
0
370
    35
390
0
 62
     7
 48
0.107978
100
AcDbLine
 10
172.458099
 20
103.149681
 30
0.0
 11
168.57312
 21
105.036972
 31
0.0
210
0.0
220
0.0
230
1.0
  0
ELLIPSE
  5
30D
100
AcDbEntity
  8
0
370
    35
390
0
 62
     7
100
AcDbEllipse
 10
172.087555
 20
109.651688
 30
0.0
 11
-0.3394775390625
 21
-1.3631248474121094
 31
0.0
210
0.0
220
0.0
230
1.0
 40
0.808892
 41
0.7033290662479066
 42
2.4382743540724068
  0
LINE
  5
30E
100
AcDbEntity
  8
0
370
    35
390
0
 62
     7
 48
0.107978
100
AcDbLine
 10
169.080978
 20
104.738594
 30
0.0
 11
172.965942
 21
102.851303
 31
0.0
210
0.0
220
0.0
230
1.0
  0
LINE
  5
30F
100
AcDbEntity
  8
0
370
    13
390
0
 62
     7
 48
0.107978
100
AcDbLine
 10
158.358078
 20
78.000534
 30
0.0
 11
162.243042
 21
76.113235
 31
0.0
210
0.0
220
0.0
230
1.0
  0
LINE
  5
310
100
AcDbEntity
  8
0
370
    35
390
0
 62
     7
100
AcDbLine
 10
162.243042
 20
76.113235
 30
0.0
 11
172.965942
 21
102.851303
 31
0.0
210
0.0
220
0.0
230
1.0
  0
ELLIPSE
  5
311
100
AcDbEntity
  8
0
370
    35
390
0
 62
     7
100
AcDbEllipse
 10
161.61702
 20
80.282928
 30
0.0
 11
-0.2393722534179688
 21
-0.9611740112304688
 31
0.0
210
0.0
220
0.0
230
1.0
 40
0.808892
 41
4.5431868011277352
 42
6.2831461363805676
  0
LINE
  5
312
100
AcDbEntity
  8
0
370
    35
390
0
 62
     7
 48
0.110164
100
AcDbLine
 10
160.890945
 20
80.635651
 30
0.0
 11
162.531158
 21
84.725571
 31
0.0
210
0.0
220
0.0
230
1.0
  0
ELLIPSE
  5
313
100
AcDbEntity
  8
0
370
    35
390
0
 62
     7
100
AcDbEllipse
 10
163.257217
 20
84.372849
 30
0.0
 11
-0.2393722534179688
 21
-0.9611740112304688
 31
0.0
210
0.0
220
0.0
230
1.0
 40
0.808892
 41
3.1415534827907772
 42
4.543186801127729
  0
LINE
  5
314
100
AcDbEntity
  8
0
370
    13
390
0
 62
     7
 48
0.107978
100
AcDbLine
 10
147.505066
 20
68.986374
 30
0.0
 11
151.390015
 21
67.099075
 31
0.0
210
0.0
220
0.0
230
1.0
  0
ELLIPSE
  5
315
100
AcDbEntity
  8
0
370
    35
390
0
 62
     7
100
AcDbEllipse
 10
155.662277
 20
77.752151
 30
0.0
 11
-5.0401382446289062
 21
-10.375038146972656
 31
0.0
210
0.0
220
0.0
230
1.0
 40
0.579561
 41
0.121795585065177
 42
1.6925919118600741
  0
LINE
  5
316
100
AcDbEntity
  8
0
370
    13
390
0
 62
     7
 48
0.107978
100
AcDbLine
 10
94.673256
 20
82.143913
 30
0.0
 11
98.55822
 21
80.256615
 31
0.0
210
0.0
220
0.0
230
1.0
  0
LINE
  5
317
100
AcDbEntity
  8
0
370
    35
390
0
 62
     7
100
AcDbLine
 10
151.390015
 20
67.099075
 30
0.0
 11
125.28228
 21
73.601105
 31
0.0
210
0.0
220
0.0
230
1.0
  0
LINE
  5
318
100
AcDbEntity
  8
0
370
    35
390
0
 62
     7
 48
0.28617
100
AcDbLine
 10
109.665741
 20
77.490334
 30
0.0
 11
98.55822
 21
80.256615
 31
0.0
210
0.0
220
0.0
230
1.0
  0
ELLIPSE
  5
319
100
AcDbEntity
  8
0
370
    35
390
0
 62
     7
100
AcDbEllipse
 10
102.575691
 20
90.274376
 30
0.0
 11
-4.7395553588867187
 21
-9.7563056945800781
 31
0.0
210
0.0
220
0.0
230
1.0
 40
0.579561
 41
0.0000430325408831
 42
0.1217955850651783
  0
LINE
  5
31A
100
AcDbEntity
  8
0
370
    13
390
0
 62
     7
 48
0.015972
100
AcDbLine
 10
162.772034
 20
75.721191
 30
0.0
 11
162.197357
 21
76.000366
 31
0.0
210
0.0
220
0.0
230
1.0
  0
LINE
  5
31B
100
AcDbEntity
  8
0
370
    13
390
0
 62
     7
100
AcDbLine
 10
177.392303
 20
112.177551
 30
0.0
 11
162.772034
 21
75.721191
 31
0.0
210
0.0
220
0.0
230
1.0
  0
LINE
  5
31C
100
AcDbEntity
  8
0
370
    13
390
0
 62
     7
 48
0.015962
100
AcDbLine
 10
177.392303
 20
112.177551
 30
0.0
 11
176.817993
 21
112.456558
 31
0.0
210
0.0
220
0.0
230
1.0
  0
LINE
  5
31D
100
AcDbEntity
  8
0
370
    13
390
0
 62
     7
 48
0.03056
100
AcDbLine
 10
171.308319
 20
115.133133
 30
0.0
 11
172.407837
 21
114.598984
 31
0.0
210
0.0
220
0.0
230
1.0
  0
LINE
  5
31E
100
AcDbEntity
  8
0
370
    13
390
0
 62
     7
100
AcDbLine
 10
156.688034
 20
78.676758
 30
0.0
 11
171.308319
 21
115.133133
 31
0.0
210
0.0
220
0.0
230
1.0
  0
LINE
  5
31F
100
AcDbEntity
  8
0
370
    13
390
0
 62
     7
 48
0.03056
100
AcDbLine
 10
156.688034
 20
78.676758
 30
0.0
 11
157.787552
 21
78.142624
 31
0.0
210
0.0
220
0.0
230
1.0
  0
ELLIPSE
  5
320
100
AcDbEntity
  8
0
370
    13
390
0
 62
     7
100
AcDbEllipse
 10
165.827179
 20
116.498184
 30
0.0
 11
-4.19793701171875
 21
-8.641387939453125
 31
0.0
210
0.0
220
0.0
230
1.0
 40
0.579561
 41
1.692591911860075
 42
3.1416356861306762
  0
LINE
  5
321
100
AcDbEntity
  8
0
370
    13
390
0
 62
     7
 48
0.03056
100
AcDbLine
 10
93.944122
 20
83.601639
 30
0.0
 11
95.043648
 21
83.067497
 31
0.0
210
0.0
220
0.0
230
1.0
  0
ELLIPSE
  5
322
100
AcDbEntity
  8
0
370
    13
390
0
 62
     7
100
AcDbEllipse
 10
97.591209
 20
92.695816
 30
0.0
 11
-4.3025970458984375
 21
-8.8568267822265625
 31
0.0
210
0.0
220
0.0
230
1.0
 40
0.579561
 41
0.0000430325408817
 42
0.1217955850651783
  0
LINE
  5
323
100
AcDbEntity
  8
0
370
    13
390
0
 62
     7
 48
0.03056
100
AcDbLine
 10
146.775925
 20
70.444099
 30
0.0
 11
147.875443
 21
69.909958
 31
0.0
210
0.0
220
0.0
230
1.0
  0
LINE
  5
324
100
AcDbEntity
  8
0
370
    13
390
0
 62
     7
100
AcDbLine
 10
146.775925
 20
70.444099
 30
0.0
 11
122.352211
 21
76.526718
 31
0.0
210
0.0
220
0.0
230
1.0
  0
LINE
  5
325
100
AcDbEntity
  8
0
370
    13
390
0
 62
     7
100
AcDbLine
 10
114.126595
 20
78.575279
 30
0.0
 11
93.944122
 21
83.601639
 31
0.0
210
0.0
220
0.0
230
1.0
  0
ELLIPSE
  5
326
100
AcDbEntity
  8
0
370
    13
390
0
 62
     7
100
AcDbEllipse
 10
150.677795
 20
80.173584
 30
0.0
 11
-4.6031723022460937
 21
-9.475555419921875
 31
0.0
210
0.0
220
0.0
230
1.0
 40
0.579561
 41
0.1217955850651783
 42
1.6925919118600732
  0
ARC
  5
327
100
AcDbEntity
  8
0
370
    35
390
0
 62
     7
100
AcDbCircle
 10
163.449539
 20
112.352303
 30
0.0
 40
15.909339
210
0.0
220
0.0
230
1.0
100
AcDbArc
 50
19.620173
 51
23.846706
  0
ELLIPSE
  5
328
100
AcDbEntity
  8
0
370
    13
390
0
 62
     7
100
AcDbEllipse
 10
171.911179
 20
113.542603
 30
0.0
 11
-4.19793701171875
 21
-8.641387939453125
 31
0.0
210
0.0
220
0.0
230
1.0
 40
0.579561
 41
1.692591911860075
 42
2.3260241403117692
  0
LINE
  5
329
100
AcDbEntity
  8
0
370
    35
390
0
 62
     7
 48
0.110164
100
AcDbLine
 10
164.268555
 20
83.949081
 30
0.0
 11
162.628357
 21
79.859169
 31
0.0
210
0.0
220
0.0
230
1.0
  0
LINE
  5
32A
100
AcDbEntity
  8
0
370
    13
390
0
 62
     7
 48
0.007349
100
AcDbLine
 10
162.531158
 20
84.725571
 30
0.0
 11
162.816406
 21
84.654526
 31
0.0
210
0.0
220
0.0
230
1.0
  0
ELLIPSE
  5
32B
100
AcDbEntity
  8
0
370
    35
390
0
 62
     7
100
AcDbEllipse
 10
163.54248
 20
84.301804
 30
0.0
 11
-0.2393722534179688
 21
-0.9611740112304688
 31
0.0
210
0.0
220
0.0
230
1.0
 40
0.808892
 41
1.4015941475379357
 42
3.1415534827907741
  0
ELLIPSE
  5
32C
100
AcDbEntity
  8
0
370
    35
390
0
 62
     7
100
AcDbEllipse
 10
163.54248
 20
84.301804
 30
0.0
 11
-0.2393722534179688
 21
-0.9611740112304688
 31
0.0
210
0.0
220
0.0
230
1.0
 40
0.808892
 41
3.1415534827907741
 42
4.5431868011277414
  0
LINE
  5
32D
100
AcDbEntity
  8
0
370
    13
390
0
 62
     7
 48
0.007349
100
AcDbLine
 10
160.890945
 20
80.635651
 30
0.0
 11
161.176208
 21
80.564606
 31
0.0
210
0.0
220
0.0
230
1.0
  0
LINE
  5
32E
100
AcDbEntity
  8
0
370
    35
390
0
 62
     7
 48
0.110164
100
AcDbLine
 10
161.176208
 20
80.564606
 30
0.0
 11
162.816406
 21
84.654526
 31
0.0
210
0.0
220
0.0
230
1.0
  0
ELLIPSE
  5
32F
100
AcDbEntity
  8
0
370
    35
390
0
 62
     7
100
AcDbEllipse
 10
161.902283
 20
80.211891
 30
0.0
 11
-0.2393722534179688
 21
-0.9611740112304688
 31
0.0
210
0.0
220
0.0
230
1.0
 40
0.808892
 41
4.5431868011277352
 42
6.2831461363805676
  0
ELLIPSE
  5
330
100
AcDbEntity
  8
0
370
    35
390
0
 62
     7
100
AcDbEllipse
 10
161.902283
 20
80.211891
 30
0.0
 11
-0.2393722534179688
 21
-0.9611740112304688
 31
0.0
210
0.0
220
0.0
230
1.0
 40
0.808892
 41
6.2831461363805676
 42
7.6847794547175283
  0
ELLIPSE
  5
331
100
AcDbEntity
  8
0
370
    35
390
0
 62
     7
100
AcDbEllipse
 10
155.169312
 20
130.223114
 30
0.0
 11
2.4595870971679687
 21
-0.9863777160644531
 31
0.0
210
0.0
220
0.0
230
1.0
 40
0.09901
 41
2.5198873270064031
 42
3.1416023513569442
  0
ELLIPSE
  5
332
100
AcDbEntity
  8
0
370
    35
390
0
 62
     7
100
AcDbEllipse
 10
155.169312
 20
130.223114
 30
0.0
 11
2.4595870971679687
 21
-0.9863777160644531
 31
0.0
210
0.0
220
0.0
230
1.0
 40
0.09901
 41
0.6309646837721831
 42
2.5198873270064031
  0
ARC
  5
333
100
AcDbEntity
  8
0
370
    35
390
0
 62
     7
100
AcDbCircle
 10
141.053452
 20
130.855194
 30
0.0
 40
16.210483
210
0.0
220
0.0
230
1.0
100
AcDbArc
 50
354.023746
 51
355.453786
  0
ELLIPSE
  5
334
100
AcDbEntity
  8
0
370
    35
390
0
 62
     7
100
AcDbEllipse
 10
160.741882
 20
128.835281
 30
0.0
 11
2.4595870971679687
 21
-0.9863777160644531
 31
0.0
210
0.0
220
0.0
230
1.0
 40
0.09901
 41
2.5198873270064031
 42
3.1416152453116175
  0
ELLIPSE
  5
335
100
AcDbEntity
  8
0
370
    35
390
0
 62
     7
100
AcDbEllipse
 10
160.741882
 20
128.835281
 30
0.0
 11
2.4595870971679687
 21
-0.9863777160644531
 31
0.0
210
0.0
220
0.0
230
1.0
 40
0.09901
 41
0.6065083392165661
 42
2.5198873270064031
  0
ARC
  5
336
100
AcDbEntity
  8
0
370
    35
390
0
 62
     7
100
AcDbCircle
 10
147.155472
 20
129.529434
 30
0.0
 40
15.722407
210
0.0
220
0.0
230
1.0
100
AcDbArc
 50
353.581726
 51
355.016459
  0
LINE
  5
337
100
AcDbEntity
  8
0
370
    13
390
0
 62
     7
 48
0.016883
100
AcDbLine
 10
164.906067
 20
127.242256
 30
0.0
 11
165.15744
 21
127.869064
 31
0.0
210
0.0
220
0.0
230
1.0
  0
ELLIPSE
  5
338
100
AcDbEntity
  8
0
370
    35
390
0
 62
     7
100
AcDbEllipse
 10
165.72113
 20
127.595222
 30
0.0
 11
0.7137603759765625
 21
-0.2862434387207031
 31
0.0
210
0.0
220
0.0
230
1.0
 40
0.09901
 41
2.5198873270064022
 42
3.1415818119385155
  0
LINE
  5
339
100
AcDbEntity
  8
0
370
    13
390
0
 62
     7
 48
0.016883
100
AcDbLine
 10
169.323181
 20
126.142189
 30
0.0
 11
169.574554
 21
126.768997
 31
0.0
210
0.0
220
0.0
230
1.0
  0
ELLIPSE
  5
33A
100
AcDbEntity
  8
0
370
    35
390
0
 62
     7
100
AcDbEllipse
 10
170.138245
 20
126.495155
 30
0.0
 11
0.7137603759765625
 21
-0.2862434387207031
 31
0.0
210
0.0
220
0.0
230
1.0
 40
0.09901
 41
6.2831744655282922
 42
8.8030726341859875
  0
LINE
  5
33B
100
AcDbEntity
  8
0
370
    35
390
0
 62
     7
 48
0.113801
100
AcDbLine
 10
169.574554
 20
126.768997
 30
0.0
 11
165.15744
 21
127.869064
 31
0.0
210
0.0
220
0.0
230
1.0
  0
ELLIPSE
  5
33C
100
AcDbEntity
  8
0
370
    13
390
0
 62
     7
100
AcDbEllipse
 10
171.023041
 20
115.204178
 30
0.0
 11
0.4640731811523438
 21
-0.1861076354980469
 31
0.0
210
0.0
220
0.0
230
1.0
 40
0.09901
 41
0.9490910011848439
 42
2.5198873279797454
  0
LINE
  5
33D
100
AcDbEntity
  8
0
370
    13
390
0
 62
     7
100
AcDbLine
 10
156.036255
 20
78.92585
 30
0.0
 11
170.65654
 21
115.382217
 31
0.0
210
0.0
220
0.0
230
1.0
  0
ELLIPSE
  5
33E
100
AcDbEntity
  8
0
370
    13
390
0
 62
     7
100
AcDbEllipse
 10
156.402771
 20
78.747803
 30
0.0
 11
0.4640731811523438
 21
-0.1861076354980469
 31
0.0
210
0.0
220
0.0
230
1.0
 40
0.09901
 41
0.949091000211516
 42
2.5198873270064173
  0
ELLIPSE
  5
33F
100
AcDbEntity
  8
0
370
    13
390
0
 62
     7
100
AcDbEllipse
 10
177.107056
 20
112.248596
 30
0.0
 11
0.4640731811523438
 21
-0.1861076354980469
 31
0.0
210
0.0
220
0.0
230
1.0
 40
0.09901
 41
0.0000324805995483
 42
0.9490910002115031
  0
ELLIPSE
  5
340
100
AcDbEntity
  8
0
370
    13
390
0
 62
     7
100
AcDbEllipse
 10
162.486771
 20
75.792229
 30
0.0
 11
0.4640731811523438
 21
-0.1861076354980469
 31
0.0
210
0.0
220
0.0
230
1.0
 40
0.09901
 41
0.0000324805995216
 42
0.9490910002115095
  0
ELLIPSE
  5
341
100
AcDbEntity
  8
0
370
    13
390
0
 62
     7
100
AcDbEllipse
 10
156.761795
 20
77.21801
 30
0.0
 11
-4.6031723022460937
 21
-9.475555419921875
 31
0.0
210
0.0
220
0.0
230
1.0
 40
0.579561
 41
0.4047017031069464
 42
1.6925919118600734
  0
ELLIPSE
  5
342
100
AcDbEntity
  8
0
370
    13
390
0
 62
     7
100
AcDbEllipse
 10
169.200348
 20
124.909355
 30
0.0
 11
0.1208343505859375
 21
0.4851799011230469
 31
0.0
210
0.0
220
0.0
230
1.0
 40
0.808892
 41
6.2831764736848275
 42
7.6847794547175248
  0
ELLIPSE
  5
343
100
AcDbEntity
  8
0
370
    13
390
0
 62
     7
100
AcDbEllipse
 10
165.460678
 20
116.676231
 30
0.0
 11
-3.9794540405273438
 21
-8.1916465759277344
 31
0.0
210
0.0
220
0.0
230
1.0
 40
0.579561
 41
1.6925918950641154
 42
3.2633882386549846
  0
ELLIPSE
  5
344
100
AcDbEntity
  8
0
370
    13
390
0
 62
     7
100
AcDbEllipse
 10
116.307083
 20
138.082199
 30
0.0
 11
0.1208343505859375
 21
0.4851799011230469
 31
0.0
210
0.0
220
0.0
230
1.0
 40
0.808892
 41
0.000046142533339
 42
1.401594142106148
  0
LINE
  5
345
100
AcDbEntity
  8
0
370
    13
390
0
 62
     7
100
AcDbLine
 10
115.940582
 20
138.260254
 30
0.0
 11
168.833847
 21
125.087402
 31
0.0
210
0.0
220
0.0
230
1.0
  0
ELLIPSE
  5
346
100
AcDbEntity
  8
0
370
    13
390
0
 62
     7
100
AcDbEllipse
 10
106.741447
 20
130.137299
 30
0.0
 11
-0.4640731811523438
 21
0.1861076354980469
 31
0.0
210
0.0
220
0.0
230
1.0
 40
0.09901
 41
5.6614799805961962
 42
6.2831816803444136
  0
ELLIPSE
  5
347
100
AcDbEntity
  8
0
370
    13
390
0
 62
     7
100
AcDbEllipse
 10
112.175095
 20
128.870834
 30
0.0
 11
-4.4422760009765625
 21
-9.1443519592285156
 31
0.0
210
0.0
220
0.0
230
1.0
 40
0.579561
 41
3.2633882426603562
 42
4.8341845654498661
  0
ELLIPSE
  5
348
100
AcDbEntity
  8
0
370
    13
390
0
 62
     7
100
AcDbEllipse
 10
92.25869
 20
94.023849
 30
0.0
 11
-0.4640731811523438
 21
0.1861076354980469
 31
0.0
210
0.0
220
0.0
230
1.0
 40
0.09901
 41
5.6614799816218113
 42
6.2832177888046985
  0
LINE
  5
349
100
AcDbEntity
  8
0
370
    13
390
0
 62
     7
100
AcDbLine
 10
106.374939
 20
130.315338
 30
0.0
 11
91.892181
 21
94.201904
 31
0.0
210
0.0
220
0.0
230
1.0
  0
ELLIPSE
  5
34A
100
AcDbEntity
  8
0
370
    13
390
0
 62
     7
100
AcDbEllipse
 10
94.129318
 20
84.063431
 30
0.0
 11
-0.1208343505859375
 21
-0.4851799011230469
 31
0.0
210
0.0
220
0.0
230
1.0
 40
0.808892
 41
4.5431868011277379
 42
6.11398312792263
  0
ELLIPSE
  5
34B
100
AcDbEntity
  8
0
370
    13
390
0
 62
     7
100
AcDbEllipse
 10
97.224701
 20
92.873856
 30
0.0
 11
-4.0841140747070313
 21
-8.4070854187011719
 31
0.0
210
0.0
220
0.0
230
1.0
 40
0.579561
 41
4.8341845477516259
 42
6.4049808922447777
  0
ELLIPSE
  5
34C
100
AcDbEntity
  8
0
370
    13
390
0
 62
     7
100
AcDbEllipse
 10
146.961121
 20
70.905891
 30
0.0
 11
-0.1208343505859375
 21
-0.4851799011230469
 31
0.0
210
0.0
220
0.0
230
1.0
 40
0.808892
 41
4.5431868011277308
 42
6.11398312792263
  0
LINE
  5
34D
100
AcDbEntity
  8
0
370
    13
390
0
 62
     7
100
AcDbLine
 10
146.59462
 20
71.083939
 30
0.0
 11
120.96344
 21
77.46727
 31
0.0
210
0.0
220
0.0
230
1.0
  0
LINE
  5
34E
100
AcDbEntity
  8
0
370
    13
390
0
 62
     7
100
AcDbLine
 10
115.685379
 20
78.781754
 30
0.0
 11
93.762817
 21
84.24147
 31
0.0
210
0.0
220
0.0
230
1.0
  0
ELLIPSE
  5
34F
100
AcDbEntity
  8
0
370
    13
390
0
 62
     7
100
AcDbEllipse
 10
150.311279
 20
80.351631
 30
0.0
 11
-4.3846893310546875
 21
-9.02581787109375
 31
0.0
210
0.0
220
0.0
230
1.0
 40
0.579561
 41
0.1217955903230048
 42
1.692591911860073
  0
POLYLINE
  5
350
100
AcDbEntity
  8
0
370
    35
390
0
 62
     7
100
AcDb2dPolyline
 66
     1
 10
0.0
 20
0.0
 30
0.0
 71
    11
  0
VERTEX
  5
351
100
AcDbEntity
  8
0
370
     0
390
0
100
AcDbVertex
100
AcDb2dVertex
 10
178.604645
 20
116.872765
 30
0.0
  0
VERTEX
  5
352
100
AcDbEntity
  8
0
370
     0
390
0
100
AcDbVertex
100
AcDb2dVertex
 10
178.603973
 20
116.931091
 30
0.0
  0
VERTEX
  5
353
100
AcDbEntity
  8
0
370
     0
390
0
100
AcDbVertex
100
AcDb2dVertex
 10
178.60054
 20
116.989983
 30
0.0
  0
VERTEX
  5
354
100
AcDbEntity
  8
0
370
     0
390
0
100
AcDbVertex
100
AcDb2dVertex
 10
178.593842
 20
117.057213
 30
0.0
  0
VERTEX
  5
355
100
AcDbEntity
  8
0
370
     0
390
0
100
AcDbVertex
100
AcDb2dVertex
 10
178.584686
 20
117.124344
 30
0.0
  0
VERTEX
  5
356
100
AcDbEntity
  8
0
370
     0
390
0
100
AcDbVertex
100
AcDb2dVertex
 10
178.572174
 20
117.198029
 30
0.0
  0
VERTEX
  5
357
100
AcDbEntity
  8
0
370
     0
390
0
100
AcDbVertex
100
AcDb2dVertex
 10
178.557465
 20
117.27121
 30
0.0
  0
VERTEX
  5
358
100
AcDbEntity
  8
0
370
     0
390
0
100
AcDbVertex
100
AcDb2dVertex
 10
178.540848
 20
117.343796
 30
0.0
  0
VERTEX
  5
359
100
AcDbEntity
  8
0
370
     0
390
0
100
AcDbVertex
100
AcDb2dVertex
 10
178.522522
 20
117.415619
 30
0.0
  0
VERTEX
  5
35A
100
AcDbEntity
  8
0
370
     0
390
0
100
AcDbVertex
100
AcDb2dVertex
 10
178.481445
 20
117.556763
 30
0.0
  0
VERTEX
  5
35B
100
AcDbEntity
  8
0
370
     0
390
0
100
AcDbVertex
100
AcDb2dVertex
 10
178.435226
 20
117.694412
 30
0.0
  0
SEQEND
  5
35C
100
AcDbEntity
  8
0
370
     0
390
0
  0
LINE
  5
35D
100
AcDbEntity
  8
0
370
    35
390
0
 62
     7
100
AcDbLine
 10
164.801041
 20
123.919998
 30
0.0
 11
144.538666
 21
73.394783
 31
0.0
210
0.0
220
0.0
230
1.0
  0
LINE
  5
35E
100
AcDbEntity
  8
0
370
    35
390
0
 62
     7
100
AcDbLine
 10
164.801041
 20
123.919998
 30
0.0
 11
118.942734
 21
135.34082
 31
0.0
210
0.0
220
0.0
230
1.0
  0
LINE
  5
35F
100
AcDbEntity
  8
0
370
    35
390
0
 62
     7
100
AcDbLine
 10
98.680359
 20
84.815598
 30
0.0
 11
118.942734
 21
135.34082
 31
0.0
210
0.0
220
0.0
230
1.0
  0
LINE
  5
360
100
AcDbEntity
  8
0
370
    35
390
0
 62
     7
100
AcDbLine
 10
98.680359
 20
84.815598
 30
0.0
 11
144.538666
 21
73.394783
 31
0.0
210
0.0
220
0.0
230
1.0
  0
ELLIPSE
  5
361
100
AcDbEntity
  8
0
370
    35
390
0
 62
     7
100
AcDbEllipse
 10
167.047638
 20
118.462181
 30
0.0
 11
1.2586441040039063
 21
2.5908966064453125
 31
0.0
210
0.0
220
0.0
230
1.0
 40
0.579561
 41
3.1416248364133308
 42
6.2832174900031186
  0
ELLIPSE
  5
362
100
AcDbEntity
  8
0
370
    35
390
0
 62
     7
100
AcDbEllipse
 10
167.047638
 20
118.462181
 30
0.0
 11
1.2586441040039063
 21
2.5908966064453125
 31
0.0
210
0.0
220
0.0
230
1.0
 40
0.579561
 41
0.000032182823533
 42
0.121795585065178
  0
ELLIPSE
  5
363
100
AcDbEntity
  8
0
370
    35
390
0
 62
     7
100
AcDbEllipse
 10
167.047638
 20
118.462181
 30
0.0
 11
1.2586441040039063
 21
2.5908966064453125
 31
0.0
210
0.0
220
0.0
230
1.0
 40
0.579561
 41
0.121795585065178
 42
3.1416248364133308
  0
LINE
  5
364
100
AcDbEntity
  8
0
370
    35
390
0
 62
     7
 48
0.243466
100
AcDbLine
 10
160.231491
 20
102.296265
 30
0.0
 11
156.606583
 21
93.257385
 31
0.0
210
0.0
220
0.0
230
1.0
  0
LINE
  5
365
100
AcDbEntity
  8
0
370
    35
390
0
 62
     7
 48
0.0528
100
AcDbLine
 10
160.231491
 20
102.296265
 30
0.0
 11
158.426208
 21
101.200111
 31
0.0
210
0.0
220
0.0
230
1.0
  0
LINE
  5
366
100
AcDbEntity
  8
0
370
    35
390
0
 62
     7
 48
0.174147
100
AcDbLine
 10
155.833374
 20
94.734756
 30
0.0
 11
158.426208
 21
101.200111
 31
0.0
210
0.0
220
0.0
230
1.0
  0
LINE
  5
367
100
AcDbEntity
  8
0
370
    35
390
0
 62
     7
 48
0.041687
100
AcDbLine
 10
156.606583
 20
93.257385
 30
0.0
 11
155.833374
 21
94.734756
 31
0.0
210
0.0
220
0.0
230
1.0
  0
LINE
  5
368
100
AcDbEntity
  8
0
370
    35
390
0
 62
     7
 48
0.289544
100
AcDbLine
 10
108.206635
 20
115.494858
 30
0.0
 11
103.895691
 21
104.7453
 31
0.0
210
0.0
220
0.0
230
1.0
  0
LINE
  5
369
100
AcDbEntity
  8
0
370
    35
390
0
 62
     7
 48
0.064901
100
AcDbLine
 10
108.206635
 20
115.494858
 30
0.0
 11
105.687553
 21
116.122223
 31
0.0
210
0.0
220
0.0
230
1.0
  0
LINE
  5
36A
100
AcDbEntity
  8
0
370
    35
390
0
 62
     7
 48
0.289544
100
AcDbLine
 10
101.376602
 20
105.372665
 30
0.0
 11
105.687553
 21
116.122223
 31
0.0
210
0.0
220
0.0
230
1.0
  0
LINE
  5
36B
100
AcDbEntity
  8
0
370
    35
390
0
 62
     7
 48
0.064901
100
AcDbLine
 10
101.376602
 20
105.372665
 30
0.0
 11
103.895691
 21
104.7453
 31
0.0
210
0.0
220
0.0
230
1.0
  0
LINE
  5
36C
100
AcDbEntity
  8
0
370
    35
390
0
 62
     7
 48
0.006112
100
AcDbLine
 10
118.942734
 20
135.34082
 30
0.0
 11
119.162643
 21
135.233978
 31
0.0
210
0.0
220
0.0
230
1.0
  0
LINE
  5
36D
100
AcDbEntity
  8
0
370
    35
390
0
 62
     7
100
AcDbLine
 10
164.782059
 20
123.872658
 30
0.0
 11
119.162643
 21
135.233978
 31
0.0
210
0.0
220
0.0
230
1.0
  0
LINE
  5
36E
100
AcDbEntity
  8
0
370
    35
390
0
 62
     7
100
AcDbLine
 10
98.919243
 20
84.756104
 30
0.0
 11
119.162643
 21
135.233978
 31
0.0
210
0.0
220
0.0
230
1.0
  0
ELLIPSE
  5
36F
100
AcDbEntity
  8
0
370
    35
390
0
 62
     7
100
AcDbEllipse
 10
167.414139
 20
118.284134
 30
0.0
 11
1.2586441040039063
 21
2.5908966064453125
 31
0.0
210
0.0
220
0.0
230
1.0
 40
0.579561
 41
0.121795585065178
 42
3.019344019648083
  0
LINE
  5
370
100
AcDbEntity
  8
0
370
    35
390
0
 62
     7
 48
0.010187
100
AcDbLine
 10
158.426208
 20
101.200111
 30
0.0
 11
158.792725
 21
101.022064
 31
0.0
210
0.0
220
0.0
230
1.0
  0
LINE
  5
371
100
AcDbEntity
  8
0
370
    35
390
0
 62
     7
 48
0.03587
100
AcDbLine
 10
160.019135
 20
101.766739
 30
0.0
 11
158.792725
 21
101.022064
 31
0.0
210
0.0
220
0.0
230
1.0
  0
LINE
  5
372
100
AcDbEntity
  8
0
370
    35
390
0
 62
     7
 48
0.010187
100
AcDbLine
 10
155.833374
 20
94.734756
 30
0.0
 11
156.19989
 21
94.556717
 31
0.0
210
0.0
220
0.0
230
1.0
  0
LINE
  5
373
100
AcDbEntity
  8
0
370
    35
390
0
 62
     7
 48
0.174147
100
AcDbLine
 10
156.19989
 20
94.556717
 30
0.0
 11
158.792725
 21
101.022064
 31
0.0
210
0.0
220
0.0
230
1.0
  0
LINE
  5
374
100
AcDbEntity
  8
0
370
    35
390
0
 62
     7
 48
0.02832
100
AcDbLine
 10
156.725159
 20
93.553055
 30
0.0
 11
156.19989
 21
94.556717
 31
0.0
210
0.0
220
0.0
230
1.0
  0
LINE
  5
375
100
AcDbEntity
  8
0
370
    35
390
0
 62
     7
 48
0.026485
100
AcDbLine
 10
105.687553
 20
116.122223
 30
0.0
 11
106.640472
 21
115.659302
 31
0.0
210
0.0
220
0.0
230
1.0
  0
LINE
  5
376
100
AcDbEntity
  8
0
370
    35
390
0
 62
     7
 48
0.038231
100
AcDbLine
 10
108.124382
 20
115.289742
 30
0.0
 11
106.640472
 21
115.659302
 31
0.0
210
0.0
220
0.0
230
1.0
  0
LINE
  5
377
100
AcDbEntity
  8
0
370
    35
390
0
 62
     7
 48
0.284019
100
AcDbLine
 10
102.411781
 20
105.114861
 30
0.0
 11
106.640472
 21
115.659302
 31
0.0
210
0.0
220
0.0
230
1.0
  0
LINE
  5
378
100
AcDbEntity
  8
0
370
    35
390
0
 62
     7
100
AcDbLine
 10
189.445496
 20
154.969025
 30
0.0
 11
106.481636
 21
175.376511
 31
0.0
210
0.0
220
0.0
230
1.0
  0
LINE
  5
379
100
AcDbEntity
  8
0
370
    35
390
0
 62
     7
100
AcDbLine
 10
189.445496
 20
154.969025
 30
0.0
 11
190.763763
 21
34.657211
 31
0.0
210
0.0
220
0.0
230
1.0
  0
LINE
  5
37A
100
AcDbEntity
  8
0
370
    35
390
0
 62
     7
100
AcDbLine
 10
189.200104
 20
154.935287
 30
0.0
 11
106.236237
 21
175.342789
 31
0.0
210
0.0
220
0.0
230
1.0
  0
LINE
  5
37B
100
AcDbEntity
  8
0
370
    35
390
0
 62
     7
100
AcDbLine
 10
106.71846
 20
131.332306
 30
0.0
 11
106.236237
 21
175.342789
 31
0.0
210
0.0
220
0.0
230
1.0
  0
LINE
  5
37C
100
AcDbEntity
  8
0
370
    35
390
0
 62
     7
 48
0.043651
100
AcDbLine
 10
107.321083
 20
76.333046
 30
0.0
 11
107.301956
 21
78.078979
 31
0.0
210
0.0
220
0.0
230
1.0
  0
LINE
  5
37D
100
AcDbEntity
  8
0
370
    35
390
0
 62
     7
100
AcDbLine
 10
137.844116
 20
47.580326
 30
0.0
 11
190.518356
 21
34.623489
 31
0.0
210
0.0
220
0.0
230
1.0
  0
LINE
  5
37E
100
AcDbEntity
  8
0
370
    35
390
0
 62
     7
100
AcDbLine
 10
189.200104
 20
154.935287
 30
0.0
 11
190.518356
 21
34.623489
 31
0.0
210
0.0
220
0.0
230
1.0
  0
LINE
  5
37F
100
AcDbEntity
  8
0
370
    35
390
0
 62
     7
 48
0.006193
100
AcDbLine
 10
190.518356
 20
34.623489
 30
0.0
 11
190.763763
 21
34.657211
 31
0.0
210
0.0
220
0.0
230
1.0
  0
LINE
  5
380
100
AcDbEntity
  8
0
370
    35
390
0
 62
     7
 48
0.006193
100
AcDbLine
 10
189.200104
 20
154.935287
 30
0.0
 11
189.445496
 21
154.969025
 31
0.0
210
0.0
220
0.0
230
1.0
  0
LINE
  5
381
100
AcDbEntity
  8
0
370
    35
390
0
 62
     7
 48
0.006193
100
AcDbLine
 10
106.236237
 20
175.342789
 30
0.0
 11
106.481636
 21
175.376511
 31
0.0
210
0.0
220
0.0
230
1.0
  0
LINE
  5
382
100
AcDbEntity
  8
0
370
    35
390
0
 62
     7
 48
0.007349
100
AcDbLine
 10
173.730194
 20
111.381241
 30
0.0
 11
174.015442
 21
111.310196
 31
0.0
210
0.0
220
0.0
230
1.0
  0
LINE
  5
383
100
AcDbEntity
  8
0
370
    35
390
0
 62
     7
 48
0.00735
100
AcDbLine
 10
172.72702
 20
107.35379
 30
0.0
 11
173.012299
 21
107.282745
 31
0.0
210
0.0
220
0.0
230
1.0
  0
LINE
  5
384
100
AcDbEntity
  8
0
370
    35
390
0
 62
     7
 48
0.08624
100
AcDbLine
 10
171.561356
 20
125.50502
 30
0.0
 11
174.664215
 21
123.997673
 31
0.0
210
0.0
220
0.0
230
1.0
  0
LINE
  5
385
100
AcDbEntity
  8
0
370
    35
390
0
 62
     7
 48
0.107978
100
AcDbLine
 10
93.951416
 20
82.405251
 30
0.0
 11
97.83638
 21
80.517952
 31
0.0
210
0.0
220
0.0
230
1.0
  0
LINE
  5
386
100
AcDbEntity
  8
0
370
    35
390
0
 62
     7
 48
0.03056
100
AcDbLine
 10
170.024902
 20
125.139671
 30
0.0
 11
171.12442
 21
124.60553
 31
0.0
210
0.0
220
0.0
230
1.0
  0
LINE
  5
387
100
AcDbEntity
  8
0
370
    35
390
0
 62
     7
 48
0.03056
100
AcDbLine
 10
93.288834
 20
83.838882
 30
0.0
 11
94.388351
 21
83.304741
 31
0.0
210
0.0
220
0.0
230
1.0
  0
LINE
  5
388
100
AcDbEntity
  8
0
370
    35
390
0
 62
     7
 48
0.007349
100
AcDbLine
 10
163.496628
 20
85.334015
 30
0.0
 11
163.781891
 21
85.26297
 31
0.0
210
0.0
220
0.0
230
1.0
  0
LINE
  5
389
100
AcDbEntity
  8
0
370
    35
390
0
 62
     7
 48
0.007349
100
AcDbLine
 10
161.377625
 20
79.32177
 30
0.0
 11
161.662872
 21
79.250725
 31
0.0
210
0.0
220
0.0
230
1.0
  0
LINE
  5
38A
100
AcDbEntity
  8
0
370
    35
390
0
 62
     7
 48
0.022769
100
AcDbLine
 10
152.370712
 20
130.364136
 30
0.0
 11
152.709717
 21
131.209473
 31
0.0
210
0.0
220
0.0
230
1.0
  0
LINE
  5
38B
100
AcDbEntity
  8
0
370
    35
390
0
 62
     7
 48
0.022769
100
AcDbLine
 10
157.943283
 20
128.976318
 30
0.0
 11
158.282288
 21
129.821655
 31
0.0
210
0.0
220
0.0
230
1.0
  0
LINE
  5
38C
100
AcDbEntity
  8
0
370
    35
390
0
 62
     7
 48
0.016272
100
AcDbLine
 10
164.765106
 20
127.277359
 30
0.0
 11
165.00737
 21
127.881462
 31
0.0
210
0.0
220
0.0
230
1.0
  0
LINE
  5
38D
100
AcDbEntity
  8
0
370
    35
390
0
 62
     7
 48
0.010958
100
AcDbLine
 10
170.688843
 20
125.802078
 30
0.0
 11
170.852005
 21
126.208916
 31
0.0
210
0.0
220
0.0
230
1.0
  0
LINE
  5
38E
100
AcDbEntity
  8
0
370
    35
390
0
 62
     7
100
AcDbLine
 10
177.571121
 20
112.062485
 30
0.0
 11
162.950836
 21
75.606125
 31
0.0
210
0.0
220
0.0
230
1.0
  0
ARC
  5
38F
100
AcDbEntity
  8
0
370
    35
390
0
 62
     7
100
AcDbCircle
 10
168.454681
 20
121.902084
 30
0.0
 40
3.598296
210
0.0
220
0.0
230
1.0
100
AcDbArc
 50
64.126802
 51
76.065836
  0
LINE
  5
390
100
AcDbEntity
  8
0
370
    35
390
0
 62
     7
100
AcDbLine
 10
116.427902
 20
138.567383
 30
0.0
 11
169.321198
 21
125.394531
 31
0.0
210
0.0
220
0.0
230
1.0
  0
POLYLINE
  5
391
100
AcDbEntity
  8
0
370
    35
390
0
 62
     7
100
AcDb2dPolyline
 66
     1
 10
0.0
 20
0.0
 30
0.0
 71
    79
  0
VERTEX
  5
392
100
AcDbEntity
  8
0
370
     0
390
0
100
AcDbVertex
100
AcDb2dVertex
 10
116.427902
 20
138.567383
 30
0.0
  0
VERTEX
  5
393
100
AcDbEntity
  8
0
370
     0
390
0
100
AcDbVertex
100
AcDb2dVertex
 10
116.309113
 20
138.595093
 30
0.0
  0
VERTEX
  5
394
100
AcDbEntity
  8
0
370
     0
390
0
100
AcDbVertex
100
AcDb2dVertex
 10
116.189568
 20
138.619263
 30
0.0
  0
VERTEX
  5
395
100
AcDbEntity
  8
0
370
     0
390
0
100
AcDbVertex
100
AcDb2dVertex
 10
116.068527
 20
138.640045
 30
0.0
  0
VERTEX
  5
396
100
AcDbEntity
  8
0
370
     0
390
0
100
AcDbVertex
100
AcDb2dVertex
 10
115.946938
 20
138.657318
 30
0.0
  0
VERTEX
  5
397
100
AcDbEntity
  8
0
370
     0
390
0
100
AcDbVertex
100
AcDb2dVertex
 10
115.823898
 20
138.671188
 30
0.0
  0
VERTEX
  5
398
100
AcDbEntity
  8
0
370
     0
390
0
100
AcDbVertex
100
AcDb2dVertex
 10
115.700516
 20
138.68158
 30
0.0
  0
VERTEX
  5
399
100
AcDbEntity
  8
0
370
     0
390
0
100
AcDbVertex
100
AcDb2dVertex
 10
115.575714
 20
138.688583
 30
0.0
  0
VERTEX
  5
39A
100
AcDbEntity
  8
0
370
     0
390
0
100
AcDbVertex
100
AcDb2dVertex
 10
115.45076
 20
138.692139
 30
0.0
  0
VERTEX
  5
39B
100
AcDbEntity
  8
0
370
     0
390
0
100
AcDbVertex
100
AcDb2dVertex
 10
115.324471
 20
138.692322
 30
0.0
  0
VERTEX
  5
39C
100
AcDbEntity
  8
0
370
     0
390
0
100
AcDbVertex
100
AcDb2dVertex
 10
115.198235
 20
138.689117
 30
0.0
  0
VERTEX
  5
39D
100
AcDbEntity
  8
0
370
     0
390
0
100
AcDbVertex
100
AcDb2dVertex
 10
115.07061
 20
138.682526
 30
0.0
  0
VERTEX
  5
39E
100
AcDbEntity
  8
0
370
     0
390
0
100
AcDbVertex
100
AcDb2dVertex
 10
114.943199
 20
138.672653
 30
0.0
  0
VERTEX
  5
39F
100
AcDbEntity
  8
0
370
     0
390
0
100
AcDbVertex
100
AcDb2dVertex
 10
114.814438
 20
138.659363
 30
0.0
  0
VERTEX
  5
3A0
100
AcDbEntity
  8
0
370
     0
390
0
100
AcDbVertex
100
AcDb2dVertex
 10
114.686043
 20
138.642899
 30
0.0
  0
VERTEX
  5
3A1
100
AcDbEntity
  8
0
370
     0
390
0
100
AcDbVertex
100
AcDb2dVertex
 10
114.556313
 20
138.623016
 30
0.0
  0
VERTEX
  5
3A2
100
AcDbEntity
  8
0
370
     0
390
0
100
AcDbVertex
100
AcDb2dVertex
 10
114.427109
 20
138.600037
 30
0.0
  0
VERTEX
  5
3A3
100
AcDbEntity
  8
0
370
     0
390
0
100
AcDbVertex
100
AcDb2dVertex
 10
114.31266
 20
138.577057
 30
0.0
  0
VERTEX
  5
3A4
100
AcDbEntity
  8
0
370
     0
390
0
100
AcDbVertex
100
AcDb2dVertex
 10
114.196381
 20
138.551224
 30
0.0
  0
VERTEX
  5
3A5
100
AcDbEntity
  8
0
370
     0
390
0
100
AcDbVertex
100
AcDb2dVertex
 10
114.080643
 20
138.523041
 30
0.0
  0
VERTEX
  5
3A6
100
AcDbEntity
  8
0
370
     0
390
0
100
AcDbVertex
100
AcDb2dVertex
 10
113.963905
 20
138.492172
 30
0.0
  0
VERTEX
  5
3A7
100
AcDbEntity
  8
0
370
     0
390
0
100
AcDbVertex
100
AcDb2dVertex
 10
113.847801
 20
138.459015
 30
0.0
  0
VERTEX
  5
3A8
100
AcDbEntity
  8
0
370
     0
390
0
100
AcDbVertex
100
AcDb2dVertex
 10
113.730728
 20
138.423157
 30
0.0
  0
VERTEX
  5
3A9
100
AcDbEntity
  8
0
370
     0
390
0
100
AcDbVertex
100
AcDb2dVertex
 10
113.614349
 20
138.385101
 30
0.0
  0
VERTEX
  5
3AA
100
AcDbEntity
  8
0
370
     0
390
0
100
AcDbVertex
100
AcDb2dVertex
 10
113.49704
 20
138.34433
 30
0.0
  0
VERTEX
  5
3AB
100
AcDbEntity
  8
0
370
     0
390
0
100
AcDbVertex
100
AcDb2dVertex
 10
113.380486
 20
138.301453
 30
0.0
  0
VERTEX
  5
3AC
100
AcDbEntity
  8
0
370
     0
390
0
100
AcDbVertex
100
AcDb2dVertex
 10
113.248497
 20
138.250031
 30
0.0
  0
VERTEX
  5
3AD
100
AcDbEntity
  8
0
370
     0
390
0
100
AcDbVertex
100
AcDb2dVertex
 10
113.117538
 20
138.19603
 30
0.0
  0
VERTEX
  5
3AE
100
AcDbEntity
  8
0
370
     0
390
0
100
AcDbVertex
100
AcDb2dVertex
 10
112.985519
 20
138.138611
 30
0.0
  0
VERTEX
  5
3AF
100
AcDbEntity
  8
0
370
     0
390
0
100
AcDbVertex
100
AcDb2dVertex
 10
112.854599
 20
138.078705
 30
0.0
  0
VERTEX
  5
3B0
100
AcDbEntity
  8
0
370
     0
390
0
100
AcDbVertex
100
AcDb2dVertex
 10
112.722672
 20
138.015381
 30
0.0
  0
VERTEX
  5
3B1
100
AcDbEntity
  8
0
370
     0
390
0
100
AcDbVertex
100
AcDb2dVertex
 10
112.591919
 20
137.949677
 30
0.0
  0
VERTEX
  5
3B2
100
AcDbEntity
  8
0
370
     0
390
0
100
AcDbVertex
100
AcDb2dVertex
 10
112.460236
 20
137.880569
 30
0.0
  0
VERTEX
  5
3B3
100
AcDbEntity
  8
0
370
     0
390
0
100
AcDbVertex
100
AcDb2dVertex
 10
112.329773
 20
137.809174
 30
0.0
  0
VERTEX
  5
3B4
100
AcDbEntity
  8
0
370
     0
390
0
100
AcDbVertex
100
AcDb2dVertex
 10
112.198494
 20
137.734406
 30
0.0
  0
VERTEX
  5
3B5
100
AcDbEntity
  8
0
370
     0
390
0
100
AcDbVertex
100
AcDb2dVertex
 10
112.068489
 20
137.657455
 30
0.0
  0
VERTEX
  5
3B6
100
AcDbEntity
  8
0
370
     0
390
0
100
AcDbVertex
100
AcDb2dVertex
 10
111.937721
 20
137.577118
 30
0.0
  0
VERTEX
  5
3B7
100
AcDbEntity
  8
0
370
     0
390
0
100
AcDbVertex
100
AcDb2dVertex
 10
111.808266
 20
137.49469
 30
0.0
  0
VERTEX
  5
3B8
100
AcDbEntity
  8
0
370
     0
390
0
100
AcDbVertex
100
AcDb2dVertex
 10
111.678146
 20
137.40892
 30
0.0
  0
VERTEX
  5
3B9
100
AcDbEntity
  8
0
370
     0
390
0
100
AcDbVertex
100
AcDb2dVertex
 10
111.549377
 20
137.321136
 30
0.0
  0
VERTEX
  5
3BA
100
AcDbEntity
  8
0
370
     0
390
0
100
AcDbVertex
100
AcDb2dVertex
 10
111.420036
 20
137.230042
 30
0.0
  0
VERTEX
  5
3BB
100
AcDbEntity
  8
0
370
     0
390
0
100
AcDbVertex
100
AcDb2dVertex
 10
111.292084
 20
137.137024
 30
0.0
  0
VERTEX
  5
3BC
100
AcDbEntity
  8
0
370
     0
390
0
100
AcDbVertex
100
AcDb2dVertex
 10
111.163681
 20
137.040741
 30
0.0
  0
VERTEX
  5
3BD
100
AcDbEntity
  8
0
370
     0
390
0
100
AcDbVertex
100
AcDb2dVertex
 10
111.036682
 20
136.942627
 30
0.0
  0
VERTEX
  5
3BE
100
AcDbEntity
  8
0
370
     0
390
0
100
AcDbVertex
100
AcDb2dVertex
 10
110.909332
 20
136.841278
 30
0.0
  0
VERTEX
  5
3BF
100
AcDbEntity
  8
0
370
     0
390
0
100
AcDbVertex
100
AcDb2dVertex
 10
110.783417
 20
136.738159
 30
0.0
  0
VERTEX
  5
3C0
100
AcDbEntity
  8
0
370
     0
390
0
100
AcDbVertex
100
AcDb2dVertex
 10
110.657257
 20
136.631897
 30
0.0
  0
VERTEX
  5
3C1
100
AcDbEntity
  8
0
370
     0
390
0
100
AcDbVertex
100
AcDb2dVertex
 10
110.532555
 20
136.523926
 30
0.0
  0
VERTEX
  5
3C2
100
AcDbEntity
  8
0
370
     0
390
0
100
AcDbVertex
100
AcDb2dVertex
 10
110.407715
 20
136.412872
 30
0.0
  0
VERTEX
  5
3C3
100
AcDbEntity
  8
0
370
     0
390
0
100
AcDbVertex
100
AcDb2dVertex
 10
110.284348
 20
136.300156
 30
0.0
  0
VERTEX
  5
3C4
100
AcDbEntity
  8
0
370
     0
390
0
100
AcDbVertex
100
AcDb2dVertex
 10
110.16098
 20
136.184448
 30
0.0
  0
VERTEX
  5
3C5
100
AcDbEntity
  8
0
370
     0
390
0
100
AcDbVertex
100
AcDb2dVertex
 10
110.039108
 20
136.067169
 30
0.0
  0
VERTEX
  5
3C6
100
AcDbEntity
  8
0
370
     0
390
0
100
AcDbVertex
100
AcDb2dVertex
 10
109.917328
 20
135.946976
 30
0.0
  0
VERTEX
  5
3C7
100
AcDbEntity
  8
0
370
     0
390
0
100
AcDbVertex
100
AcDb2dVertex
 10
109.797066
 20
135.825256
 30
0.0
  0
VERTEX
  5
3C8
100
AcDbEntity
  8
0
370
     0
390
0
100
AcDbVertex
100
AcDb2dVertex
 10
109.677017
 20
135.700699
 30
0.0
  0
VERTEX
  5
3C9
100
AcDbEntity
  8
0
370
     0
390
0
100
AcDbVertex
100
AcDb2dVertex
 10
109.558495
 20
135.574677
 30
0.0
  0
VERTEX
  5
3CA
100
AcDbEntity
  8
0
370
     0
390
0
100
AcDbVertex
100
AcDb2dVertex
 10
109.4403
 20
135.445923
 30
0.0
  0
VERTEX
  5
3CB
100
AcDbEntity
  8
0
370
     0
390
0
100
AcDbVertex
100
AcDb2dVertex
 10
109.323654
 20
135.315765
 30
0.0
  0
VERTEX
  5
3CC
100
AcDbEntity
  8
0
370
     0
390
0
100
AcDbVertex
100
AcDb2dVertex
 10
109.207458
 20
135.182983
 30
0.0
  0
VERTEX
  5
3CD
100
AcDbEntity
  8
0
370
     0
390
0
100
AcDbVertex
100
AcDb2dVertex
 10
109.092827
 20
135.048859
 30
0.0
  0
VERTEX
  5
3CE
100
AcDbEntity
  8
0
370
     0
390
0
100
AcDbVertex
100
AcDb2dVertex
 10
108.978752
 20
134.912201
 30
0.0
  0
VERTEX
  5
3CF
100
AcDbEntity
  8
0
370
     0
390
0
100
AcDbVertex
100
AcDb2dVertex
 10
108.866257
 20
134.774261
 30
0.0
  0
VERTEX
  5
3D0
100
AcDbEntity
  8
0
370
     0
390
0
100
AcDbVertex
100
AcDb2dVertex
 10
108.754425
 20
134.633896
 30
0.0
  0
VERTEX
  5
3D1
100
AcDbEntity
  8
0
370
     0
390
0
100
AcDbVertex
100
AcDb2dVertex
 10
108.644196
 20
134.492294
 30
0.0
  0
VERTEX
  5
3D2
100
AcDbEntity
  8
0
370
     0
390
0
100
AcDbVertex
100
AcDb2dVertex
 10
108.534752
 20
134.348404
 30
0.0
  0
VERTEX
  5
3D3
100
AcDbEntity
  8
0
370
     0
390
0
100
AcDbVertex
100
AcDb2dVertex
 10
108.426903
 20
134.203308
 30
0.0
  0
VERTEX
  5
3D4
100
AcDbEntity
  8
0
370
     0
390
0
100
AcDbVertex
100
AcDb2dVertex
 10
108.319962
 20
134.056091
 30
0.0
  0
VERTEX
  5
3D5
100
AcDbEntity
  8
0
370
     0
390
0
100
AcDbVertex
100
AcDb2dVertex
 10
108.214638
 20
133.907684
 30
0.0
  0
VERTEX
  5
3D6
100
AcDbEntity
  8
0
370
     0
390
0
100
AcDbVertex
100
AcDb2dVertex
 10
108.007645
 20
133.605759
 30
0.0
  0
VERTEX
  5
3D7
100
AcDbEntity
  8
0
370
     0
390
0
100
AcDbVertex
100
AcDb2dVertex
 10
107.806145
 20
133.297882
 30
0.0
  0
VERTEX
  5
3D8
100
AcDbEntity
  8
0
370
     0
390
0
100
AcDbVertex
100
AcDb2dVertex
 10
107.610397
 20
132.984467
 30
0.0
  0
VERTEX
  5
3D9
100
AcDbEntity
  8
0
370
     0
390
0
100
AcDbVertex
100
AcDb2dVertex
 10
107.420616
 20
132.665833
 30
0.0
  0
VERTEX
  5
3DA
100
AcDbEntity
  8
0
370
     0
390
0
100
AcDbVertex
100
AcDb2dVertex
 10
107.23703
 20
132.342438
 30
0.0
  0
VERTEX
  5
3DB
100
AcDbEntity
  8
0
370
     0
390
0
100
AcDbVertex
100
AcDb2dVertex
 10
107.059868
 20
132.014618
 30
0.0
  0
VERTEX
  5
3DC
100
AcDbEntity
  8
0
370
     0
390
0
100
AcDbVertex
100
AcDb2dVertex
 10
106.88932
 20
131.682785
 30
0.0
  0
VERTEX
  5
3DD
100
AcDbEntity
  8
0
370
     0
390
0
100
AcDbVertex
100
AcDb2dVertex
 10
106.725609
 20
131.347351
 30
0.0
  0
VERTEX
  5
3DE
100
AcDbEntity
  8
0
370
     0
390
0
100
AcDbVertex
100
AcDb2dVertex
 10
106.568916
 20
131.008698
 30
0.0
  0
VERTEX
  5
3DF
100
AcDbEntity
  8
0
370
     0
390
0
100
AcDbVertex
100
AcDb2dVertex
 10
106.419449
 20
130.667236
 30
0.0
  0
VERTEX
  5
3E0
100
AcDbEntity
  8
0
370
     0
390
0
100
AcDbVertex
100
AcDb2dVertex
 10
106.277374
 20
130.323395
 30
0.0
  0
SEQEND
  5
3E1
100
AcDbEntity
  8
0
370
     0
390
0
  0
LINE
  5
3E2
100
AcDbEntity
  8
0
370
    35
390
0
 62
     7
100
AcDbLine
 10
106.277374
 20
130.323395
 30
0.0
 11
91.794617
 21
94.209961
 31
0.0
210
0.0
220
0.0
230
1.0
  0
POLYLINE
  5
3E3
100
AcDbEntity
  8
0
370
    35
390
0
 62
     7
100
AcDb2dPolyline
 66
     1
 10
0.0
 20
0.0
 30
0.0
 71
    70
  0
VERTEX
  5
3E4
100
AcDbEntity
  8
0
370
     0
390
0
100
AcDbVertex
100
AcDb2dVertex
 10
91.794617
 20
94.209961
 30
0.0
  0
VERTEX
  5
3E5
100
AcDbEntity
  8
0
370
     0
390
0
100
AcDbVertex
100
AcDb2dVertex
 10
91.670654
 20
93.891235
 30
0.0
  0
VERTEX
  5
3E6
100
AcDbEntity
  8
0
370
     0
390
0
100
AcDbVertex
100
AcDb2dVertex
 10
91.553818
 20
93.57106
 30
0.0
  0
VERTEX
  5
3E7
100
AcDbEntity
  8
0
370
     0
390
0
100
AcDbVertex
100
AcDb2dVertex
 10
91.444252
 20
93.249817
 30
0.0
  0
VERTEX
  5
3E8
100
AcDbEntity
  8
0
370
     0
390
0
100
AcDbVertex
100
AcDb2dVertex
 10
91.342102
 20
92.927887
 30
0.0
  0
VERTEX
  5
3E9
100
AcDbEntity
  8
0
370
     0
390
0
100
AcDbVertex
100
AcDb2dVertex
 10
91.247482
 20
92.605637
 30
0.0
  0
VERTEX
  5
3EA
100
AcDbEntity
  8
0
370
     0
390
0
100
AcDbVertex
100
AcDb2dVertex
 10
91.16053
 20
92.28347
 30
0.0
  0
VERTEX
  5
3EB
100
AcDbEntity
  8
0
370
     0
390
0
100
AcDbVertex
100
AcDb2dVertex
 10
91.081352
 20
91.961754
 30
0.0
  0
VERTEX
  5
3EC
100
AcDbEntity
  8
0
370
     0
390
0
100
AcDbVertex
100
AcDb2dVertex
 10
91.010056
 20
91.640869
 30
0.0
  0
VERTEX
  5
3ED
100
AcDbEntity
  8
0
370
     0
390
0
100
AcDbVertex
100
AcDb2dVertex
 10
90.946739
 20
91.321167
 30
0.0
  0
VERTEX
  5
3EE
100
AcDbEntity
  8
0
370
     0
390
0
100
AcDbVertex
100
AcDb2dVertex
 10
90.891487
 20
91.003052
 30
0.0
  0
VERTEX
  5
3EF
100
AcDbEntity
  8
0
370
     0
390
0
100
AcDbVertex
100
AcDb2dVertex
 10
90.844391
 20
90.68689
 30
0.0
  0
VERTEX
  5
3F0
100
AcDbEntity
  8
0
370
     0
390
0
100
AcDbVertex
100
AcDb2dVertex
 10
90.823914
 20
90.529633
 30
0.0
  0
VERTEX
  5
3F1
100
AcDbEntity
  8
0
370
     0
390
0
100
AcDbVertex
100
AcDb2dVertex
 10
90.805519
 20
90.373039
 30
0.0
  0
VERTEX
  5
3F2
100
AcDbEntity
  8
0
370
     0
390
0
100
AcDbVertex
100
AcDb2dVertex
 10
90.789185
 20
90.217079
 30
0.0
  0
VERTEX
  5
3F3
100
AcDbEntity
  8
0
370
     0
390
0
100
AcDbVertex
100
AcDb2dVertex
 10
90.77494
 20
90.061836
 30
0.0
  0
VERTEX
  5
3F4
100
AcDbEntity
  8
0
370
     0
390
0
100
AcDbVertex
100
AcDb2dVertex
 10
90.762787
 20
89.907349
 30
0.0
  0
VERTEX
  5
3F5
100
AcDbEntity
  8
0
370
     0
390
0
100
AcDbVertex
100
AcDb2dVertex
 10
90.752724
 20
89.75367
 30
0.0
  0
VERTEX
  5
3F6
100
AcDbEntity
  8
0
370
     0
390
0
100
AcDbVertex
100
AcDb2dVertex
 10
90.744766
 20
89.60083
 30
0.0
  0
VERTEX
  5
3F7
100
AcDbEntity
  8
0
370
     0
390
0
100
AcDbVertex
100
AcDb2dVertex
 10
90.738922
 20
89.448891
 30
0.0
  0
VERTEX
  5
3F8
100
AcDbEntity
  8
0
370
     0
390
0
100
AcDbVertex
100
AcDb2dVertex
 10
90.735184
 20
89.297882
 30
0.0
  0
VERTEX
  5
3F9
100
AcDbEntity
  8
0
370
     0
390
0
100
AcDbVertex
100
AcDb2dVertex
 10
90.733574
 20
89.147858
 30
0.0
  0
VERTEX
  5
3FA
100
AcDbEntity
  8
0
370
     0
390
0
100
AcDbVertex
100
AcDb2dVertex
 10
90.734085
 20
88.998817
 30
0.0
  0
VERTEX
  5
3FB
100
AcDbEntity
  8
0
370
     0
390
0
100
AcDbVertex
100
AcDb2dVertex
 10
90.736732
 20
88.850845
 30
0.0
  0
VERTEX
  5
3FC
100
AcDbEntity
  8
0
370
     0
390
0
100
AcDbVertex
100
AcDb2dVertex
 10
90.741516
 20
88.703979
 30
0.0
  0
VERTEX
  5
3FD
100
AcDbEntity
  8
0
370
     0
390
0
100
AcDbVertex
100
AcDb2dVertex
 10
90.748436
 20
88.558258
 30
0.0
  0
VERTEX
  5
3FE
100
AcDbEntity
  8
0
370
     0
390
0
100
AcDbVertex
100
AcDb2dVertex
 10
90.757492
 20
88.413727
 30
0.0
  0
VERTEX
  5
3FF
100
AcDbEntity
  8
0
370
     0
390
0
100
AcDbVertex
100
AcDb2dVertex
 10
90.768707
 20
88.270416
 30
0.0
  0
VERTEX
  5
400
100
AcDbEntity
  8
0
370
     0
390
0
100
AcDbVertex
100
AcDb2dVertex
 10
90.782066
 20
88.128387
 30
0.0
  0
VERTEX
  5
401
100
AcDbEntity
  8
0
370
     0
390
0
100
AcDbVertex
100
AcDb2dVertex
 10
90.797577
 20
87.987656
 30
0.0
  0
VERTEX
  5
402
100
AcDbEntity
  8
0
370
     0
390
0
100
AcDbVertex
100
AcDb2dVertex
 10
90.815247
 20
87.848251
 30
0.0
  0
VERTEX
  5
403
100
AcDbEntity
  8
0
370
     0
390
0
100
AcDbVertex
100
AcDb2dVertex
 10
90.835075
 20
87.710236
 30
0.0
  0
VERTEX
  5
404
100
AcDbEntity
  8
0
370
     0
390
0
100
AcDbVertex
100
AcDb2dVertex
 10
90.857071
 20
87.573647
 30
0.0
  0
VERTEX
  5
405
100
AcDbEntity
  8
0
370
     0
390
0
100
AcDbVertex
100
AcDb2dVertex
 10
90.881226
 20
87.43853
 30
0.0
  0
VERTEX
  5
406
100
AcDbEntity
  8
0
370
     0
390
0
100
AcDbVertex
100
AcDb2dVertex
 10
90.907539
 20
87.304924
 30
0.0
  0
VERTEX
  5
407
100
AcDbEntity
  8
0
370
     0
390
0
100
AcDbVertex
100
AcDb2dVertex
 10
90.936028
 20
87.172867
 30
0.0
  0
VERTEX
  5
408
100
AcDbEntity
  8
0
370
     0
390
0
100
AcDbVertex
100
AcDb2dVertex
 10
90.966675
 20
87.042404
 30
0.0
  0
VERTEX
  5
409
100
AcDbEntity
  8
0
370
     0
390
0
100
AcDbVertex
100
AcDb2dVertex
 10
90.999496
 20
86.913559
 30
0.0
  0
VERTEX
  5
40A
100
AcDbEntity
  8
0
370
     0
390
0
100
AcDbVertex
100
AcDb2dVertex
 10
91.0345
 20
86.786346
 30
0.0
  0
VERTEX
  5
40B
100
AcDbEntity
  8
0
370
     0
390
0
100
AcDbVertex
100
AcDb2dVertex
 10
91.071671
 20
86.660828
 30
0.0
  0
VERTEX
  5
40C
100
AcDbEntity
  8
0
370
     0
390
0
100
AcDbVertex
100
AcDb2dVertex
 10
91.111015
 20
86.537064
 30
0.0
  0
VERTEX
  5
40D
100
AcDbEntity
  8
0
370
     0
390
0
100
AcDbVertex
100
AcDb2dVertex
 10
91.152527
 20
86.415085
 30
0.0
  0
VERTEX
  5
40E
100
AcDbEntity
  8
0
370
     0
390
0
100
AcDbVertex
100
AcDb2dVertex
 10
91.196213
 20
86.294937
 30
0.0
  0
VERTEX
  5
40F
100
AcDbEntity
  8
0
370
     0
390
0
100
AcDbVertex
100
AcDb2dVertex
 10
91.242073
 20
86.176651
 30
0.0
  0
VERTEX
  5
410
100
AcDbEntity
  8
0
370
     0
390
0
100
AcDbVertex
100
AcDb2dVertex
 10
91.290092
 20
86.060272
 30
0.0
  0
VERTEX
  5
411
100
AcDbEntity
  8
0
370
     0
390
0
100
AcDbVertex
100
AcDb2dVertex
 10
91.340286
 20
85.945847
 30
0.0
  0
VERTEX
  5
412
100
AcDbEntity
  8
0
370
     0
390
0
100
AcDbVertex
100
AcDb2dVertex
 10
91.418129
 20
85.780975
 30
0.0
  0
VERTEX
  5
413
100
AcDbEntity
  8
0
370
     0
390
0
100
AcDbVertex
100
AcDb2dVertex
 10
91.509926
 20
85.603363
 30
0.0
  0
VERTEX
  5
414
100
AcDbEntity
  8
0
370
     0
390
0
100
AcDbVertex
100
AcDb2dVertex
 10
91.607468
 20
85.431412
 30
0.0
  0
VERTEX
  5
415
100
AcDbEntity
  8
0
370
     0
390
0
100
AcDbVertex
100
AcDb2dVertex
 10
91.658241
 20
85.347832
 30
0.0
  0
VERTEX
  5
416
100
AcDbEntity
  8
0
370
     0
390
0
100
AcDbVertex
100
AcDb2dVertex
 10
91.710709
 20
85.265305
 30
0.0
  0
VERTEX
  5
417
100
AcDbEntity
  8
0
370
     0
390
0
100
AcDbVertex
100
AcDb2dVertex
 10
91.76432
 20
85.184708
 30
0.0
  0
VERTEX
  5
418
100
AcDbEntity
  8
0
370
     0
390
0
100
AcDbVertex
100
AcDb2dVertex
 10
91.819611
 20
85.105255
 30
0.0
  0
VERTEX
  5
419
100
AcDbEntity
  8
0
370
     0
390
0
100
AcDbVertex
100
AcDb2dVertex
 10
91.889175
 20
85.010201
 30
0.0
  0
VERTEX
  5
41A
100
AcDbEntity
  8
0
370
     0
390
0
100
AcDbVertex
100
AcDb2dVertex
 10
91.960831
 20
84.917542
 30
0.0
  0
VERTEX
  5
41B
100
AcDbEntity
  8
0
370
     0
390
0
100
AcDbVertex
100
AcDb2dVertex
 10
92.034569
 20
84.827332
 30
0.0
  0
VERTEX
  5
41C
100
AcDbEntity
  8
0
370
     0
390
0
100
AcDbVertex
100
AcDb2dVertex
 10
92.110367
 20
84.739624
 30
0.0
  0
VERTEX
  5
41D
100
AcDbEntity
  8
0
370
     0
390
0
100
AcDbVertex
100
AcDb2dVertex
 10
92.188217
 20
84.654449
 30
0.0
  0
VERTEX
  5
41E
100
AcDbEntity
  8
0
370
     0
390
0
100
AcDbVertex
100
AcDb2dVertex
 10
92.268082
 20
84.571869
 30
0.0
  0
VERTEX
  5
41F
100
AcDbEntity
  8
0
370
     0
390
0
100
AcDbVertex
100
AcDb2dVertex
 10
92.349937
 20
84.491928
 30
0.0
  0
VERTEX
  5
420
100
AcDbEntity
  8
0
370
     0
390
0
100
AcDbVertex
100
AcDb2dVertex
 10
92.433762
 20
84.414673
 30
0.0
  0
VERTEX
  5
421
100
AcDbEntity
  8
0
370
     0
390
0
100
AcDbVertex
100
AcDb2dVertex
 10
92.519608
 20
84.340088
 30
0.0
  0
VERTEX
  5
422
100
AcDbEntity
  8
0
370
     0
390
0
100
AcDbVertex
100
AcDb2dVertex
 10
92.607262
 20
84.268356
 30
0.0
  0
VERTEX
  5
423
100
AcDbEntity
  8
0
370
     0
390
0
100
AcDbVertex
100
AcDb2dVertex
 10
92.696861
 20
84.199402
 30
0.0
  0
VERTEX
  5
424
100
AcDbEntity
  8
0
370
     0
390
0
100
AcDbVertex
100
AcDb2dVertex
 10
92.788208
 20
84.133377
 30
0.0
  0
VERTEX
  5
425
100
AcDbEntity
  8
0
370
     0
390
0
100
AcDbVertex
100
AcDb2dVertex
 10
92.881393
 20
84.070221
 30
0.0
  0
VERTEX
  5
426
100
AcDbEntity
  8
0
370
     0
390
0
100
AcDbVertex
100
AcDb2dVertex
 10
92.976257
 20
84.010071
 30
0.0
  0
VERTEX
  5
427
100
AcDbEntity
  8
0
370
     0
390
0
100
AcDbVertex
100
AcDb2dVertex
 10
93.072845
 20
83.952888
 30
0.0
  0
VERTEX
  5
428
100
AcDbEntity
  8
0
370
     0
390
0
100
AcDbVertex
100
AcDb2dVertex
 10
93.171036
 20
83.898758
 30
0.0
  0
VERTEX
  5
429
100
AcDbEntity
  8
0
370
     0
390
0
100
AcDbVertex
100
AcDb2dVertex
 10
93.288834
 20
83.838882
 30
0.0
  0
SEQEND
  5
42A
100
AcDbEntity
  8
0
370
     0
390
0
  0
ELLIPSE
  5
42B
100
AcDbEntity
  8
0
370
    35
390
0
 62
     7
100
AcDbEllipse
 10
171.99617
 20
113.451324
 30
0.0
 11
-4.2259140014648437
 21
-8.6088066101074219
 31
0.0
210
0.0
220
0.0
230
1.0
 40
0.590375
 41
1.6972946180254014
 42
2.2445380182906267
  0
POLYLINE
  5
42C
100
AcDbEntity
  8
0
370
    35
390
0
 62
     7
100
AcDb2dPolyline
 66
     1
 10
0.0
 20
0.0
 30
0.0
 71
    68
  0
VERTEX
  5
42D
100
AcDbEntity
  8
0
370
     0
390
0
100
AcDbVertex
100
AcDb2dVertex
 10
154.479004
 20
67.36969
 30
0.0
  0
VERTEX
  5
42E
100
AcDbEntity
  8
0
370
     0
390
0
100
AcDbVertex
100
AcDb2dVertex
 10
154.614807
 20
67.386368
 30
0.0
  0
VERTEX
  5
42F
100
AcDbEntity
  8
0
370
     0
390
0
100
AcDbVertex
100
AcDb2dVertex
 10
154.750153
 20
67.40654
 30
0.0
  0
VERTEX
  5
430
100
AcDbEntity
  8
0
370
     0
390
0
100
AcDbVertex
100
AcDb2dVertex
 10
154.84758
 20
67.422935
 30
0.0
  0
VERTEX
  5
431
100
AcDbEntity
  8
0
370
     0
390
0
100
AcDbVertex
100
AcDb2dVertex
 10
154.944672
 20
67.441116
 30
0.0
  0
VERTEX
  5
432
100
AcDbEntity
  8
0
370
     0
390
0
100
AcDbVertex
100
AcDb2dVertex
 10
155.088837
 20
67.471901
 30
0.0
  0
VERTEX
  5
433
100
AcDbEntity
  8
0
370
     0
390
0
100
AcDbVertex
100
AcDb2dVertex
 10
155.214325
 20
67.501564
 30
0.0
  0
VERTEX
  5
434
100
AcDbEntity
  8
0
370
     0
390
0
100
AcDbVertex
100
AcDb2dVertex
 10
155.339142
 20
67.533806
 30
0.0
  0
VERTEX
  5
435
100
AcDbEntity
  8
0
370
     0
390
0
100
AcDbVertex
100
AcDb2dVertex
 10
155.45665
 20
67.566902
 30
0.0
  0
VERTEX
  5
436
100
AcDbEntity
  8
0
370
     0
390
0
100
AcDbVertex
100
AcDb2dVertex
 10
155.573456
 20
67.602364
 30
0.0
  0
VERTEX
  5
437
100
AcDbEntity
  8
0
370
     0
390
0
100
AcDbVertex
100
AcDb2dVertex
 10
155.691254
 20
67.640564
 30
0.0
  0
VERTEX
  5
438
100
AcDbEntity
  8
0
370
     0
390
0
100
AcDbVertex
100
AcDb2dVertex
 10
155.808289
 20
67.680969
 30
0.0
  0
VERTEX
  5
439
100
AcDbEntity
  8
0
370
     0
390
0
100
AcDbVertex
100
AcDb2dVertex
 10
155.93103
 20
67.725983
 30
0.0
  0
VERTEX
  5
43A
100
AcDbEntity
  8
0
370
     0
390
0
100
AcDbVertex
100
AcDb2dVertex
 10
156.052917
 20
67.7733
 30
0.0
  0
VERTEX
  5
43B
100
AcDbEntity
  8
0
370
     0
390
0
100
AcDbVertex
100
AcDb2dVertex
 10
156.187515
 20
67.828514
 30
0.0
  0
VERTEX
  5
43C
100
AcDbEntity
  8
0
370
     0
390
0
100
AcDbVertex
100
AcDb2dVertex
 10
156.320984
 20
67.886368
 30
0.0
  0
VERTEX
  5
43D
100
AcDbEntity
  8
0
370
     0
390
0
100
AcDbVertex
100
AcDb2dVertex
 10
156.453644
 20
67.94696
 30
0.0
  0
VERTEX
  5
43E
100
AcDbEntity
  8
0
370
     0
390
0
100
AcDbVertex
100
AcDb2dVertex
 10
156.585144
 20
68.010056
 30
0.0
  0
VERTEX
  5
43F
100
AcDbEntity
  8
0
370
     0
390
0
100
AcDbVertex
100
AcDb2dVertex
 10
156.717606
 20
68.076645
 30
0.0
  0
VERTEX
  5
440
100
AcDbEntity
  8
0
370
     0
390
0
100
AcDbVertex
100
AcDb2dVertex
 10
156.848862
 20
68.145599
 30
0.0
  0
VERTEX
  5
441
100
AcDbEntity
  8
0
370
     0
390
0
100
AcDbVertex
100
AcDb2dVertex
 10
156.980988
 20
68.218018
 30
0.0
  0
VERTEX
  5
442
100
AcDbEntity
  8
0
370
     0
390
0
100
AcDbVertex
100
AcDb2dVertex
 10
157.111847
 20
68.292725
 30
0.0
  0
VERTEX
  5
443
100
AcDbEntity
  8
0
370
     0
390
0
100
AcDbVertex
100
AcDb2dVertex
 10
157.2435
 20
68.37088
 30
0.0
  0
VERTEX
  5
444
100
AcDbEntity
  8
0
370
     0
390
0
100
AcDbVertex
100
AcDb2dVertex
 10
157.37384
 20
68.451218
 30
0.0
  0
VERTEX
  5
445
100
AcDbEntity
  8
0
370
     0
390
0
100
AcDbVertex
100
AcDb2dVertex
 10
157.504883
 20
68.534981
 30
0.0
  0
VERTEX
  5
446
100
AcDbEntity
  8
0
370
     0
390
0
100
AcDbVertex
100
AcDb2dVertex
 10
157.634583
 20
68.62085
 30
0.0
  0
VERTEX
  5
447
100
AcDbEntity
  8
0
370
     0
390
0
100
AcDbVertex
100
AcDb2dVertex
 10
157.764893
 20
68.710106
 30
0.0
  0
VERTEX
  5
448
100
AcDbEntity
  8
0
370
     0
390
0
100
AcDbVertex
100
AcDb2dVertex
 10
157.893814
 20
68.801376
 30
0.0
  0
VERTEX
  5
449
100
AcDbEntity
  8
0
370
     0
390
0
100
AcDbVertex
100
AcDb2dVertex
 10
158.023224
 20
68.895981
 30
0.0
  0
VERTEX
  5
44A
100
AcDbEntity
  8
0
370
     0
390
0
100
AcDbVertex
100
AcDb2dVertex
 10
158.151215
 20
68.992523
 30
0.0
  0
VERTEX
  5
44B
100
AcDbEntity
  8
0
370
     0
390
0
100
AcDbVertex
100
AcDb2dVertex
 10
158.279602
 20
69.092354
 30
0.0
  0
VERTEX
  5
44C
100
AcDbEntity
  8
0
370
     0
390
0
100
AcDbVertex
100
AcDb2dVertex
 10
158.406525
 20
69.194031
 30
0.0
  0
VERTEX
  5
44D
100
AcDbEntity
  8
0
370
     0
390
0
100
AcDbVertex
100
AcDb2dVertex
 10
158.533737
 20
69.29895
 30
0.0
  0
VERTEX
  5
44E
100
AcDbEntity
  8
0
370
     0
390
0
100
AcDbVertex
100
AcDb2dVertex
 10
158.659485
 20
69.405647
 30
0.0
  0
VERTEX
  5
44F
100
AcDbEntity
  8
0
370
     0
390
0
100
AcDbVertex
100
AcDb2dVertex
 10
158.7854
 20
69.515518
 30
0.0
  0
VERTEX
  5
450
100
AcDbEntity
  8
0
370
     0
390
0
100
AcDbVertex
100
AcDb2dVertex
 10
158.909821
 20
69.627098
 30
0.0
  0
VERTEX
  5
451
100
AcDbEntity
  8
0
370
     0
390
0
100
AcDbVertex
100
AcDb2dVertex
 10
159.034271
 20
69.74176
 30
0.0
  0
VERTEX
  5
452
100
AcDbEntity
  8
0
370
     0
390
0
100
AcDbVertex
100
AcDb2dVertex
 10
159.157211
 20
69.858063
 30
0.0
  0
VERTEX
  5
453
100
AcDbEntity
  8
0
370
     0
390
0
100
AcDbVertex
100
AcDb2dVertex
 10
159.28009
 20
69.977371
 30
0.0
  0
VERTEX
  5
454
100
AcDbEntity
  8
0
370
     0
390
0
100
AcDbVertex
100
AcDb2dVertex
 10
159.401413
 20
70.098251
 30
0.0
  0
VERTEX
  5
455
100
AcDbEntity
  8
0
370
     0
390
0
100
AcDbVertex
100
AcDb2dVertex
 10
159.522568
 20
70.222061
 30
0.0
  0
VERTEX
  5
456
100
AcDbEntity
  8
0
370
     0
390
0
100
AcDbVertex
100
AcDb2dVertex
 10
159.642151
 20
70.347374
 30
0.0
  0
VERTEX
  5
457
100
AcDbEntity
  8
0
370
     0
390
0
100
AcDbVertex
100
AcDb2dVertex
 10
159.761444
 20
70.47551
 30
0.0
  0
VERTEX
  5
458
100
AcDbEntity
  8
0
370
     0
390
0
100
AcDbVertex
100
AcDb2dVertex
 10
159.879166
 20
70.605103
 30
0.0
  0
VERTEX
  5
459
100
AcDbEntity
  8
0
370
     0
390
0
100
AcDbVertex
100
AcDb2dVertex
 10
159.996445
 20
70.737404
 30
0.0
  0
VERTEX
  5
45A
100
AcDbEntity
  8
0
370
     0
390
0
100
AcDbVertex
100
AcDb2dVertex
 10
160.112152
 20
70.871101
 30
0.0
  0
VERTEX
  5
45B
100
AcDbEntity
  8
0
370
     0
390
0
100
AcDbVertex
100
AcDb2dVertex
 10
160.227295
 20
71.007401
 30
0.0
  0
VERTEX
  5
45C
100
AcDbEntity
  8
0
370
     0
390
0
100
AcDbVertex
100
AcDb2dVertex
 10
160.340836
 20
71.145042
 30
0.0
  0
VERTEX
  5
45D
100
AcDbEntity
  8
0
370
     0
390
0
100
AcDbVertex
100
AcDb2dVertex
 10
160.45372
 20
71.285172
 30
0.0
  0
VERTEX
  5
45E
100
AcDbEntity
  8
0
370
     0
390
0
100
AcDbVertex
100
AcDb2dVertex
 10
160.564972
 20
71.426582
 30
0.0
  0
VERTEX
  5
45F
100
AcDbEntity
  8
0
370
     0
390
0
100
AcDbVertex
100
AcDb2dVertex
 10
160.675446
 20
71.570358
 30
0.0
  0
VERTEX
  5
460
100
AcDbEntity
  8
0
370
     0
390
0
100
AcDbVertex
100
AcDb2dVertex
 10
160.784302
 20
71.71537
 30
0.0
  0
VERTEX
  5
461
100
AcDbEntity
  8
0
370
     0
390
0
100
AcDbVertex
100
AcDb2dVertex
 10
160.892242
 20
71.862595
 30
0.0
  0
VERTEX
  5
462
100
AcDbEntity
  8
0
370
     0
390
0
100
AcDbVertex
100
AcDb2dVertex
 10
160.998535
 20
72.011024
 30
0.0
  0
VERTEX
  5
463
100
AcDbEntity
  8
0
370
     0
390
0
100
AcDbVertex
100
AcDb2dVertex
 10
161.103821
 20
72.16153
 30
0.0
  0
VERTEX
  5
464
100
AcDbEntity
  8
0
370
     0
390
0
100
AcDbVertex
100
AcDb2dVertex
 10
161.207443
 20
72.313187
 30
0.0
  0
VERTEX
  5
465
100
AcDbEntity
  8
0
370
     0
390
0
100
AcDbVertex
100
AcDb2dVertex
 10
161.309937
 20
72.466782
 30
0.0
  0
VERTEX
  5
466
100
AcDbEntity
  8
0
370
     0
390
0
100
AcDbVertex
100
AcDb2dVertex
 10
161.410767
 20
72.621475
 30
0.0
  0
VERTEX
  5
467
100
AcDbEntity
  8
0
370
     0
390
0
100
AcDbVertex
100
AcDb2dVertex
 10
161.510345
 20
72.777962
 30
0.0
  0
VERTEX
  5
468
100
AcDbEntity
  8
0
370
     0
390
0
100
AcDbVertex
100
AcDb2dVertex
 10
161.608246
 20
72.935516
 30
0.0
  0
VERTEX
  5
469
100
AcDbEntity
  8
0
370
     0
390
0
100
AcDbVertex
100
AcDb2dVertex
 10
161.799667
 20
73.254898
 30
0.0
  0
VERTEX
  5
46A
100
AcDbEntity
  8
0
370
     0
390
0
100
AcDbVertex
100
AcDb2dVertex
 10
161.984772
 20
73.579224
 30
0.0
  0
VERTEX
  5
46B
100
AcDbEntity
  8
0
370
     0
390
0
100
AcDbVertex
100
AcDb2dVertex
 10
162.163361
 20
73.908096
 30
0.0
  0
VERTEX
  5
46C
100
AcDbEntity
  8
0
370
     0
390
0
100
AcDbVertex
100
AcDb2dVertex
 10
162.33519
 20
74.241112
 30
0.0
  0
VERTEX
  5
46D
100
AcDbEntity
  8
0
370
     0
390
0
100
AcDbVertex
100
AcDb2dVertex
 10
162.500046
 20
74.577835
 30
0.0
  0
VERTEX
  5
46E
100
AcDbEntity
  8
0
370
     0
390
0
100
AcDbVertex
100
AcDb2dVertex
 10
162.657745
 20
74.917862
 30
0.0
  0
VERTEX
  5
46F
100
AcDbEntity
  8
0
370
     0
390
0
100
AcDbVertex
100
AcDb2dVertex
 10
162.808075
 20
75.260773
 30
0.0
  0
VERTEX
  5
470
100
AcDbEntity
  8
0
370
     0
390
0
100
AcDbVertex
100
AcDb2dVertex
 10
162.950836
 20
75.606125
 30
0.0
  0
SEQEND
  5
471
100
AcDbEntity
  8
0
370
     0
390
0
  0
ENDSEC
  0
SECTION
  2
OBJECTS
  0
DICTIONARY
  5
19
100
AcDbDictionary
280
     0
281
     1
  3
ACAD_GROUP
350
1A
  3
ACAD_MLINESTYLE
350
1B
  3
ACAD_LAYOUT
350
1E
  3
ACAD_PLOTSETTINGS
350
22
  3
ACAD_PLOTSTYLENAME
350
1F
  3
ACAD_WIPEOUT_VARS
350
23
  0
DICTIONARY
  5
1A
102
{ACAD_REACTORS
330
19
102
}
100
AcDbDictionary
280
     0
281
     1
  0
DICTIONARY
  5
1B
102
{ACAD_REACTORS
330
19
102
}
100
AcDbDictionary
280
     0
281
     1
  3
Standard
350
1C
  0
MLINESTYLE
  5
1C
102
{ACAD_REACTORS
330
1B
102
}
100
AcDbMlineStyle
  2
Standard
 70
     0
  3

 62
     0
 51
90.0
 52
90.0
 71
     2
 49
0.5
 62
   256
  6
ByLayer
 49
-0.5
 62
   256
  6
ByLayer
  0
ACDBDICTIONARYWDFLT
  5
1F
102
{ACAD_REACTORS
330
19
102
}
100
AcDbDictionary
281
     1
  3
Normal
350
1D
100
AcDbDictionaryWithDefault
340
1D
  0
ACDBPLACEHOLDER
  5
1D
102
{ACAD_REACTORS
330
1F
102
}
  0
LAYOUT
  5
20
102
{ACAD_REACTORS
330
1E
102
}
100
AcDbPlotSettings
  1

  2

  4

  6

 40
0.0
 41
0.0
 42
0.0
 43
0.0
 44
0.0
 45
0.0
 46
0.0
 47
0.0
 48
0.0
 49
0.0
140
0.0
141
0.0
142
1.0
143
1.0
 70
  1024
 72
     0
 73
     0
 74
     0
  7

 75
     0
147
1.0
148
0.0
149
0.0
100
AcDbLayout
  1
Model
 70
     0
 71
     0
 10
0.0
 20
0.0
 11
0.0
 21
0.0
 12
0.0
 22
0.0
 32
0.0
 14
0.0
 24
0.0
 34
0.0
 15
0.0
 25
0.0
 35
0.0
146
0.0
 13
0.0
 23
0.0
 33
0.0
 16
0.0
 26
0.0
 36
0.0
 17
0.0
 27
0.0
 37
0.0
 76
     0
330
A
331
0
345
0
346
0
  0
LAYOUT
  5
21
102
{ACAD_REACTORS
330
1E
102
}
100
AcDbPlotSettings
  1

  2

  4

  6

 40
0.0
 41
0.0
 42
0.0
 43
0.0
 44
0.0
 45
0.0
 46
0.0
 47
0.0
 48
0.0
 49
0.0
140
0.0
141
0.0
142
1.0
143
1.0
 70
     0
 72
     0
 73
     0
 74
     0
  7

 75
     0
147
1.0
148
0.0
149
0.0
100
AcDbLayout
  1
Layout1
 70
     0
 71
     0
 10
0.0
 20
0.0
 11
0.0
 21
0.0
 12
0.0
 22
0.0
 32
0.0
 14
0.0
 24
0.0
 34
0.0
 15
0.0
 25
0.0
 35
0.0
146
0.0
 13
0.0
 23
0.0
 33
0.0
 16
0.0
 26
0.0
 36
0.0
 17
0.0
 27
0.0
 37
0.0
 76
     0
330
B
331
0
345
0
346
0
  0
DICTIONARY
  5
1E
102
{ACAD_REACTORS
330
19
102
}
100
AcDbDictionary
280
     0
281
     1
  3
Layout1
350
21
  3
Model
350
20
  0
DICTIONARY
  5
22
102
{ACAD_REACTORS
330
19
102
}
100
AcDbDictionary
280
     0
281
     1
  0
WIPEOUTVARIABLES
  5
23
100
AcDbWipeoutVariables
 70
     1
  0
ENDSEC
  0
EOF
