<?xml version="1.0" encoding="utf-8"?>
<!-- Generator: Adobe Illustrator 25.2.1, SVG Export Plug-In . SVG Version: 6.00 Build 0)  -->
<svg version="1.1" id="Capa_1" xmlns:freecad="http://www.freecadweb.org/wiki/index.php?title=Svg_Namespace"
	 xmlns="http://www.w3.org/2000/svg" xmlns:xlink="http://www.w3.org/1999/xlink" x="0px" y="0px" viewBox="0 0 841.9 595.3"
	 style="enable-background:new 0 0 841.9 595.3;" xml:space="preserve">
<style type="text/css">
	.st0{fill:none;stroke:#000000;stroke-width:0.9921;stroke-miterlimit:11.3386;}
	.st1{font-family:'ArialMT';}
	.st2{font-size:8.5039px;}
	.st3{font-size:14.1732px;}
	.st4{fill:none;stroke:#000000;stroke-width:0.9921;stroke-miterlimit:9.0709;}
</style>
<g>
	<rect id="drawing-border" x="28.3" y="28.3" class="st0" width="785.2" height="538.6"/>
	<g transform="translate(87,-65)">
		<g id="titleblock-structure">
			<rect x="216.3" y="524.2" class="st0" width="510.2" height="107.7"/>
			<path class="st0" d="M216.3,555.4h510.2"/>
			<path class="st0" d="M386.4,524.2v31.2"/>
			<path class="st0" d="M556.5,524.2v107.7"/>
			<path class="st0" d="M613.2,524.2v31.2"/>
			<path class="st0" d="M669.9,524.2v31.2"/>
			<path class="st0" d="M556.5,600.7h170.1"/>
			<path class="st0" d="M669.9,600.7v31.2"/>
		</g>
		<g id="titleblock-text-non-editable">
			<text transform="matrix(1 0 0 1 219.1416 534.134)" class="st1 st2">Created by:</text>
			<text transform="matrix(1 0 0 1 389.2207 534.134)" class="st1 st2">Title:</text>
			<text transform="matrix(1 0 0 1 219.1416 565.3146)" class="st1 st2">Supplementary information:</text>
			<text transform="matrix(1 0 0 1 559.2988 534.134)" class="st1 st2">Size:</text>
			<text transform="matrix(1 0 0 1 615.9922 534.134)" class="st1 st2">Sheet:</text>
			<text transform="matrix(1 0 0 1 672.6846 534.134)" class="st1 st2">Scale:</text>
			<text transform="matrix(1 0 0 1 559.2988 565.3146)" class="st1 st2">Part number:</text>
			<text transform="matrix(1 0 0 1 559.2988 587.9914)" class="st1 st2">Drawing no.:</text>
			<text transform="matrix(1 0 0 1 559.2988 610.6691)" class="st1 st2">Date:</text>
			<text transform="matrix(1 0 0 1 672.6846 610.6691)" class="st1 st2">Revision:</text>
		</g>
		<g id="titleblock-text-editable">
			<text transform="matrix(1 0 0 1 247.7637 549.7238)" class="st1 st3">Antonio Sanchez</text>
			<text transform="matrix(1 0 0 1 422.5898 549.7238)" class="st1 st3">NILOX PENCIL</text>
			<text transform="matrix(1 0 0 1 317.4609 600.7473)" class="st1 st3">APPROX IBERIA S.L.</text>
			<text transform="matrix(1 0 0 1 571.0215 549.7238)" class="st1 st3">1 / 1</text>
			<text transform="matrix(1 0 0 1 627.7148 549.7238)" class="st1 st3">1 / 1</text>
			<text transform="matrix(1 0 0 1 682.4424 549.7238)" class="st1 st3">PN 1</text>
			<text transform="matrix(1 0 0 1 653.7041 572.4016)" class="st1 st3">DN 1</text>
			<text transform="matrix(1 0 0 1 634.3828 595.0783)" class="st1 st3">14/12/2021</text>
			<text transform="matrix(1 0 0 1 592.2813 626.2599)" class="st1 st3">REV A</text>
		</g>
		<g id="freecad-logo" transform="translate(128.5,254)">
			<path class="st0" d="M395.8,347.2v25.1h5.6v-9.8h4v-3.9h-4v-4.2h9.7v-7.2C411.1,347.2,395.8,347.2,395.8,347.2z"/>
			<path class="st0" d="M417.5,356.5L416,356l-1.4-3.5l-2.2,0.1l-1,3.6l-1.4,0.7l-3.4-1.5l-1.5,1.6l1.9,3.3l-0.5,1.4l-3.5,1.4
				l0.1,2.2l3.6,1l0.7,1.4L406,371l1.6,1.5l3.3-1.9l1.4,0.5l1.4,3.5l2.2-0.1l1-3.6l1.4-0.7l3.4,1.5l1.5-1.6l-1.9-3.3l0.5-1.4
				l3.5-1.4l-0.1-2.2l-3.6-1l-0.7-1.4l1.5-3.4l-1.6-1.5L417.5,356.5z M415.8,360l0.7,0.4l0.6,0.5l0.5,0.6l0.3,0.7l0.2,0.8l0,0.8
				l-0.1,0.8l-0.3,0.7l-0.4,0.7l-0.5,0.6l-0.6,0.5l-0.7,0.3l-0.8,0.2l-0.8,0l-0.8-0.1l-0.7-0.3l-0.7-0.4l-0.6-0.5l-0.5-0.6l-0.3-0.7
				l-0.2-0.8l0-0.8l0.1-0.8l0.3-0.7l0.4-0.7l0.5-0.6l0.6-0.5l0.7-0.3l0.8-0.2l0.8,0l0.8,0.1L415.8,360L415.8,360z"/>
		</g>
	</g>
</g>
<g id="Ortho_0_0" transform="rotate(-90,58.6134,144.25) translate(58.6134,144.25) scale(0.8,0.8)">
	<g transform="scale(1,-1)">
		<path id="_x31_" class="st4" d="M123-129.7l-41.4,8"/>
		<path id="_x32_" class="st4" d="M81.6-121.7h-412.4"/>
		<path class="st4" d="M-330.8-121.7c-7,0-12.8-5.7-12.8-12.8"/>
		<path class="st4" d="M-343.6-134.4c0-4.8,2.7-9.3,7.1-11.4"/>
		<path class="st4" d="M123-129.7c0.6-0.1,1.2-0.7,1.1-1.4"/>
		<path class="st4" d="M124.2-137.3c1.6,0,2.8,1.3,2.8,2.8"/>
		<path class="st4" d="M127-134.4c0,1.6-1.3,2.8-2.8,2.8"/>
	</g>
	<g transform="scale(1,-1)">
		<path class="st4" d="M81.6-145.8h1h0.9h0.8H85h0.7h0.6h0.5h0.5h0.4H88h0.2h0.2h0.1h0"/>
		<path id="_x32__1_" class="st4" d="M81.6-145.8h-412.4"/>
		<path class="st4" d="M-330.8-145.8c-0.6,0-1.3,0-1.9,0c-0.2,0-0.4,0-0.6,0c-0.2,0-0.4,0-0.6,0c-0.2,0-0.3,0-0.5,0
			c-0.2,0-0.3,0-0.5,0c-0.1,0-0.3,0-0.4,0c-0.1,0-0.2,0-0.4,0c-0.1,0-0.2,0-0.3,0c-0.1,0-0.2,0-0.2,0c-0.1,0-0.1,0-0.2,0
			c0,0-0.1,0-0.1,0c0,0,0,0,0,0"/>
		<path id="_x36_" class="st4" d="M88.5-145.8l34.5,6.7"/>
		<path class="st4" d="M-330.8-134.4c0-1,0-2,0-3c0-0.3,0-0.6,0-1c0-0.3,0-0.6,0-0.9c0-0.3,0-0.6,0-0.9c0-0.3,0-0.6,0-0.9
			c0-0.3,0-0.6,0-0.8c0-0.3,0-0.5,0-0.8c0-0.2,0-0.5,0-0.7c0-0.2,0-0.5,0-0.7c0-0.2,0-0.4,0-0.6c0-0.2,0-0.4,0-0.6
			c0-0.2,0-0.3,0-0.5"/>
		<path class="st4" d="M-330.8-121.7C-330.8-121.7-330.8-121.7-330.8-121.7c0-0.2,0-0.2,0-0.3c0-0.1,0-0.3,0-0.4c0-0.2,0-0.4,0-0.5
			c0-0.2,0-0.5,0-0.7c0-0.3,0-0.6,0-0.8c0-0.3,0-0.6,0-1c0-0.4,0-0.7,0-1.1c0-0.4,0-0.8,0-1.2c0-0.4,0-0.8,0-1.3c0-0.4,0-0.9,0-1.3
			c0-0.5,0-0.9,0-1.4c0-0.9,0-1.9,0-2.8"/>
		<path class="st4" d="M123-139.2c0.7,0.1,1.1,0.7,1.1,1.4"/>
		<path class="st4" d="M124.2-131.1L124.2-131.1v-0.3v-0.4v-0.5v-0.6v-0.7v-0.7v-0.7v-0.7v-0.6v-0.5v-0.4v-0.2v-0.1"/>
	</g>
</g>
<g id="Ortho_1_0" transform="rotate(-90,83.8173,144.25) translate(83.8173,144.25) scale(0.8,0.8)">
	<g transform="scale(1,-1)">
		<path id="_x31__1_" class="st4" d="M123-197l-41.4-8"/>
		<path id="_x32__2_" class="st4" d="M123-187.5l-41.4,8"/>
		<path id="_x33_" class="st4" d="M81.6-179.5h-412.4"/>
		<path id="_x34_" class="st4" d="M81.6-205h-412.4"/>
		<path class="st4" d="M-343.6-192.2c0-7,5.7-12.8,12.8-12.8"/>
		<path class="st4" d="M123-197c0.6,0.1,1.2,0.7,1.1,1.4"/>
		<path class="st4" d="M123-187.5c0.6-0.1,1.2-0.7,1.1-1.4"/>
		<path class="st4" d="M127-192.2c0,1.6-1.3,2.8-2.8,2.8"/>
	</g>
	<g transform="scale(1,-1)">
		<path class="st4" d="M-308.1-193.4C-308.1-193.4-308.1-193.4-308.1-193.4C-308.1-193.4-308.1-193.4-308.1-193.4c0.1,0,0.1,0,0.2,0
			c0,0,0.1,0,0.1,0c0.1,0,0.1,0,0.2,0c0.1,0,0.1,0,0.2,0c0.1,0,0.1,0,0.2,0c0.1,0,0.2,0,0.2,0c0.2,0,0.3,0,0.5,0c0.4,0,0.8,0,1.2,0"
			/>
		<path id="_x32__3_" class="st4" d="M-305.3-193.4h14.2"/>
		<path class="st4" d="M-288.3-193.4C-288.3-193.4-288.3-193.4-288.3-193.4C-288.3-193.4-288.3-193.4-288.3-193.4
			c-0.1,0-0.1,0-0.2,0c0,0-0.1,0-0.1,0c-0.1,0-0.1,0-0.2,0c-0.1,0-0.1,0-0.2,0c-0.1,0-0.1,0-0.2,0c-0.1,0-0.2,0-0.2,0
			c-0.2,0-0.3,0-0.5,0c-0.4,0-0.8,0-1.2,0"/>
		<path id="_x34__1_" class="st4" d="M-308.1-191.1v-2.3"/>
		<path class="st4" d="M-308.1-191.1C-308.1-191.1-308.1-191.1-308.1-191.1C-308.1-191.1-308.1-191.1-308.1-191.1c0.1,0,0.1,0,0.2,0
			c0,0,0.1,0,0.1,0c0.1,0,0.1,0,0.2,0c0.1,0,0.1,0,0.2,0c0.1,0,0.1,0,0.2,0c0.1,0,0.2,0,0.2,0c0.2,0,0.3,0,0.5,0c0.4,0,0.8,0,1.2,0"
			/>
		<path id="_x36__1_" class="st4" d="M-291.1-191.1h-14.2"/>
		<path id="_x37_" class="st4" d="M-288.3-193.4v2.3"/>
		<path class="st4" d="M-288.3-191.1C-288.3-191.1-288.3-191.1-288.3-191.1C-288.3-191.1-288.3-191.1-288.3-191.1
			c-0.1,0-0.1,0-0.2,0c0,0-0.1,0-0.1,0c-0.1,0-0.1,0-0.2,0c-0.1,0-0.1,0-0.2,0c-0.1,0-0.1,0-0.2,0c-0.1,0-0.2,0-0.2,0
			c-0.2,0-0.3,0-0.5,0c-0.4,0-0.8,0-1.2,0"/>
		<path id="_x39_" class="st4" d="M-307.4-195.8h17"/>
		<path class="st4" d="M-290.4-188.7c2,0,3.5-1.6,3.5-3.5s-1.6-3.5-3.5-3.5"/>
		<path class="st4" d="M-307.4-195.8c-2,0-3.5,1.6-3.5,3.5s1.6,3.5,3.5,3.5"/>
		<path id="_x31_2" class="st4" d="M-290.4-188.7h-17"/>
		<path class="st4" d="M81.6-186.5l1-0.4l0.9-0.4l0.8-0.4l0.7-0.4l0.7-0.4l0.6-0.4l0.5-0.4l0.5-0.4l0.4-0.4l0.3-0.4l0.2-0.4l0.2-0.4
			l0.1-0.4l0-0.4"/>
		<path id="_x31_4" class="st4" d="M81.6-186.5h-412.4"/>
		<path class="st4" d="M88.5-192.2l0-0.4l-0.1-0.4l-0.2-0.4l-0.2-0.4l-0.3-0.4l-0.4-0.4l-0.5-0.4l-0.5-0.4l-0.6-0.4l-0.7-0.4
			l-0.7-0.4l-0.8-0.4l-0.9-0.4l-1-0.4"/>
		<path class="st4" d="M-330.8-186.5c-3.1,0-5.7-2.5-5.7-5.7s2.5-5.7,5.7-5.7"/>
		<path id="_x31_7" class="st4" d="M81.6-197.9h-412.4"/>
		<circle class="st4" cx="-274.4" cy="-192.2" r="1.1"/>
		<circle class="st4" cx="-268.7" cy="-192.2" r="1.1"/>
		<circle class="st4" cx="-263.1" cy="-192.2" r="1.1"/>
		<circle class="st4" cx="-257.4" cy="-192.2" r="1.1"/>
		<path class="st4" d="M-330.8-179.5L-330.8-179.5v-0.2v-0.2v-0.3v-0.4v-0.4v-0.5v-0.6v-0.6v-0.7v-0.7v-0.8v-0.8v-0.9"/>
		<path class="st4" d="M-330.8-197.9v-0.9v-0.8v-0.8v-0.7v-0.7v-0.6v-0.6v-0.5v-0.4v-0.4v-0.3v-0.2v-0.1v0"/>
		<path class="st4" d="M-343.6-192.2c0,7,5.7,12.8,12.8,12.8"/>
		<path class="st4" d="M124.2-192.2c0-0.4,0-0.8,0-1.1c0-0.2,0-0.5,0-0.7c0-0.1,0-0.2,0-0.3c0-0.1,0-0.2,0-0.3c0-0.1,0-0.2,0-0.3
			c0-0.1,0-0.1,0-0.2c0-0.1,0-0.1,0-0.2c0,0,0-0.1,0-0.1c0,0,0-0.1,0-0.1c0,0,0,0,0-0.1c0,0,0,0,0,0"/>
		<path class="st4" d="M124.2-188.9C124.2-188.9,124.2-188.9,124.2-188.9C124.2-188.9,124.2-188.9,124.2-188.9c0-0.1,0-0.2,0-0.2
			c0,0,0-0.1,0-0.1c0-0.1,0-0.1,0-0.2c0-0.1,0-0.1,0-0.2c0-0.1,0-0.2,0-0.3c0-0.1,0-0.2,0-0.3c0-0.2,0-0.4,0-0.6c0-0.5,0-1,0-1.5"/>
		<path class="st4" d="M124.2-195.1c1.6,0,2.8,1.3,2.8,2.8"/>
	</g>
</g>
<g id="Ortho_0_-1" transform="rotate(90,230,144.25) translate(230,144.25) scale(0.8,0.8)">
	<g transform="scale(1,-1)">
		<path class="st4" d="M325.1,538.9h0.1h0.4h0.7h0.9h1.1h1.2h1.3h1.3h1.2h1.1h0.9h0.7h0.4h0.1"/>
		<path class="st4" d="M318.1,527.5c0,4.8,2.7,9.3,7.1,11.4"/>
		<path class="st4" d="M336.5,538.9c6.3-3.1,8.9-10.8,5.8-17.1c-3.1-6.3-10.8-8.9-17.1-5.8c-4.3,2.2-7.1,6.6-7.1,11.4"/>
	</g>
</g>
<g id="Ortho_0_1" transform="rotate(90,230,36.7472) translate(230,36.7472) scale(0.8,0.8)">
	<g transform="scale(1,-1)">
		<path class="st4" d="M89.9,538.9c-2,0-3.8,0-5.7,0"/>
		<path class="st4" d="M84.3,538.9c-1.8,0-3.6,0-5.7,0"/>
		<path class="st4" d="M89.9,538.9C89.9,538.9,89.9,538.9,89.9,538.9C89.9,538.9,89.9,538.9,89.9,538.9c-0.1,0-0.1,0-0.1,0
			c0,0-0.1,0-0.2,0c-0.1,0-0.2,0-0.3,0c-0.4,0-0.9,0-1.6,0"/>
		<path class="st4" d="M80.7,538.9c-0.7,0-1.2,0-1.6,0c0,0-0.1,0-0.1,0c-0.1,0-0.2,0-0.2,0c0,0-0.1,0-0.1,0c0,0,0,0-0.1,0
			c0,0,0,0,0,0c0,0,0,0,0,0"/>
		<path class="st4" d="M97,527.5c0,4.8-2.7,9.3-7.1,11.4"/>
		<path class="st4" d="M78.6,538.9c-6.3-3.1-8.9-10.8-5.8-17.1c3.1-6.3,10.8-8.9,17.1-5.8c4.3,2.2,7.1,6.6,7.1,11.4"/>
		<circle class="st4" cx="84.3" cy="527.5" r="2.8"/>
	</g>
</g>
<g id="Ortho_1_1" transform="rotate(120,200,144.25) translate(200,144.25) scale(0.8,0.8)">
	<g transform="scale(1,-1)">
		<path id="_x31__2_" class="st4" d="M40.4,559.4l-0.7,0.4"/>
		<path id="_x32__4_" class="st4" d="M-266.4,381.2l24.7,23.4"/>
		<path id="_x33__1_" class="st4" d="M-261.7,373.1l32.7,9.7"/>
		<path id="_x34__2_" class="st4" d="M-228.1,383.2L63.5,551.6"/>
		<path id="_x35_" class="st4" d="M-240.9,405.3L50.8,573.7"/>
		<path class="st4" d="M63.5,551.6c3.9,2.3,6.4,6.5,6.4,11"/>
		<path class="st4" d="M69.9,562.6c0,7-5.7,12.8-12.8,12.8c-2.2,0-4.4-0.6-6.4-1.7"/>
		<path class="st4" d="M-266.4,381.2c-0.8-0.8-1.1-2.1-0.8-3.5"/>
		<path class="st4" d="M-265.1,374.1c0.3-0.3,0.6-0.5,0.9-0.7c0.3-0.2,0.7-0.3,1-0.4c0.5-0.1,1-0.1,1.4,0"/>
		<path class="st4" d="M-266,379.3c-0.9-0.5-1.4-1.4-1.4-2.5"/>
		<path class="st4" d="M-267.4,376.9c0-1.6,1.3-2.8,2.8-2.8c0.5,0,1,0.1,1.4,0.4"/>
	</g>
	<g transform="scale(1,-1)">
		<path class="st4" d="M39.7,559.7c-0.4,0.2-0.9,0.2-1.4-0.1"/>
		<path id="_x32__5_" class="st4" d="M38.3,559.6l-10-5.8"/>
		<path class="st4" d="M27.8,553.5c0.2,0.1,0.3,0.3,0.5,0.4"/>
		<path id="_x34__3_" class="st4" d="M38.1,563.8l-12-6.9"/>
		<path class="st4" d="M31.1,554c-1.4-0.8-3.6-0.8-5,0c-0.7,0.4-1,0.9-1,1.4"/>
		<path class="st4" d="M25.1,555.5c0,0.5,0.4,1.1,1,1.4"/>
		<path class="st4" d="M38.1,563.8c1.4,0.8,3.6,0.8,5,0c0.7-0.4,1-0.9,1-1.4"/>
		<path class="st4" d="M44.2,562.4c0-0.5-0.4-1.1-1-1.4"/>
		<path id="_x39__1_" class="st4" d="M31.1,554l12,6.9"/>
		<path class="st4" d="M-230.5,401.3l-1-0.2l-0.9-0.2l-0.9-0.2l-0.8-0.1l-0.8-0.1l-0.7-0.1l-0.7,0l-0.6,0l-0.5,0l-0.5,0l-0.4,0.1
			l-0.4,0.1l-0.3,0.1l-0.3,0.1"/>
		<path id="_x31_1" class="st4" d="M-230.5,401.3L61.2,569.6"/>
		<path class="st4" d="M-239.3,400.8l-0.3,0.2l-0.2,0.2l-0.2,0.2l-0.1,0.3l-0.1,0.3l0,0.3l0,0.3l0.1,0.4l0.1,0.4l0.2,0.4l0.2,0.5
			l0.3,0.5l0.3,0.5l0.4,0.6"/>
		<path class="st4" d="M61.2,569.6c2.2,1.3,2.2,3.4,0,4.6c-2.2,1.3-5.8,1.3-8,0"/>
		<path id="_x31_4_1_" class="st4" d="M-238.5,405.9L53.1,574.3"/>
		<path class="st4" d="M18.1,548.5c-0.4-0.3-1.2-0.3-1.6,0c-0.2,0.1-0.3,0.3-0.3,0.5"/>
		<path class="st4" d="M16.1,548.9c0,0.4,0.5,0.7,1.1,0.7c0.6,0,1.1-0.3,1.1-0.7"/>
		<path class="st4" d="M18.4,548.9c0-0.2-0.1-0.3-0.3-0.5"/>
		<path class="st4" d="M14.1,546.1c-0.4-0.3-1.2-0.3-1.6,0c-0.2,0.1-0.3,0.3-0.3,0.5"/>
		<path class="st4" d="M12.1,546.6c0,0.4,0.5,0.7,1.1,0.7c0.6,0,1.1-0.3,1.1-0.7"/>
		<path class="st4" d="M14.4,546.6c0-0.2-0.1-0.3-0.3-0.5"/>
		<path class="st4" d="M10.1,543.8c-0.4-0.3-1.2-0.3-1.6,0c-0.2,0.1-0.3,0.3-0.3,0.5"/>
		<path class="st4" d="M8.1,544.3c0,0.4,0.5,0.7,1.1,0.7c0.6,0,1.1-0.3,1.1-0.7"/>
		<path class="st4" d="M10.4,544.3c0-0.2-0.1-0.3-0.3-0.5"/>
		<path class="st4" d="M6,541.5c-0.4-0.3-1.2-0.3-1.6,0c-0.2,0.1-0.3,0.3-0.3,0.5"/>
		<path class="st4" d="M4.1,542c0,0.4,0.5,0.7,1.1,0.7c0.6,0,1.1-0.3,1.1-0.7"/>
		<path class="st4" d="M6.4,542c0-0.2-0.1-0.3-0.3-0.5"/>
		<path class="st4" d="M-238.5,405.9c-0.9,0-1.7-0.2-2.4-0.6"/>
		<path class="st4" d="M-240.9,405.3c-0.3-0.2-0.6-0.4-0.8-0.6"/>
		<path class="st4" d="M-229,382.8c0.3,0.1,0.6,0.2,0.9,0.4"/>
		<path class="st4" d="M66.2,557.4c0,4-1.9,8.7-5,12.2"/>
		<path class="st4" d="M53.1,574.3c-0.9,0-1.7-0.2-2.4-0.6"/>
		<path class="st4" d="M63.5,551.6c1.7,1,2.6,3.1,2.6,5.8"/>
		<path class="st4" d="M-263.1,374.4c0.8,0.5,0.8,1.9,0,3.3c-0.8,1.4-2.1,2.1-2.8,1.6c0,0,0,0,0,0"/>
	</g>
</g>
<g id="Ortho_1_-1" transform="rotate(60,110,144.25) translate(110,144.25) scale(0.8,0.8)">
	<g transform="scale(1,-1)">
		<path id="_x31__3_" class="st4" d="M383.9,76.8l-0.7-0.4"/>
		<path id="_x32__6_" class="st4" d="M93.8,242.6l32.7-9.7"/>
		<path id="_x33__2_" class="st4" d="M89,234.4l24.7-23.4"/>
		<path id="_x34__4_" class="st4" d="M114.6,210.4L406.2,42"/>
		<path id="_x35__1_" class="st4" d="M127.4,232.5L419,64.1"/>
		<path class="st4" d="M406.2,42c6.1-3.5,13.9-1.4,17.4,4.7c3.5,6.1,1.4,13.9-4.7,17.4"/>
		<path class="st4" d="M91.2,242.2c0.4,0.2,0.7,0.4,1.1,0.4c0.5,0.1,1,0.1,1.4,0"/>
		<path class="st4" d="M89,234.4c-0.6,0.6-0.9,1.4-0.9,2.3c0,0.6,0.1,1.3,0.4,2c0.5,1.4,1.6,2.8,2.7,3.4"/>
		<path class="st4" d="M90.4,241.6c-1.5-0.3-2.5-1.8-2.2-3.3c0-0.1,0.1-0.2,0.1-0.4"/>
	</g>
	<g transform="scale(1,-1)">
		<path class="st4" d="M396.5,69.9c-0.3,0.4-0.7,0.8-1.1,1"/>
		<path id="_x32__7_" class="st4" d="M395.4,70.9l-10,5.8"/>
		<path class="st4" d="M383.9,76.8c0.4,0.2,0.9,0.2,1.4-0.1"/>
		<path id="_x34__5_" class="st4" d="M398.6,73.4l-12,6.9"/>
		<path class="st4" d="M381.6,77.4c-0.7,0.4-1,0.9-1,1.4"/>
		<path class="st4" d="M380.5,78.9c0,1.1,1.6,2,3.5,2c0.9,0,1.8-0.2,2.5-0.6"/>
		<path class="st4" d="M398.6,73.4c0.7-0.4,1-0.9,1-1.4"/>
		<path class="st4" d="M399.6,71.9c0-1.1-1.6-2-3.5-2c-0.9,0-1.8,0.2-2.5,0.6"/>
		<path id="_x39__2_" class="st4" d="M381.6,77.4l12-6.9"/>
		<path class="st4" d="M117,228.5l-0.4,0.6l-0.3,0.5l-0.3,0.5l-0.2,0.5l-0.2,0.4l-0.1,0.4l-0.1,0.4l0,0.3l0,0.3l0.1,0.3l0.1,0.3
			l0.2,0.2l0.2,0.2l0.3,0.2"/>
		<path id="_x31_1_1_" class="st4" d="M117,228.5L408.6,60.1"/>
		<path class="st4" d="M116.1,233.6l0.3,0.1l0.3,0.1l0.4,0.1l0.4,0.1l0.5,0l0.5,0l0.6,0l0.7,0l0.7-0.1l0.8-0.1l0.8-0.1l0.9-0.2
			l0.9-0.2l1-0.2"/>
		<path class="st4" d="M408.6,60.1c2.2-1.3,5.8-1.3,8,0c2.2,1.3,2.2,3.3,0,4.6"/>
		<path id="_x31_4_2_" class="st4" d="M125,233.1L416.6,64.7"/>
		<path class="st4" d="M371.9,85c-0.2,0.1-0.3,0.3-0.3,0.5"/>
		<path class="st4" d="M371.6,85.4c0,0.4,0.5,0.7,1.1,0.7c0.6,0,1.1-0.3,1.1-0.7"/>
		<path class="st4" d="M373.9,85.4c0-0.4-0.5-0.7-1.1-0.7c-0.3,0-0.6,0.1-0.8,0.2"/>
		<path class="st4" d="M367.9,87.3c-0.2,0.1-0.3,0.3-0.3,0.5"/>
		<path class="st4" d="M367.6,87.7c0,0.4,0.5,0.7,1.1,0.7s1.1-0.3,1.1-0.7"/>
		<path class="st4" d="M369.9,87.7c0-0.4-0.5-0.7-1.1-0.7c-0.3,0-0.6,0.1-0.8,0.2"/>
		<path class="st4" d="M363.9,89.6c-0.2,0.1-0.3,0.3-0.3,0.5"/>
		<path class="st4" d="M363.6,90c0,0.4,0.5,0.7,1.1,0.7c0.6,0,1.1-0.3,1.1-0.7"/>
		<path class="st4" d="M365.9,90c0-0.4-0.5-0.7-1.1-0.7c-0.3,0-0.6,0.1-0.8,0.2"/>
		<path class="st4" d="M359.9,91.9c-0.2,0.1-0.3,0.3-0.3,0.5"/>
		<path class="st4" d="M359.6,92.4c0,0.4,0.5,0.7,1.1,0.7c0.6,0,1.1-0.3,1.1-0.7"/>
		<path class="st4" d="M361.8,92.4c0-0.4-0.5-0.7-1.1-0.7c-0.3,0-0.6,0.1-0.8,0.2"/>
		<path class="st4" d="M125,233.1c0.5,0,1-0.1,1.4-0.2"/>
		<path class="st4" d="M126.4,232.9c0.3-0.1,0.6-0.2,0.9-0.4"/>
		<path class="st4" d="M114.6,210.4c-0.3,0.2-0.6,0.4-0.8,0.6"/>
		<path class="st4" d="M403.6,47.9c0,4,1.9,8.7,5,12.2"/>
		<path class="st4" d="M416.6,64.7c0.9,0,1.7-0.2,2.4-0.6"/>
		<path class="st4" d="M406.2,42c-1.7,1-2.6,3.1-2.6,5.8"/>
	</g>
</g>
<g id="Ortho_-1_-1" transform="rotate(120,140,144.25) translate(140,144.25) scale(0.8,0.8)">
	<g transform="scale(1,-1)">
		<path id="_x31__4_" class="st4" d="M-197.6,262.1l24.7,23.4"/>
		<path id="_x32__8_" class="st4" d="M-192.9,253.9l32.7,9.7"/>
		<path id="_x33__3_" class="st4" d="M-159.3,264l291.6,168.4"/>
		<path id="_x34__6_" class="st4" d="M-172.1,286.1l291.6,168.4"/>
		<path class="st4" d="M132.3,432.4c6.1,3.5,8.2,11.3,4.7,17.4c-3.5,6.1-11.3,8.2-17.4,4.7c0,0,0,0,0,0"/>
		<path class="st4" d="M-192.9,253.9c-0.8-0.2-1.7-0.1-2.5,0.4c-0.6,0.3-1.1,0.8-1.6,1.3c-0.5,0.6-1,1.4-1.2,2.2
			c-0.2,0.7-0.4,1.3-0.4,2c0,0.4,0.1,0.8,0.2,1.1c0.2,0.5,0.4,0.9,0.8,1.2"/>
		<path class="st4" d="M-198.4,258.6c-0.5-1.5,0.3-3.1,1.8-3.6c0.1,0,0.2-0.1,0.4-0.1"/>
	</g>
</g>
<g id="Ortho_-1_1" transform="rotate(60,170,144.25) translate(170,144.25) scale(0.8,0.8)">
	<g transform="scale(1,-1)">
		<path id="_x31__5_" class="st4" d="M162.6,361.8l32.7-9.7"/>
		<path id="_x32__9_" class="st4" d="M157.8,353.6l24.7-23.4"/>
		<path id="_x33__4_" class="st4" d="M183.4,329.6L475,161.2"/>
		<path id="_x34__7_" class="st4" d="M196.2,351.7l291.6-168.4"/>
		<path class="st4" d="M475,161.2c6.1-3.5,13.9-1.4,17.4,4.7c1.1,1.9,1.7,4.1,1.7,6.4"/>
		<path class="st4" d="M494.2,172.2c0,4.6-2.4,8.8-6.4,11"/>
		<path class="st4" d="M160,361.4c-0.3-0.2-0.6-0.4-0.9-0.6"/>
		<path class="st4" d="M157,357.1c-0.2-0.8-0.1-1.6,0.1-2.2c0.2-0.5,0.4-0.9,0.8-1.2"/>
		<path class="st4" d="M162.6,361.8c-0.2,0.1-0.4,0.1-0.5,0.1c-0.7,0.1-1.4-0.1-2-0.5"/>
		<path class="st4" d="M161.1,360.4c-1.4,0.8-3.1,0.3-3.9-1c-0.2-0.4-0.4-0.9-0.4-1.4"/>
		<path class="st4" d="M156.9,358c0-1,0.5-1.9,1.4-2.5"/>
	</g>
	<g transform="scale(1,-1)">
		<path class="st4" d="M196.2,351.7c-0.3,0.2-0.6,0.3-0.9,0.4"/>
		<path class="st4" d="M182.6,330.2c0.2-0.2,0.5-0.4,0.8-0.6"/>
		<path class="st4" d="M490.4,177.4c0,2.8-1,4.9-2.6,5.8"/>
		<path class="st4" d="M475,161.2c3.5-2,9.2,1.3,12.8,7.4c1.7,2.9,2.6,6.1,2.6,8.9"/>
		<path class="st4" d="M158.3,355.5c0.8-0.5,2.1,0.3,2.8,1.6c0.8,1.4,0.8,2.8,0,3.3"/>
	</g>
</g>
</svg>
